{"glyphs":{"0":{"ha":842,"x_min":69,"x_max":772,"o":"m 421 846 q 678 747 585 846 q 772 408 772 647 q 678 72 772 171 q 421 -28 585 -28 q 163 72 256 -28 q 69 408 69 171 q 163 747 69 647 q 421 846 256 846 m 421 701 q 326 679 365 701 q 263 593 286 657 q 239 408 239 529 q 263 225 239 289 q 326 139 288 161 q 421 117 365 117 q 516 139 476 117 q 580 225 556 161 q 604 408 604 289 q 580 592 604 528 q 516 679 556 657 q 421 701 476 701 z "},"1":{"ha":686,"x_min":36,"x_max":661,"o":"m 349 840 l 453 840 l 453 140 l 661 140 l 661 0 l 71 0 l 71 140 l 292 140 l 292 603 l 128 467 l 36 581 l 349 840 z "},"2":{"ha":758,"x_min":46,"x_max":718,"o":"m 46 117 l 179 239 q 379 425 326 375 q 451 513 428 471 q 475 597 475 554 q 440 677 475 647 q 346 707 406 707 q 240 681 294 707 q 144 613 186 656 l 47 714 q 196 816 122 785 q 358 847 269 847 q 506 816 440 847 q 608 727 571 785 q 644 596 644 669 q 601 471 644 533 q 475 338 557 408 q 350 228 390 263 l 250 140 l 533 140 l 601 244 l 718 178 l 611 0 l 82 0 l 46 117 z "},"3":{"ha":719,"x_min":26,"x_max":664,"o":"m 342 490 q 435 522 399 490 q 471 601 471 553 q 431 678 471 650 q 324 707 390 707 q 221 687 272 707 q 138 635 169 667 l 39 731 q 167 817 92 789 q 332 846 243 846 q 547 782 468 846 q 625 617 625 718 q 585 499 625 553 q 482 428 544 444 q 615 357 567 408 q 664 229 664 306 q 579 42 664 111 q 347 -28 494 -28 q 170 1 243 -28 q 26 88 97 29 l 119 204 q 225 134 174 156 q 343 113 276 113 q 456 145 413 113 q 499 232 499 178 q 453 319 499 286 q 332 353 408 353 l 244 353 l 244 490 l 342 490 z "},"4":{"ha":783,"x_min":29,"x_max":728,"o":"m 294 0 l 294 140 l 458 140 l 458 232 l 31 232 l 29 353 l 347 868 l 472 799 l 197 364 l 458 364 l 458 657 l 618 657 l 618 364 l 728 365 l 728 232 l 618 232 l 618 140 l 722 140 l 722 0 l 294 0 z "},"5":{"ha":742,"x_min":58,"x_max":689,"o":"m 251 510 q 415 556 328 556 q 553 522 490 556 q 652 425 615 489 q 689 275 689 361 q 599 51 689 129 q 349 -26 508 -26 q 194 2 269 -26 q 58 85 119 31 l 157 189 q 256 129 204 150 q 356 108 307 108 q 487 150 442 108 q 532 269 532 192 q 485 384 532 342 q 369 426 438 426 q 278 406 324 426 q 196 343 233 385 l 100 388 l 100 818 l 621 818 l 621 678 l 251 678 l 251 510 z "},"6":{"ha":783,"x_min":65,"x_max":735,"o":"m 628 658 q 551 692 600 678 q 458 707 501 707 q 338 672 389 707 q 261 577 288 636 q 233 451 235 518 q 336 511 279 489 q 454 533 393 533 q 655 469 575 533 q 735 258 735 404 q 706 130 735 194 q 603 19 676 65 q 407 -28 529 -28 q 65 406 65 -28 q 113 632 65 532 q 249 789 161 732 q 456 846 338 846 q 584 824 519 846 q 681 781 649 803 l 628 658 m 426 408 q 318 387 371 408 q 238 332 265 365 q 297 154 249 203 q 417 106 346 106 q 501 128 467 106 q 553 187 536 151 q 571 258 571 222 q 532 372 571 335 q 426 408 493 408 z "},"7":{"ha":700,"x_min":29,"x_max":689,"o":"m 689 725 q 475 348 544 536 q 413 0 406 160 l 250 0 q 313 328 256 168 q 497 678 369 488 l 193 678 l 174 581 l 29 613 l 68 818 l 689 818 l 689 725 z "},"8":{"ha":758,"x_min":64,"x_max":694,"o":"m 378 846 q 592 785 508 846 q 675 604 675 724 q 637 495 675 549 q 533 424 599 442 q 655 346 615 401 q 694 226 694 290 q 606 35 694 99 q 381 -28 517 -28 q 153 35 243 -28 q 64 226 64 99 q 103 347 64 292 q 225 424 143 401 q 122 495 160 442 q 83 604 83 549 q 165 785 83 724 q 378 846 247 846 m 378 715 q 281 685 317 715 q 246 604 246 654 q 281 519 246 553 q 378 485 317 485 q 475 519 439 485 q 511 604 511 553 q 476 685 511 654 q 378 715 440 715 m 381 354 q 270 318 308 354 q 232 226 232 282 q 272 137 232 171 q 378 103 313 103 q 485 137 444 103 q 525 226 525 171 q 488 318 525 282 q 381 354 450 354 z "},"9":{"ha":774,"x_min":53,"x_max":724,"o":"m 158 160 q 237 126 186 140 q 333 111 288 111 q 451 145 401 111 q 526 235 501 179 q 553 357 551 292 q 449 297 506 319 q 333 275 393 275 q 133 341 213 275 q 53 557 53 407 q 82 687 53 621 q 184 799 111 753 q 379 846 257 846 q 724 413 724 846 q 672 174 724 274 q 533 24 621 75 q 332 -28 444 -28 q 203 -7 267 -28 q 107 36 140 14 l 158 160 m 368 711 q 256 663 296 711 q 217 551 217 615 q 256 438 217 476 q 358 399 294 399 q 469 422 417 399 q 549 481 521 444 q 490 662 539 613 q 368 711 442 711 z "},"\u0000":{"ha":0,"x_min":0,"x_max":0,"o":""},"\r":{"ha":332,"x_min":0,"x_max":0,"o":""}," ":{"ha":332,"x_min":0,"x_max":0,"o":""},"A":{"ha":944,"x_min":8,"x_max":935,"o":"m 8 0 l 8 140 l 146 140 l 356 678 l 239 678 l 239 818 l 554 818 l 810 140 l 935 140 l 935 0 l 575 0 l 575 140 l 649 140 l 606 260 l 329 260 l 286 140 l 367 140 l 367 0 l 8 0 m 369 369 l 568 369 l 471 660 l 369 369 z "},"Á":{"ha":944,"x_min":8,"x_max":935,"o":"m 8 0 l 8 140 l 146 140 l 356 678 l 239 678 l 239 818 l 554 818 l 810 140 l 935 140 l 935 0 l 575 0 l 575 140 l 649 140 l 606 260 l 329 260 l 286 140 l 367 140 l 367 0 l 8 0 m 369 369 l 568 369 l 471 660 l 369 369 m 675 1100 l 711 968 l 360 914 l 338 976 l 675 1100 z "},"Ă":{"ha":944,"x_min":8,"x_max":935,"o":"m 8 0 l 8 140 l 146 140 l 356 678 l 239 678 l 239 818 l 554 818 l 810 140 l 935 140 l 935 0 l 575 0 l 575 140 l 649 140 l 606 260 l 329 260 l 286 140 l 367 140 l 367 0 l 8 0 m 369 369 l 568 369 l 471 660 l 369 369 m 458 914 q 293 963 354 914 q 218 1108 232 1013 l 326 1124 q 364 1045 331 1072 q 458 1018 397 1018 q 556 1045 521 1018 q 593 1124 590 1072 l 701 1108 q 626 963 688 1013 q 458 914 565 914 z "},"Ắ":{"ha":944,"x_min":8,"x_max":935,"o":"m 8 0 l 8 140 l 146 140 l 356 678 l 239 678 l 239 818 l 554 818 l 810 140 l 935 140 l 935 0 l 575 0 l 575 140 l 649 140 l 606 260 l 329 260 l 286 140 l 367 140 l 367 0 l 8 0 m 369 369 l 568 369 l 471 660 l 369 369 m 458 914 q 293 963 354 914 q 218 1108 232 1013 l 326 1124 q 364 1045 331 1072 q 458 1018 397 1018 q 556 1045 521 1018 q 593 1124 590 1072 l 701 1108 q 626 963 688 1013 q 458 914 565 914 m 686 1336 l 722 1204 l 371 1150 l 349 1213 l 686 1336 z "},"Ặ":{"ha":944,"x_min":8,"x_max":935,"o":"m 8 0 l 8 140 l 146 140 l 356 678 l 239 678 l 239 818 l 554 818 l 810 140 l 935 140 l 935 0 l 575 0 l 575 140 l 649 140 l 606 260 l 329 260 l 286 140 l 367 140 l 367 0 l 8 0 m 369 369 l 568 369 l 471 660 l 369 369 m 472 -81 q 542 -107 515 -81 q 568 -176 568 -133 q 542 -246 568 -219 q 472 -272 515 -272 q 403 -246 429 -272 q 378 -176 378 -219 q 403 -107 378 -133 q 472 -81 429 -81 m 458 914 q 293 963 354 914 q 218 1108 232 1013 l 326 1124 q 364 1045 331 1072 q 458 1018 397 1018 q 556 1045 521 1018 q 593 1124 590 1072 l 701 1108 q 626 963 688 1013 q 458 914 565 914 z "},"Ằ":{"ha":944,"x_min":8,"x_max":935,"o":"m 8 0 l 8 140 l 146 140 l 356 678 l 239 678 l 239 818 l 554 818 l 810 140 l 935 140 l 935 0 l 575 0 l 575 140 l 649 140 l 606 260 l 329 260 l 286 140 l 367 140 l 367 0 l 8 0 m 369 369 l 568 369 l 471 660 l 369 369 m 458 914 q 293 963 354 914 q 218 1108 232 1013 l 326 1124 q 364 1045 331 1072 q 458 1018 397 1018 q 556 1045 521 1018 q 593 1124 590 1072 l 701 1108 q 626 963 688 1013 q 458 914 565 914 m 231 1338 l 569 1214 l 549 1151 l 196 1207 l 231 1338 z "},"Ẳ":{"ha":944,"x_min":8,"x_max":935,"o":"m 8 0 l 8 140 l 146 140 l 356 678 l 239 678 l 239 818 l 554 818 l 810 140 l 935 140 l 935 0 l 575 0 l 575 140 l 649 140 l 606 260 l 329 260 l 286 140 l 367 140 l 367 0 l 8 0 m 369 369 l 568 369 l 471 660 l 369 369 m 458 914 q 293 963 354 914 q 218 1108 232 1013 l 326 1124 q 364 1045 331 1072 q 458 1018 397 1018 q 556 1045 521 1018 q 593 1124 590 1072 l 701 1108 q 626 963 688 1013 q 458 914 565 914 m 404 1168 q 444 1212 429 1189 q 458 1256 458 1235 q 447 1285 458 1274 q 414 1297 435 1297 q 342 1257 379 1297 l 281 1325 q 433 1403 350 1403 q 528 1369 493 1403 q 563 1283 563 1336 q 535 1197 563 1240 q 456 1119 508 1154 l 404 1168 z "},"Ẵ":{"ha":944,"x_min":8,"x_max":935,"o":"m 8 0 l 8 140 l 146 140 l 356 678 l 239 678 l 239 818 l 554 818 l 810 140 l 935 140 l 935 0 l 575 0 l 575 140 l 649 140 l 606 260 l 329 260 l 286 140 l 367 140 l 367 0 l 8 0 m 369 369 l 568 369 l 471 660 l 369 369 m 225 1267 q 299 1311 268 1299 q 372 1324 331 1324 q 419 1316 399 1324 q 474 1293 440 1308 q 551 1267 521 1267 q 601 1276 579 1267 q 660 1310 622 1285 l 678 1218 q 610 1172 640 1186 q 538 1158 579 1158 q 498 1165 517 1158 q 451 1186 479 1172 q 406 1208 425 1200 q 364 1215 386 1215 q 321 1209 339 1215 q 280 1192 303 1203 q 246 1176 257 1182 l 225 1267 m 457 914 q 292 963 353 914 q 217 1108 231 1013 l 325 1124 q 363 1045 329 1072 q 457 1018 396 1018 q 554 1045 519 1018 q 592 1124 589 1072 l 700 1108 q 625 963 686 1013 q 457 914 564 914 z "},"Â":{"ha":944,"x_min":8,"x_max":935,"o":"m 8 0 l 8 140 l 146 140 l 356 678 l 239 678 l 239 818 l 554 818 l 810 140 l 935 140 l 935 0 l 575 0 l 575 140 l 649 140 l 606 260 l 329 260 l 286 140 l 367 140 l 367 0 l 8 0 m 369 369 l 568 369 l 471 660 l 369 369 m 458 1103 l 708 958 l 665 899 l 460 981 l 247 899 l 208 958 l 458 1103 z "},"Ấ":{"ha":944,"x_min":8,"x_max":935,"o":"m 8 0 l 8 140 l 146 140 l 356 678 l 239 678 l 239 818 l 554 818 l 810 140 l 935 140 l 935 0 l 575 0 l 575 140 l 649 140 l 606 260 l 329 260 l 286 140 l 367 140 l 367 0 l 8 0 m 369 369 l 568 369 l 471 660 l 369 369 m 553 1342 l 618 1229 l 338 1111 l 308 1168 l 553 1342 m 458 1103 l 708 958 l 665 899 l 460 981 l 247 899 l 208 958 l 458 1103 z "},"Ậ":{"ha":944,"x_min":8,"x_max":935,"o":"m 8 0 l 8 140 l 146 140 l 356 678 l 239 678 l 239 818 l 554 818 l 810 140 l 935 140 l 935 0 l 575 0 l 575 140 l 649 140 l 606 260 l 329 260 l 286 140 l 367 140 l 367 0 l 8 0 m 369 369 l 568 369 l 471 660 l 369 369 m 472 -81 q 542 -107 515 -81 q 568 -176 568 -133 q 542 -246 568 -219 q 472 -272 515 -272 q 403 -246 429 -272 q 378 -176 378 -219 q 403 -107 378 -133 q 472 -81 429 -81 m 458 1103 l 708 958 l 665 899 l 460 981 l 247 899 l 208 958 l 458 1103 z "},"Ầ":{"ha":944,"x_min":8,"x_max":935,"o":"m 8 0 l 8 140 l 146 140 l 356 678 l 239 678 l 239 818 l 554 818 l 810 140 l 935 140 l 935 0 l 575 0 l 575 140 l 649 140 l 606 260 l 329 260 l 286 140 l 367 140 l 367 0 l 8 0 m 369 369 l 568 369 l 471 660 l 369 369 m 379 1328 l 625 1156 l 596 1099 l 314 1217 l 379 1328 m 458 1103 l 708 958 l 665 899 l 460 981 l 247 899 l 208 958 l 458 1103 z "},"Ẩ":{"ha":944,"x_min":8,"x_max":935,"o":"m 8 0 l 8 140 l 146 140 l 356 678 l 239 678 l 239 818 l 554 818 l 810 140 l 935 140 l 935 0 l 575 0 l 575 140 l 649 140 l 606 260 l 329 260 l 286 140 l 367 140 l 367 0 l 8 0 m 369 369 l 568 369 l 471 660 l 369 369 m 458 1103 l 708 958 l 665 899 l 460 981 l 247 899 l 208 958 l 458 1103 m 582 1094 q 622 1138 607 1115 q 636 1182 636 1161 q 624 1212 636 1200 q 592 1224 613 1224 q 519 1183 557 1224 l 458 1251 q 611 1329 528 1329 q 706 1296 671 1329 q 740 1210 740 1263 q 713 1124 740 1167 q 633 1046 686 1081 l 582 1094 z "},"Ẫ":{"ha":944,"x_min":8,"x_max":935,"o":"m 8 0 l 8 140 l 146 140 l 356 678 l 239 678 l 239 818 l 554 818 l 810 140 l 935 140 l 935 0 l 575 0 l 575 140 l 649 140 l 606 260 l 329 260 l 286 140 l 367 140 l 367 0 l 8 0 m 369 369 l 568 369 l 471 660 l 369 369 m 243 1226 q 317 1271 286 1258 q 390 1283 349 1283 q 440 1275 417 1283 q 492 1253 464 1267 q 534 1234 517 1240 q 569 1228 551 1228 q 619 1237 597 1228 q 678 1271 640 1246 l 696 1179 q 628 1133 658 1147 q 556 1119 597 1119 q 516 1126 535 1119 q 469 1147 497 1133 q 424 1169 443 1161 q 382 1176 404 1176 q 339 1170 357 1176 q 298 1153 321 1164 q 264 1138 275 1143 l 243 1226 m 461 1103 l 711 958 l 668 899 l 463 981 l 250 899 l 211 958 l 461 1103 z "},"Ȁ":{"ha":944,"x_min":8,"x_max":935,"o":"m 8 0 l 8 140 l 146 140 l 356 678 l 239 678 l 239 818 l 554 818 l 810 140 l 935 140 l 935 0 l 575 0 l 575 140 l 649 140 l 606 260 l 329 260 l 286 140 l 367 140 l 367 0 l 8 0 m 369 369 l 568 369 l 471 660 l 369 369 m 389 1157 l 585 951 l 542 908 l 310 1063 l 389 1157 m 153 1099 l 401 964 l 372 911 l 101 986 l 153 1099 z "},"Ä":{"ha":944,"x_min":8,"x_max":935,"o":"m 8 0 l 8 140 l 146 140 l 356 678 l 239 678 l 239 818 l 554 818 l 810 140 l 935 140 l 935 0 l 575 0 l 575 140 l 649 140 l 606 260 l 329 260 l 286 140 l 367 140 l 367 0 l 8 0 m 369 369 l 568 369 l 471 660 l 369 369 m 326 1111 q 392 1083 364 1111 q 421 1015 421 1054 q 392 949 421 976 q 326 921 364 921 q 259 949 288 921 q 231 1015 231 976 q 259 1083 231 1054 q 326 1111 288 1111 m 592 1111 q 658 1083 629 1111 q 686 1015 686 1054 q 658 949 686 976 q 592 921 629 921 q 524 949 553 921 q 496 1015 496 976 q 524 1083 496 1054 q 592 1111 553 1111 z "},"Ạ":{"ha":944,"x_min":8,"x_max":935,"o":"m 8 0 l 8 140 l 146 140 l 356 678 l 239 678 l 239 818 l 554 818 l 810 140 l 935 140 l 935 0 l 575 0 l 575 140 l 649 140 l 606 260 l 329 260 l 286 140 l 367 140 l 367 0 l 8 0 m 369 369 l 568 369 l 471 660 l 369 369 m 472 -81 q 542 -107 515 -81 q 568 -176 568 -133 q 542 -246 568 -219 q 472 -272 515 -272 q 403 -246 429 -272 q 378 -176 378 -219 q 403 -107 378 -133 q 472 -81 429 -81 z "},"À":{"ha":944,"x_min":8,"x_max":935,"o":"m 8 0 l 8 140 l 146 140 l 356 678 l 239 678 l 239 818 l 554 818 l 810 140 l 935 140 l 935 0 l 575 0 l 575 140 l 649 140 l 606 260 l 329 260 l 286 140 l 367 140 l 367 0 l 8 0 m 369 369 l 568 369 l 471 660 l 369 369 m 219 1101 l 558 978 l 538 915 l 185 971 l 219 1101 z "},"Ả":{"ha":944,"x_min":8,"x_max":935,"o":"m 8 0 l 8 140 l 146 140 l 356 678 l 239 678 l 239 818 l 554 818 l 810 140 l 935 140 l 935 0 l 575 0 l 575 140 l 649 140 l 606 260 l 329 260 l 286 140 l 367 140 l 367 0 l 8 0 m 369 369 l 568 369 l 471 660 l 369 369 m 433 932 q 473 976 458 953 q 488 1019 488 999 q 476 1049 488 1038 q 443 1061 464 1061 q 371 1021 408 1061 l 310 1089 q 463 1167 379 1167 q 557 1133 522 1167 q 592 1047 592 1100 q 565 961 592 1004 q 485 883 538 918 l 433 932 z "},"Ȃ":{"ha":944,"x_min":8,"x_max":935,"o":"m 8 0 l 8 140 l 146 140 l 356 678 l 239 678 l 239 818 l 554 818 l 810 140 l 935 140 l 935 0 l 575 0 l 575 140 l 649 140 l 606 260 l 329 260 l 286 140 l 367 140 l 367 0 l 8 0 m 369 369 l 568 369 l 471 660 l 369 369 m 458 1138 q 626 1088 565 1138 q 701 943 688 1039 l 593 928 q 556 1006 590 979 q 458 1033 521 1033 q 364 1006 397 1033 q 326 928 331 979 l 218 943 q 293 1088 232 1039 q 458 1138 354 1138 z "},"Ā":{"ha":944,"x_min":8,"x_max":935,"o":"m 8 0 l 8 140 l 146 140 l 356 678 l 239 678 l 239 818 l 554 818 l 810 140 l 935 140 l 935 0 l 575 0 l 575 140 l 649 140 l 606 260 l 329 260 l 286 140 l 367 140 l 367 0 l 8 0 m 369 369 l 568 369 l 471 660 l 369 369 m 226 1056 l 690 1056 l 690 950 l 226 950 l 226 1056 z "},"Ą":{"ha":944,"x_min":8,"x_max":935,"o":"m 785 0 q 695 -69 722 -32 q 668 -151 668 -107 q 691 -200 668 -182 q 751 -218 714 -218 q 819 -204 786 -218 l 819 -304 q 696 -331 760 -331 q 567 -294 614 -331 q 519 -200 519 -257 q 656 0 519 -81 l 575 0 l 575 140 l 649 140 l 606 260 l 329 260 l 286 140 l 367 140 l 367 0 l 8 0 l 8 140 l 146 140 l 356 678 l 239 678 l 239 818 l 554 818 l 810 140 l 935 140 l 935 0 l 785 0 m 369 369 l 568 369 l 471 660 l 369 369 z "},"Å":{"ha":965,"x_min":8,"x_max":935,"o":"m 935 140 l 935 0 l 575 0 l 575 140 l 649 140 l 606 260 l 329 260 l 286 140 l 367 140 l 367 0 l 8 0 l 8 140 l 146 140 l 356 678 l 239 678 l 239 818 l 386 818 q 342 928 342 858 q 381 1033 342 993 q 486 1072 421 1072 q 591 1033 551 1072 q 631 928 631 993 q 612 851 631 885 q 561 801 593 818 l 810 140 l 935 140 m 486 996 q 436 977 456 996 q 417 928 417 958 q 436 878 417 897 q 486 860 456 860 q 535 878 517 860 q 554 928 554 897 q 535 977 554 958 q 486 996 517 996 m 369 369 l 568 369 l 471 660 l 369 369 z "},"Ǻ":{"ha":965,"x_min":8,"x_max":935,"o":"m 935 140 l 935 0 l 575 0 l 575 140 l 649 140 l 606 260 l 329 260 l 286 140 l 367 140 l 367 0 l 8 0 l 8 140 l 146 140 l 356 678 l 239 678 l 239 818 l 386 818 q 342 928 342 858 q 381 1033 342 993 q 486 1072 421 1072 q 591 1033 551 1072 q 631 928 631 993 q 612 851 631 885 q 561 801 593 818 l 810 140 l 935 140 m 486 996 q 436 977 456 996 q 417 928 417 958 q 436 878 417 897 q 486 860 456 860 q 535 878 517 860 q 554 928 554 897 q 535 977 554 958 q 486 996 517 996 m 369 369 l 568 369 l 471 660 l 369 369 m 701 1307 l 738 1175 l 386 1121 l 364 1183 l 701 1307 z "},"Ã":{"ha":944,"x_min":8,"x_max":935,"o":"m 8 0 l 8 140 l 146 140 l 356 678 l 239 678 l 239 818 l 554 818 l 810 140 l 935 140 l 935 0 l 575 0 l 575 140 l 649 140 l 606 260 l 329 260 l 286 140 l 367 140 l 367 0 l 8 0 m 369 369 l 568 369 l 471 660 l 369 369 m 226 1021 q 310 1073 275 1058 q 393 1088 346 1088 q 444 1080 421 1088 q 496 1057 468 1072 q 538 1038 521 1044 q 574 1032 556 1032 q 622 1040 601 1032 q 682 1074 643 1049 l 719 985 q 643 931 678 947 q 560 915 608 915 q 520 922 539 915 q 474 943 501 929 q 427 965 447 957 q 385 972 407 972 q 342 966 361 972 q 299 949 322 960 q 267 933 276 938 l 226 1021 z "},"Æ":{"ha":1304,"x_min":39,"x_max":1261,"o":"m 39 0 l 39 140 l 171 140 l 503 678 l 372 678 l 372 818 l 1146 818 l 1229 572 l 1096 528 l 1044 678 l 806 678 l 806 482 l 1031 482 l 1031 344 l 806 344 l 806 140 l 1078 140 l 1129 279 l 1261 233 l 1181 0 l 525 0 l 525 140 l 644 140 l 644 239 l 386 239 l 326 140 l 400 140 l 400 0 l 39 0 m 467 378 l 644 378 l 644 678 l 467 378 z "},"Ǽ":{"ha":1304,"x_min":39,"x_max":1261,"o":"m 39 0 l 39 140 l 171 140 l 503 678 l 372 678 l 372 818 l 1146 818 l 1229 572 l 1096 528 l 1044 678 l 806 678 l 806 482 l 1031 482 l 1031 344 l 806 344 l 806 140 l 1078 140 l 1129 279 l 1261 233 l 1181 0 l 525 0 l 525 140 l 644 140 l 644 239 l 386 239 l 326 140 l 400 140 l 400 0 l 39 0 m 467 378 l 644 378 l 644 678 l 467 378 m 951 1100 l 988 968 l 636 914 l 614 976 l 951 1100 z "},"B":{"ha":824,"x_min":57,"x_max":778,"o":"m 57 140 l 175 140 l 175 678 l 57 678 l 57 818 l 422 818 q 667 762 582 818 q 753 599 753 706 q 724 491 753 538 q 643 417 696 444 q 742 348 707 397 q 778 225 778 299 q 707 59 778 118 q 500 0 636 0 l 57 0 l 57 140 m 485 472 q 559 499 533 472 q 585 575 585 526 q 438 678 585 678 l 336 678 l 336 472 l 485 472 m 475 140 q 576 167 542 140 q 611 246 611 194 q 578 321 611 294 q 483 347 546 347 l 336 347 l 336 140 l 475 140 z "},"C":{"ha":843,"x_min":60,"x_max":785,"o":"m 619 686 q 565 701 608 692 q 478 711 521 711 q 292 633 357 711 q 226 411 226 556 q 292 186 226 265 q 478 107 358 107 q 576 123 536 107 q 619 140 615 139 l 649 261 l 783 231 l 742 33 q 703 16 742 32 q 606 -14 665 0 q 478 -28 547 -28 q 172 85 285 -28 q 60 414 60 197 q 112 645 60 547 q 258 794 164 743 q 476 846 351 846 q 614 830 554 846 q 710 796 674 814 q 746 775 746 778 l 785 579 l 649 549 l 619 686 z "},"Ć":{"ha":843,"x_min":60,"x_max":785,"o":"m 619 686 q 565 701 608 692 q 478 711 521 711 q 292 633 357 711 q 226 411 226 556 q 292 186 226 265 q 478 107 358 107 q 576 123 536 107 q 619 140 615 139 l 649 261 l 783 231 l 742 33 q 703 16 742 32 q 606 -14 665 0 q 478 -28 547 -28 q 172 85 285 -28 q 60 414 60 197 q 112 645 60 547 q 258 794 164 743 q 476 846 351 846 q 614 830 554 846 q 710 796 674 814 q 746 775 746 778 l 785 579 l 649 549 l 619 686 m 689 1100 l 725 968 l 374 914 l 351 976 l 689 1100 z "},"Č":{"ha":843,"x_min":60,"x_max":785,"o":"m 619 686 q 565 701 608 692 q 478 711 521 711 q 292 633 357 711 q 226 411 226 556 q 292 186 226 265 q 478 107 358 107 q 576 123 536 107 q 619 140 615 139 l 649 261 l 783 231 l 742 33 q 703 16 742 32 q 606 -14 665 0 q 478 -28 547 -28 q 172 85 285 -28 q 60 414 60 197 q 112 645 60 547 q 258 794 164 743 q 476 846 351 846 q 614 830 554 846 q 710 796 674 814 q 746 775 746 778 l 785 579 l 649 549 l 619 686 m 475 892 l 242 1051 l 288 1121 l 476 1017 l 654 1121 l 703 1051 l 475 892 z "},"Ç":{"ha":843,"x_min":60,"x_max":785,"o":"m 649 261 l 783 231 l 742 33 q 707 17 735 29 q 631 -9 679 4 q 524 -26 582 -22 l 524 -71 q 656 -97 613 -68 q 699 -190 699 -126 q 649 -292 699 -257 q 521 -326 599 -326 q 426 -308 467 -326 q 347 -264 386 -290 l 392 -197 q 519 -237 456 -237 q 565 -223 550 -237 q 579 -183 579 -208 q 506 -139 579 -139 l 425 -139 l 425 -25 q 157 101 254 -10 q 60 414 60 213 q 112 645 60 547 q 258 794 164 743 q 476 846 351 846 q 614 830 554 846 q 710 796 674 814 q 746 775 746 778 l 785 579 l 649 549 l 619 686 q 565 701 608 692 q 478 711 521 711 q 292 633 357 711 q 226 411 226 556 q 292 186 226 265 q 478 107 358 107 q 576 123 536 107 q 619 140 615 139 l 649 261 z "},"Ḉ":{"ha":843,"x_min":60,"x_max":785,"o":"m 725 968 l 374 914 l 351 976 l 689 1100 l 725 968 m 649 261 l 783 231 l 742 33 q 707 17 735 29 q 631 -9 679 4 q 524 -26 582 -22 l 524 -71 q 656 -97 613 -68 q 699 -190 699 -126 q 649 -292 699 -257 q 521 -326 599 -326 q 426 -308 467 -326 q 347 -264 386 -290 l 392 -197 q 519 -237 456 -237 q 565 -223 550 -237 q 579 -183 579 -208 q 506 -139 579 -139 l 425 -139 l 425 -25 q 157 101 254 -10 q 60 414 60 213 q 112 645 60 547 q 258 794 164 743 q 476 846 351 846 q 614 830 554 846 q 710 796 674 814 q 746 775 746 778 l 785 579 l 649 549 l 619 686 q 565 701 608 692 q 478 711 521 711 q 292 633 357 711 q 226 411 226 556 q 292 186 226 265 q 478 107 358 107 q 576 123 536 107 q 619 140 615 139 l 649 261 z "},"Ĉ":{"ha":843,"x_min":60,"x_max":785,"o":"m 619 686 q 565 701 608 692 q 478 711 521 711 q 292 633 357 711 q 226 411 226 556 q 292 186 226 265 q 478 107 358 107 q 576 123 536 107 q 619 140 615 139 l 649 261 l 783 231 l 742 33 q 703 16 742 32 q 606 -14 665 0 q 478 -28 547 -28 q 172 85 285 -28 q 60 414 60 197 q 112 645 60 547 q 258 794 164 743 q 476 846 351 846 q 614 830 554 846 q 710 796 674 814 q 746 775 746 778 l 785 579 l 649 549 l 619 686 m 472 1103 l 722 958 l 679 899 l 474 981 l 261 899 l 222 958 l 472 1103 z "},"Ċ":{"ha":843,"x_min":60,"x_max":785,"o":"m 619 686 q 565 701 608 692 q 478 711 521 711 q 292 633 357 711 q 226 411 226 556 q 292 186 226 265 q 478 107 358 107 q 576 123 536 107 q 619 140 615 139 l 649 261 l 783 231 l 742 33 q 703 16 742 32 q 606 -14 665 0 q 478 -28 547 -28 q 172 85 285 -28 q 60 414 60 197 q 112 645 60 547 q 258 794 164 743 q 476 846 351 846 q 614 830 554 846 q 710 796 674 814 q 746 775 746 778 l 785 579 l 649 549 l 619 686 m 472 1119 q 542 1093 515 1119 q 568 1024 568 1067 q 542 954 568 981 q 472 928 515 928 q 403 954 429 928 q 378 1024 378 981 q 403 1093 378 1067 q 472 1119 429 1119 z "},"D":{"ha":931,"x_min":57,"x_max":874,"o":"m 438 818 q 758 706 643 818 q 874 394 874 593 q 761 104 874 208 q 449 0 649 0 l 57 0 l 57 140 l 175 140 l 175 678 l 57 678 l 57 818 l 438 818 m 424 140 q 634 204 563 140 q 706 393 706 268 q 638 606 706 533 q 438 678 569 678 l 336 678 l 336 140 l 424 140 z "},"Ð":{"ha":953,"x_min":78,"x_max":894,"o":"m 458 818 q 781 719 668 818 q 894 394 894 619 q 780 96 894 192 q 469 0 665 0 l 78 0 l 78 140 l 196 140 l 196 354 l 78 354 l 78 492 l 196 492 l 196 678 l 78 678 l 78 818 l 458 818 m 444 140 q 606 163 544 140 q 697 241 667 186 q 726 393 726 296 q 697 564 726 501 q 610 652 668 626 q 458 678 551 678 l 357 678 l 357 492 l 490 492 l 490 354 l 357 354 l 357 140 l 444 140 z "},"Ď":{"ha":931,"x_min":57,"x_max":874,"o":"m 438 818 q 758 706 643 818 q 874 394 874 593 q 761 104 874 208 q 449 0 649 0 l 57 0 l 57 140 l 175 140 l 175 678 l 57 678 l 57 818 l 438 818 m 424 140 q 634 204 563 140 q 706 393 706 268 q 638 606 706 533 q 438 678 569 678 l 336 678 l 336 140 l 424 140 m 415 886 l 165 1031 l 204 1090 l 417 1008 l 622 1090 l 665 1031 l 415 886 z "},"Đ":{"ha":953,"x_min":78,"x_max":894,"o":"m 458 818 q 781 719 668 818 q 894 394 894 619 q 780 96 894 192 q 469 0 665 0 l 78 0 l 78 140 l 196 140 l 196 354 l 78 354 l 78 492 l 196 492 l 196 678 l 78 678 l 78 818 l 458 818 m 444 140 q 606 163 544 140 q 697 241 667 186 q 726 393 726 296 q 697 564 726 501 q 610 652 668 626 q 458 678 551 678 l 357 678 l 357 492 l 490 492 l 490 354 l 357 354 l 357 140 l 444 140 z "},"Ḍ":{"ha":931,"x_min":57,"x_max":874,"o":"m 438 818 q 758 706 643 818 q 874 394 874 593 q 761 104 874 208 q 449 0 649 0 l 57 0 l 57 140 l 175 140 l 175 678 l 57 678 l 57 818 l 438 818 m 424 140 q 634 204 563 140 q 706 393 706 268 q 638 606 706 533 q 438 678 569 678 l 336 678 l 336 140 l 424 140 m 432 -81 q 501 -107 475 -81 q 528 -176 528 -133 q 501 -246 528 -219 q 432 -272 475 -272 q 363 -246 389 -272 q 338 -176 338 -219 q 363 -107 338 -133 q 432 -81 389 -81 z "},"Ḏ":{"ha":931,"x_min":57,"x_max":874,"o":"m 438 818 q 758 706 643 818 q 874 394 874 593 q 761 104 874 208 q 449 0 649 0 l 57 0 l 57 140 l 175 140 l 175 678 l 57 678 l 57 818 l 438 818 m 424 140 q 634 204 563 140 q 706 393 706 268 q 638 606 706 533 q 438 678 569 678 l 336 678 l 336 140 l 424 140 m 206 -76 l 661 -76 l 661 -182 l 206 -182 l 206 -76 z "},"E":{"ha":846,"x_min":57,"x_max":803,"o":"m 58 818 l 689 818 l 771 572 l 639 528 l 586 678 l 338 678 l 338 486 l 574 486 l 574 347 l 338 347 l 338 140 l 621 140 l 672 279 l 803 233 l 722 0 l 57 0 l 57 140 l 175 140 l 176 678 l 58 678 l 58 818 z "},"É":{"ha":846,"x_min":57,"x_max":803,"o":"m 58 818 l 689 818 l 771 572 l 639 528 l 586 678 l 338 678 l 338 486 l 574 486 l 574 347 l 338 347 l 338 140 l 621 140 l 672 279 l 803 233 l 722 0 l 57 0 l 57 140 l 175 140 l 176 678 l 58 678 l 58 818 m 631 1100 l 667 968 l 315 914 l 293 976 l 631 1100 z "},"Ĕ":{"ha":846,"x_min":57,"x_max":803,"o":"m 58 818 l 689 818 l 771 572 l 639 528 l 586 678 l 338 678 l 338 486 l 574 486 l 574 347 l 338 347 l 338 140 l 621 140 l 672 279 l 803 233 l 722 0 l 57 0 l 57 140 l 175 140 l 176 678 l 58 678 l 58 818 m 414 914 q 249 963 310 914 q 174 1108 188 1013 l 282 1124 q 319 1045 286 1072 q 414 1018 353 1018 q 511 1045 476 1018 q 549 1124 546 1072 l 657 1108 q 582 963 643 1013 q 414 914 521 914 z "},"Ě":{"ha":846,"x_min":57,"x_max":803,"o":"m 58 818 l 689 818 l 771 572 l 639 528 l 586 678 l 338 678 l 338 486 l 574 486 l 574 347 l 338 347 l 338 140 l 621 140 l 672 279 l 803 233 l 722 0 l 57 0 l 57 140 l 175 140 l 176 678 l 58 678 l 58 818 m 417 892 l 183 1051 l 229 1121 l 418 1017 l 596 1121 l 644 1051 l 417 892 z "},"Ḝ":{"ha":846,"x_min":57,"x_max":803,"o":"m 58 818 l 689 818 l 771 572 l 639 528 l 586 678 l 338 678 l 338 486 l 574 486 l 574 347 l 338 347 l 338 140 l 621 140 l 672 279 l 803 233 l 722 0 l 57 0 l 57 140 l 175 140 l 176 678 l 58 678 l 58 818 m 511 -326 q 417 -308 457 -326 q 338 -264 376 -290 l 382 -197 q 510 -237 446 -237 q 555 -223 540 -237 q 569 -183 569 -208 q 496 -139 569 -139 l 415 -139 l 415 0 l 514 0 l 514 -71 q 646 -97 603 -68 q 689 -190 689 -126 q 639 -292 689 -257 q 511 -326 589 -326 m 414 914 q 249 963 310 914 q 174 1108 188 1013 l 282 1124 q 319 1045 286 1072 q 414 1018 353 1018 q 511 1045 476 1018 q 549 1124 546 1072 l 657 1108 q 582 963 643 1013 q 414 914 521 914 z "},"Ê":{"ha":846,"x_min":57,"x_max":803,"o":"m 58 818 l 689 818 l 771 572 l 639 528 l 586 678 l 338 678 l 338 486 l 574 486 l 574 347 l 338 347 l 338 140 l 621 140 l 672 279 l 803 233 l 722 0 l 57 0 l 57 140 l 175 140 l 176 678 l 58 678 l 58 818 m 414 1103 l 664 958 l 621 899 l 415 981 l 203 899 l 164 958 l 414 1103 z "},"Ế":{"ha":846,"x_min":57,"x_max":803,"o":"m 58 818 l 689 818 l 771 572 l 639 528 l 586 678 l 338 678 l 338 486 l 574 486 l 574 347 l 338 347 l 338 140 l 621 140 l 672 279 l 803 233 l 722 0 l 57 0 l 57 140 l 175 140 l 176 678 l 58 678 l 58 818 m 508 1342 l 574 1229 l 293 1111 l 264 1168 l 508 1342 m 414 1103 l 664 958 l 621 899 l 415 981 l 203 899 l 164 958 l 414 1103 z "},"Ệ":{"ha":846,"x_min":57,"x_max":803,"o":"m 58 818 l 689 818 l 771 572 l 639 528 l 586 678 l 338 678 l 338 486 l 574 486 l 574 347 l 338 347 l 338 140 l 621 140 l 672 279 l 803 233 l 722 0 l 57 0 l 57 140 l 175 140 l 176 678 l 58 678 l 58 818 m 414 -81 q 483 -107 457 -81 q 510 -176 510 -133 q 483 -246 510 -219 q 414 -272 457 -272 q 345 -246 371 -272 q 319 -176 319 -219 q 345 -107 319 -133 q 414 -81 371 -81 m 414 1103 l 664 958 l 621 899 l 415 981 l 203 899 l 164 958 l 414 1103 z "},"Ề":{"ha":846,"x_min":57,"x_max":803,"o":"m 58 818 l 689 818 l 771 572 l 639 528 l 586 678 l 338 678 l 338 486 l 574 486 l 574 347 l 338 347 l 338 140 l 621 140 l 672 279 l 803 233 l 722 0 l 57 0 l 57 140 l 175 140 l 176 678 l 58 678 l 58 818 m 335 1328 l 581 1156 l 551 1099 l 269 1217 l 335 1328 m 414 1103 l 664 958 l 621 899 l 415 981 l 203 899 l 164 958 l 414 1103 z "},"Ể":{"ha":846,"x_min":57,"x_max":803,"o":"m 58 818 l 689 818 l 771 572 l 639 528 l 586 678 l 338 678 l 338 486 l 574 486 l 574 347 l 338 347 l 338 140 l 621 140 l 672 279 l 803 233 l 722 0 l 57 0 l 57 140 l 175 140 l 176 678 l 58 678 l 58 818 m 414 1103 l 664 958 l 621 899 l 415 981 l 203 899 l 164 958 l 414 1103 m 538 1094 q 577 1138 563 1115 q 592 1182 592 1161 q 580 1212 592 1200 q 547 1224 568 1224 q 475 1183 513 1224 l 414 1251 q 567 1329 483 1329 q 661 1296 626 1329 q 696 1210 696 1263 q 669 1124 696 1167 q 589 1046 642 1081 l 538 1094 z "},"Ễ":{"ha":846,"x_min":57,"x_max":803,"o":"m 58 818 l 689 818 l 771 572 l 639 528 l 586 678 l 338 678 l 338 486 l 574 486 l 574 347 l 338 347 l 338 140 l 621 140 l 672 279 l 803 233 l 722 0 l 57 0 l 57 140 l 175 140 l 176 678 l 58 678 l 58 818 m 199 1226 q 273 1271 242 1258 q 346 1283 304 1283 q 396 1275 372 1283 q 447 1253 419 1267 q 490 1234 472 1240 q 525 1228 507 1228 q 574 1237 553 1228 q 633 1271 596 1246 l 651 1179 q 583 1133 614 1147 q 511 1119 553 1119 q 472 1126 490 1119 q 425 1147 453 1133 q 379 1169 399 1161 q 338 1176 360 1176 q 294 1170 313 1176 q 253 1153 276 1164 q 219 1138 231 1143 l 199 1226 m 417 1103 l 667 958 l 624 899 l 418 981 l 206 899 l 167 958 l 417 1103 z "},"Ȅ":{"ha":846,"x_min":40,"x_max":803,"o":"m 58 818 l 689 818 l 771 572 l 639 528 l 586 678 l 338 678 l 338 486 l 574 486 l 574 347 l 338 347 l 338 140 l 621 140 l 672 279 l 803 233 l 722 0 l 57 0 l 57 140 l 175 140 l 176 678 l 58 678 l 58 818 m 403 1238 l 582 950 l 515 904 l 294 1158 l 403 1238 m 129 1208 l 361 963 l 304 904 l 40 1113 l 129 1208 z "},"Ë":{"ha":846,"x_min":57,"x_max":803,"o":"m 58 818 l 689 818 l 771 572 l 639 528 l 586 678 l 338 678 l 338 486 l 574 486 l 574 347 l 338 347 l 338 140 l 621 140 l 672 279 l 803 233 l 722 0 l 57 0 l 57 140 l 175 140 l 176 678 l 58 678 l 58 818 m 282 1111 q 348 1083 319 1111 q 376 1015 376 1054 q 348 949 376 976 q 282 921 319 921 q 215 949 243 921 q 186 1015 186 976 q 215 1083 186 1054 q 282 1111 243 1111 m 547 1111 q 613 1083 585 1111 q 642 1015 642 1054 q 613 949 642 976 q 547 921 585 921 q 480 949 508 921 q 451 1015 451 976 q 480 1083 451 1054 q 547 1111 508 1111 z "},"Ė":{"ha":846,"x_min":57,"x_max":803,"o":"m 58 818 l 689 818 l 771 572 l 639 528 l 586 678 l 338 678 l 338 486 l 574 486 l 574 347 l 338 347 l 338 140 l 621 140 l 672 279 l 803 233 l 722 0 l 57 0 l 57 140 l 175 140 l 176 678 l 58 678 l 58 818 m 414 1119 q 483 1093 457 1119 q 510 1024 510 1067 q 483 954 510 981 q 414 928 457 928 q 345 954 371 928 q 319 1024 319 981 q 345 1093 319 1067 q 414 1119 371 1119 z "},"Ẹ":{"ha":846,"x_min":57,"x_max":803,"o":"m 58 818 l 689 818 l 771 572 l 639 528 l 586 678 l 338 678 l 338 486 l 574 486 l 574 347 l 338 347 l 338 140 l 621 140 l 672 279 l 803 233 l 722 0 l 57 0 l 57 140 l 175 140 l 176 678 l 58 678 l 58 818 m 414 -81 q 483 -107 457 -81 q 510 -176 510 -133 q 483 -246 510 -219 q 414 -272 457 -272 q 345 -246 371 -272 q 319 -176 319 -219 q 345 -107 319 -133 q 414 -81 371 -81 z "},"È":{"ha":846,"x_min":57,"x_max":803,"o":"m 58 818 l 689 818 l 771 572 l 639 528 l 586 678 l 338 678 l 338 486 l 574 486 l 574 347 l 338 347 l 338 140 l 621 140 l 672 279 l 803 233 l 722 0 l 57 0 l 57 140 l 175 140 l 176 678 l 58 678 l 58 818 m 175 1101 l 514 978 l 493 915 l 140 971 l 175 1101 z "},"Ẻ":{"ha":846,"x_min":57,"x_max":803,"o":"m 58 818 l 689 818 l 771 572 l 639 528 l 586 678 l 338 678 l 338 486 l 574 486 l 574 347 l 338 347 l 338 140 l 621 140 l 672 279 l 803 233 l 722 0 l 57 0 l 57 140 l 175 140 l 176 678 l 58 678 l 58 818 m 389 932 q 428 976 414 953 q 443 1019 443 999 q 431 1049 443 1038 q 399 1061 419 1061 q 326 1021 364 1061 l 265 1089 q 418 1167 335 1167 q 513 1133 478 1167 q 547 1047 547 1100 q 520 961 547 1004 q 440 883 493 918 l 389 932 z "},"Ȇ":{"ha":846,"x_min":57,"x_max":803,"o":"m 58 818 l 689 818 l 771 572 l 639 528 l 586 678 l 338 678 l 338 486 l 574 486 l 574 347 l 338 347 l 338 140 l 621 140 l 672 279 l 803 233 l 722 0 l 57 0 l 57 140 l 175 140 l 176 678 l 58 678 l 58 818 m 414 1138 q 582 1088 521 1138 q 657 943 643 1039 l 549 928 q 511 1006 546 979 q 414 1033 476 1033 q 319 1006 353 1033 q 282 928 286 979 l 174 943 q 249 1088 188 1039 q 414 1138 310 1138 z "},"Ē":{"ha":846,"x_min":57,"x_max":803,"o":"m 58 818 l 689 818 l 771 572 l 639 528 l 586 678 l 338 678 l 338 486 l 574 486 l 574 347 l 338 347 l 338 140 l 621 140 l 672 279 l 803 233 l 722 0 l 57 0 l 57 140 l 175 140 l 176 678 l 58 678 l 58 818 m 182 1056 l 646 1056 l 646 950 l 182 950 l 182 1056 z "},"Ḗ":{"ha":846,"x_min":57,"x_max":803,"o":"m 58 818 l 689 818 l 771 572 l 639 528 l 586 678 l 338 678 l 338 486 l 574 486 l 574 347 l 338 347 l 338 140 l 621 140 l 672 279 l 803 233 l 722 0 l 57 0 l 57 140 l 175 140 l 176 678 l 58 678 l 58 818 m 182 1056 l 646 1056 l 646 950 l 182 950 l 182 1056 m 636 1303 l 672 1171 l 321 1117 l 299 1179 l 636 1303 z "},"Ḕ":{"ha":846,"x_min":57,"x_max":803,"o":"m 58 818 l 689 818 l 771 572 l 639 528 l 586 678 l 338 678 l 338 486 l 574 486 l 574 347 l 338 347 l 338 140 l 621 140 l 672 279 l 803 233 l 722 0 l 57 0 l 57 140 l 175 140 l 176 678 l 58 678 l 58 818 m 182 1056 l 646 1056 l 646 950 l 182 950 l 182 1056 m 181 1304 l 519 1181 l 499 1118 l 146 1174 l 181 1304 z "},"Ę":{"ha":846,"x_min":57,"x_max":803,"o":"m 606 -151 q 628 -200 606 -182 q 689 -218 651 -218 q 757 -204 724 -218 l 757 -304 q 633 -331 697 -331 q 504 -294 551 -331 q 457 -200 457 -257 q 593 0 457 -81 l 57 0 l 57 140 l 175 140 l 176 678 l 58 678 l 58 818 l 689 818 l 771 572 l 639 528 l 586 678 l 338 678 l 338 486 l 574 486 l 574 347 l 338 347 l 338 140 l 621 140 l 672 279 l 803 233 l 722 0 q 633 -69 660 -32 q 606 -151 606 -107 z "},"Ẽ":{"ha":846,"x_min":57,"x_max":803,"o":"m 58 818 l 689 818 l 771 572 l 639 528 l 586 678 l 338 678 l 338 486 l 574 486 l 574 347 l 338 347 l 338 140 l 621 140 l 672 279 l 803 233 l 722 0 l 57 0 l 57 140 l 175 140 l 176 678 l 58 678 l 58 818 m 182 1021 q 266 1073 231 1058 q 349 1088 301 1088 q 400 1080 376 1088 q 451 1057 424 1072 q 494 1038 476 1044 q 529 1032 511 1032 q 578 1040 557 1032 q 638 1074 599 1049 l 675 985 q 599 931 633 947 q 515 915 564 915 q 476 922 494 915 q 429 943 457 929 q 383 965 403 957 q 340 972 363 972 q 297 966 317 972 q 255 949 278 960 q 222 933 232 938 l 182 1021 z "},"F":{"ha":810,"x_min":57,"x_max":774,"o":"m 58 818 l 689 818 l 774 564 l 642 519 l 588 678 l 336 678 l 336 482 l 550 482 l 550 342 l 335 342 l 335 140 l 511 140 l 511 0 l 57 0 l 57 140 l 176 140 l 178 678 l 58 678 l 58 818 z "},"G":{"ha":869,"x_min":58,"x_max":794,"o":"m 785 81 q 640 -1 706 25 q 475 -28 574 -28 q 258 25 353 -28 q 111 176 164 78 q 58 408 58 275 q 109 639 58 540 q 255 791 160 738 q 479 844 350 844 q 753 763 642 844 l 794 576 l 663 544 l 631 678 q 483 713 569 713 q 356 675 415 713 q 262 568 297 638 q 226 408 226 499 q 258 248 226 315 q 345 145 289 181 q 472 110 401 110 q 555 119 518 110 q 632 149 592 129 l 632 293 l 454 293 l 454 421 l 785 421 l 785 81 z "},"Ğ":{"ha":869,"x_min":58,"x_max":794,"o":"m 785 81 q 640 -1 706 25 q 475 -28 574 -28 q 258 25 353 -28 q 111 176 164 78 q 58 408 58 275 q 109 639 58 540 q 255 791 160 738 q 479 844 350 844 q 753 763 642 844 l 794 576 l 663 544 l 631 678 q 483 713 569 713 q 356 675 415 713 q 262 568 297 638 q 226 408 226 499 q 258 248 226 315 q 345 145 289 181 q 472 110 401 110 q 555 119 518 110 q 632 149 592 129 l 632 293 l 454 293 l 454 421 l 785 421 l 785 81 m 482 914 q 317 963 378 914 q 242 1108 256 1013 l 350 1124 q 388 1045 354 1072 q 482 1018 421 1018 q 579 1045 544 1018 q 617 1124 614 1072 l 725 1108 q 650 963 711 1013 q 482 914 589 914 z "},"Ǧ":{"ha":869,"x_min":58,"x_max":794,"o":"m 785 81 q 640 -1 706 25 q 475 -28 574 -28 q 258 25 353 -28 q 111 176 164 78 q 58 408 58 275 q 109 639 58 540 q 255 791 160 738 q 479 844 350 844 q 753 763 642 844 l 794 576 l 663 544 l 631 678 q 483 713 569 713 q 356 675 415 713 q 262 568 297 638 q 226 408 226 499 q 258 248 226 315 q 345 145 289 181 q 472 110 401 110 q 555 119 518 110 q 632 149 592 129 l 632 293 l 454 293 l 454 421 l 785 421 l 785 81 m 485 892 l 251 1051 l 297 1121 l 486 1017 l 664 1121 l 713 1051 l 485 892 z "},"Ĝ":{"ha":869,"x_min":58,"x_max":794,"o":"m 785 81 q 640 -1 706 25 q 475 -28 574 -28 q 258 25 353 -28 q 111 176 164 78 q 58 408 58 275 q 109 639 58 540 q 255 791 160 738 q 479 844 350 844 q 753 763 642 844 l 794 576 l 663 544 l 631 678 q 483 713 569 713 q 356 675 415 713 q 262 568 297 638 q 226 408 226 499 q 258 248 226 315 q 345 145 289 181 q 472 110 401 110 q 555 119 518 110 q 632 149 592 129 l 632 293 l 454 293 l 454 421 l 785 421 l 785 81 m 482 1103 l 732 958 l 689 899 l 483 981 l 271 899 l 232 958 l 482 1103 z "},"Ģ":{"ha":869,"x_min":58,"x_max":794,"o":"m 785 81 q 640 -1 706 25 q 475 -28 574 -28 q 258 25 353 -28 q 111 176 164 78 q 58 408 58 275 q 109 639 58 540 q 255 791 160 738 q 479 844 350 844 q 753 763 642 844 l 794 576 l 663 544 l 631 678 q 483 713 569 713 q 356 675 415 713 q 262 568 297 638 q 226 408 226 499 q 258 248 226 315 q 345 145 289 181 q 472 110 401 110 q 555 119 518 110 q 632 149 592 129 l 632 293 l 454 293 l 454 421 l 785 421 l 785 81 m 388 -407 q 417 -363 394 -397 q 454 -300 440 -329 q 392 -264 413 -292 q 371 -200 371 -236 q 401 -124 371 -153 q 481 -94 432 -94 q 560 -128 525 -94 q 594 -208 594 -162 q 551 -337 594 -278 q 476 -426 508 -396 q 439 -461 444 -456 l 388 -407 z "},"Ġ":{"ha":869,"x_min":58,"x_max":794,"o":"m 785 81 q 640 -1 706 25 q 475 -28 574 -28 q 258 25 353 -28 q 111 176 164 78 q 58 408 58 275 q 109 639 58 540 q 255 791 160 738 q 479 844 350 844 q 753 763 642 844 l 794 576 l 663 544 l 631 678 q 483 713 569 713 q 356 675 415 713 q 262 568 297 638 q 226 408 226 499 q 258 248 226 315 q 345 145 289 181 q 472 110 401 110 q 555 119 518 110 q 632 149 592 129 l 632 293 l 454 293 l 454 421 l 785 421 l 785 81 m 482 1119 q 551 1093 525 1119 q 578 1024 578 1067 q 551 954 578 981 q 482 928 525 928 q 413 954 439 928 q 388 1024 388 981 q 413 1093 388 1067 q 482 1119 439 1119 z "},"Ḡ":{"ha":869,"x_min":58,"x_max":794,"o":"m 785 81 q 640 -1 706 25 q 475 -28 574 -28 q 258 25 353 -28 q 111 176 164 78 q 58 408 58 275 q 109 639 58 540 q 255 791 160 738 q 479 844 350 844 q 753 763 642 844 l 794 576 l 663 544 l 631 678 q 483 713 569 713 q 356 675 415 713 q 262 568 297 638 q 226 408 226 499 q 258 248 226 315 q 345 145 289 181 q 472 110 401 110 q 555 119 518 110 q 632 149 592 129 l 632 293 l 454 293 l 454 421 l 785 421 l 785 81 m 250 1056 l 714 1056 l 714 950 l 250 950 l 250 1056 z "},"H":{"ha":1024,"x_min":57,"x_max":965,"o":"m 58 818 l 417 817 l 417 678 l 338 678 l 336 483 l 686 483 l 688 678 l 607 678 l 607 818 l 965 818 l 965 678 l 849 678 l 847 140 l 965 140 l 965 0 l 608 0 l 608 140 l 686 140 l 686 344 l 336 344 l 336 140 l 414 140 l 414 0 l 57 0 l 57 140 l 175 140 l 176 678 l 58 678 l 58 818 z "},"Ħ":{"ha":1024,"x_min":57,"x_max":965,"o":"m 965 678 l 849 678 l 849 628 l 944 628 l 944 547 l 849 547 l 847 140 l 965 140 l 965 0 l 608 0 l 608 140 l 686 140 l 686 344 l 336 344 l 336 140 l 414 140 l 414 0 l 57 0 l 57 140 l 175 140 l 176 547 l 71 547 l 71 628 l 176 628 l 176 678 l 58 678 l 58 818 l 417 817 l 417 678 l 338 678 l 338 628 l 688 628 l 688 678 l 607 678 l 607 818 l 965 818 l 965 678 m 686 483 l 686 547 l 336 547 l 336 483 l 686 483 z "},"Ḫ":{"ha":1024,"x_min":57,"x_max":965,"o":"m 58 818 l 417 817 l 417 678 l 338 678 l 336 483 l 686 483 l 688 678 l 607 678 l 607 818 l 965 818 l 965 678 l 849 678 l 847 140 l 965 140 l 965 0 l 608 0 l 608 140 l 686 140 l 686 344 l 336 344 l 336 140 l 414 140 l 414 0 l 57 0 l 57 140 l 175 140 l 176 678 l 58 678 l 58 818 m 511 -285 q 346 -235 407 -285 q 271 -90 285 -186 l 379 -75 q 417 -153 383 -126 q 511 -181 450 -181 q 608 -153 574 -181 q 646 -75 643 -126 l 754 -90 q 679 -235 740 -186 q 511 -285 618 -285 z "},"Ĥ":{"ha":1024,"x_min":57,"x_max":965,"o":"m 58 818 l 417 817 l 417 678 l 338 678 l 336 483 l 686 483 l 688 678 l 607 678 l 607 818 l 965 818 l 965 678 l 849 678 l 847 140 l 965 140 l 965 0 l 608 0 l 608 140 l 686 140 l 686 344 l 336 344 l 336 140 l 414 140 l 414 0 l 57 0 l 57 140 l 175 140 l 176 678 l 58 678 l 58 818 m 511 1103 l 761 958 l 718 899 l 513 981 l 300 899 l 261 958 l 511 1103 z "},"Ḥ":{"ha":1024,"x_min":57,"x_max":965,"o":"m 58 818 l 417 817 l 417 678 l 338 678 l 336 483 l 686 483 l 688 678 l 607 678 l 607 818 l 965 818 l 965 678 l 849 678 l 847 140 l 965 140 l 965 0 l 608 0 l 608 140 l 686 140 l 686 344 l 336 344 l 336 140 l 414 140 l 414 0 l 57 0 l 57 140 l 175 140 l 176 678 l 58 678 l 58 818 m 511 -81 q 581 -107 554 -81 q 607 -176 607 -133 q 581 -246 607 -219 q 511 -272 554 -272 q 442 -246 468 -272 q 417 -176 417 -219 q 442 -107 417 -133 q 511 -81 468 -81 z "},"I":{"ha":540,"x_min":57,"x_max":483,"o":"m 58 818 l 483 818 l 483 678 l 351 678 l 351 140 l 483 140 l 483 0 l 57 0 l 57 140 l 192 140 l 192 678 l 58 678 l 58 818 z "},"Í":{"ha":540,"x_min":57,"x_max":522,"o":"m 58 818 l 483 818 l 483 678 l 351 678 l 351 140 l 483 140 l 483 0 l 57 0 l 57 140 l 192 140 l 192 678 l 58 678 l 58 818 m 486 1100 l 522 968 l 171 914 l 149 976 l 486 1100 z "},"Ĭ":{"ha":540,"x_min":29,"x_max":513,"o":"m 58 818 l 483 818 l 483 678 l 351 678 l 351 140 l 483 140 l 483 0 l 57 0 l 57 140 l 192 140 l 192 678 l 58 678 l 58 818 m 269 914 q 104 963 165 914 q 29 1108 43 1013 l 138 1124 q 175 1045 142 1072 q 269 1018 208 1018 q 367 1045 332 1018 q 404 1124 401 1072 l 513 1108 q 438 963 499 1013 q 269 914 376 914 z "},"Î":{"ha":540,"x_min":19,"x_max":519,"o":"m 58 818 l 483 818 l 483 678 l 351 678 l 351 140 l 483 140 l 483 0 l 57 0 l 57 140 l 192 140 l 192 678 l 58 678 l 58 818 m 269 1103 l 519 958 l 476 899 l 271 981 l 58 899 l 19 958 l 269 1103 z "},"Ȉ":{"ha":540,"x_min":-104,"x_max":483,"o":"m 58 818 l 483 818 l 483 678 l 351 678 l 351 140 l 483 140 l 483 0 l 57 0 l 57 140 l 192 140 l 192 678 l 58 678 l 58 818 m 258 1238 l 438 950 l 371 904 l 150 1158 l 258 1238 m -15 1208 l 217 963 l 160 904 l -104 1113 l -15 1208 z "},"Ï":{"ha":540,"x_min":42,"x_max":497,"o":"m 58 818 l 483 818 l 483 678 l 351 678 l 351 140 l 483 140 l 483 0 l 57 0 l 57 140 l 192 140 l 192 678 l 58 678 l 58 818 m 138 1111 q 203 1083 175 1111 q 232 1015 232 1054 q 203 949 232 976 q 138 921 175 921 q 70 949 99 921 q 42 1015 42 976 q 70 1083 42 1054 q 138 1111 99 1111 m 403 1111 q 469 1083 440 1111 q 497 1015 497 1054 q 469 949 497 976 q 403 921 440 921 q 335 949 364 921 q 307 1015 307 976 q 335 1083 307 1054 q 403 1111 364 1111 z "},"Ḯ":{"ha":540,"x_min":42,"x_max":522,"o":"m 58 818 l 483 818 l 483 678 l 351 678 l 351 140 l 483 140 l 483 0 l 57 0 l 57 140 l 192 140 l 192 678 l 58 678 l 58 818 m 138 1111 q 203 1083 175 1111 q 232 1015 232 1054 q 203 949 232 976 q 138 921 175 921 q 70 949 99 921 q 42 1015 42 976 q 70 1083 42 1054 q 138 1111 99 1111 m 403 1111 q 469 1083 440 1111 q 497 1015 497 1054 q 469 949 497 976 q 403 921 440 921 q 335 949 364 921 q 307 1015 307 976 q 335 1083 307 1054 q 403 1111 364 1111 m 486 1319 l 522 1188 l 171 1133 l 149 1196 l 486 1319 z "},"İ":{"ha":540,"x_min":57,"x_max":483,"o":"m 58 818 l 483 818 l 483 678 l 351 678 l 351 140 l 483 140 l 483 0 l 57 0 l 57 140 l 192 140 l 192 678 l 58 678 l 58 818 m 269 1119 q 339 1093 313 1119 q 365 1024 365 1067 q 339 954 365 981 q 269 928 313 928 q 201 954 226 928 q 175 1024 175 981 q 201 1093 175 1067 q 269 1119 226 1119 z "},"Ị":{"ha":540,"x_min":57,"x_max":483,"o":"m 58 818 l 483 818 l 483 678 l 351 678 l 351 140 l 483 140 l 483 0 l 57 0 l 57 140 l 192 140 l 192 678 l 58 678 l 58 818 m 274 -81 q 343 -107 317 -81 q 369 -176 369 -133 q 343 -246 369 -219 q 274 -272 317 -272 q 205 -246 231 -272 q 179 -176 179 -219 q 205 -107 179 -133 q 274 -81 231 -81 z "},"Ì":{"ha":540,"x_min":-4,"x_max":483,"o":"m 58 818 l 483 818 l 483 678 l 351 678 l 351 140 l 483 140 l 483 0 l 57 0 l 57 140 l 192 140 l 192 678 l 58 678 l 58 818 m 31 1101 l 369 978 l 349 915 l -4 971 l 31 1101 z "},"Ỉ":{"ha":540,"x_min":57,"x_max":483,"o":"m 58 818 l 483 818 l 483 678 l 351 678 l 351 140 l 483 140 l 483 0 l 57 0 l 57 140 l 192 140 l 192 678 l 58 678 l 58 818 m 244 932 q 284 976 269 953 q 299 1019 299 999 q 287 1049 299 1038 q 254 1061 275 1061 q 182 1021 219 1061 l 121 1089 q 274 1167 190 1167 q 368 1133 333 1167 q 403 1047 403 1100 q 376 961 403 1004 q 296 883 349 918 l 244 932 z "},"Ȋ":{"ha":540,"x_min":29,"x_max":513,"o":"m 58 818 l 483 818 l 483 678 l 351 678 l 351 140 l 483 140 l 483 0 l 57 0 l 57 140 l 192 140 l 192 678 l 58 678 l 58 818 m 269 1138 q 438 1088 376 1138 q 513 943 499 1039 l 404 928 q 367 1006 401 979 q 269 1033 332 1033 q 175 1006 208 1033 q 138 928 142 979 l 29 943 q 104 1088 43 1039 q 269 1138 165 1138 z "},"Ī":{"ha":540,"x_min":38,"x_max":501,"o":"m 58 818 l 483 818 l 483 678 l 351 678 l 351 140 l 483 140 l 483 0 l 57 0 l 57 140 l 192 140 l 192 678 l 58 678 l 58 818 m 38 1056 l 501 1056 l 501 950 l 38 950 l 38 1056 z "},"Į":{"ha":540,"x_min":57,"x_max":518,"o":"m 450 -218 q 518 -204 485 -218 l 518 -304 q 394 -331 458 -331 q 265 -294 313 -331 q 218 -200 218 -257 q 354 0 218 -81 l 57 0 l 57 140 l 192 140 l 192 678 l 58 678 l 58 818 l 483 818 l 483 678 l 351 678 l 351 140 l 483 140 l 483 0 q 394 -69 421 -32 q 367 -151 367 -107 q 390 -200 367 -182 q 450 -218 413 -218 z "},"Ĩ":{"ha":540,"x_min":38,"x_max":531,"o":"m 58 818 l 483 818 l 483 678 l 351 678 l 351 140 l 483 140 l 483 0 l 57 0 l 57 140 l 192 140 l 192 678 l 58 678 l 58 818 m 38 1021 q 122 1073 86 1058 q 204 1088 157 1088 q 256 1080 232 1088 q 307 1057 279 1072 q 349 1038 332 1044 q 385 1032 367 1032 q 433 1040 413 1032 q 493 1074 454 1049 l 531 985 q 454 931 489 947 q 371 915 419 915 q 331 922 350 915 q 285 943 313 929 q 238 965 258 957 q 196 972 218 972 q 153 966 172 972 q 110 949 133 960 q 78 933 88 938 l 38 1021 z "},"J":{"ha":733,"x_min":32,"x_max":693,"o":"m 575 332 q 288 -28 575 -28 q 179 -12 228 -28 q 74 32 131 3 l 32 228 l 169 260 l 199 124 q 278 106 240 106 q 378 159 343 106 q 413 306 413 213 l 414 678 l 240 678 l 240 818 l 693 818 l 693 678 l 575 678 l 575 332 z "},"Ĵ":{"ha":733,"x_min":32,"x_max":731,"o":"m 575 332 q 288 -28 575 -28 q 179 -12 228 -28 q 74 32 131 3 l 32 228 l 169 260 l 199 124 q 278 106 240 106 q 378 159 343 106 q 413 306 413 213 l 414 678 l 240 678 l 240 818 l 693 818 l 693 678 l 575 678 l 575 332 m 481 1103 l 731 958 l 688 899 l 482 981 l 269 899 l 231 958 l 481 1103 z "},"K":{"ha":961,"x_min":57,"x_max":913,"o":"m 57 818 l 414 818 l 414 678 l 335 678 l 335 475 l 438 475 l 588 678 l 518 678 l 518 818 l 879 818 l 879 678 l 750 678 l 558 435 l 774 140 l 913 140 l 913 0 l 503 0 l 503 140 l 600 140 l 457 340 l 335 340 l 335 140 l 414 140 l 414 0 l 57 0 l 57 140 l 175 140 l 175 678 l 57 678 l 57 818 z "},"Ķ":{"ha":961,"x_min":57,"x_max":913,"o":"m 57 818 l 414 818 l 414 678 l 335 678 l 335 475 l 438 475 l 588 678 l 518 678 l 518 818 l 879 818 l 879 678 l 750 678 l 558 435 l 774 140 l 913 140 l 913 0 l 503 0 l 503 140 l 600 140 l 457 340 l 335 340 l 335 140 l 414 140 l 414 0 l 57 0 l 57 140 l 175 140 l 175 678 l 57 678 l 57 818 m 367 -407 q 397 -363 374 -397 q 433 -300 419 -329 q 371 -264 392 -292 q 350 -200 350 -236 q 381 -124 350 -153 q 460 -94 411 -94 q 539 -128 504 -94 q 574 -208 574 -162 q 531 -337 574 -278 q 456 -426 488 -396 q 418 -461 424 -456 l 367 -407 z "},"L":{"ha":781,"x_min":57,"x_max":753,"o":"m 57 818 l 493 818 l 493 678 l 350 678 l 349 140 l 569 140 l 619 279 l 753 233 l 671 0 l 57 0 l 57 140 l 190 140 l 190 678 l 57 678 l 57 818 z "},"Ĺ":{"ha":781,"x_min":57,"x_max":753,"o":"m 57 818 l 493 818 l 493 678 l 350 678 l 349 140 l 569 140 l 619 279 l 753 233 l 671 0 l 57 0 l 57 140 l 190 140 l 190 678 l 57 678 l 57 818 m 510 1100 l 546 968 l 194 914 l 172 976 l 510 1100 z "},"Ľ":{"ha":781,"x_min":57,"x_max":753,"o":"m 57 818 l 493 818 l 493 678 l 350 678 l 349 140 l 569 140 l 619 279 l 753 233 l 671 0 l 57 0 l 57 140 l 190 140 l 190 678 l 57 678 l 57 818 m 618 875 l 749 846 l 649 524 l 569 539 l 618 875 z "},"Ļ":{"ha":781,"x_min":57,"x_max":753,"o":"m 57 818 l 493 818 l 493 678 l 350 678 l 349 140 l 569 140 l 619 279 l 753 233 l 671 0 l 57 0 l 57 140 l 190 140 l 190 678 l 57 678 l 57 818 m 286 -407 q 316 -363 293 -397 q 353 -300 339 -329 q 290 -264 311 -292 q 269 -200 269 -236 q 300 -124 269 -153 q 379 -94 331 -94 q 458 -128 424 -94 q 493 -208 493 -162 q 450 -337 493 -278 q 375 -426 407 -396 q 338 -461 343 -456 l 286 -407 z "},"Ŀ":{"ha":833,"x_min":57,"x_max":753,"o":"m 57 818 l 493 818 l 493 678 l 350 678 l 349 140 l 569 140 l 619 279 l 753 233 l 671 0 l 57 0 l 57 140 l 190 140 l 190 678 l 57 678 l 57 818 m 521 574 q 598 541 565 574 q 631 463 631 508 q 598 384 631 417 q 521 351 565 351 q 441 384 474 351 q 408 463 408 417 q 441 541 408 508 q 521 574 474 574 z "},"Ḷ":{"ha":781,"x_min":57,"x_max":753,"o":"m 57 818 l 493 818 l 493 678 l 350 678 l 349 140 l 569 140 l 619 279 l 753 233 l 671 0 l 57 0 l 57 140 l 190 140 l 190 678 l 57 678 l 57 818 m 381 -81 q 450 -107 424 -81 q 476 -176 476 -133 q 450 -246 476 -219 q 381 -272 424 -272 q 312 -246 338 -272 q 286 -176 286 -219 q 312 -107 286 -133 q 381 -81 338 -81 z "},"Ḻ":{"ha":781,"x_min":57,"x_max":753,"o":"m 57 818 l 493 818 l 493 678 l 350 678 l 349 140 l 569 140 l 619 279 l 753 233 l 671 0 l 57 0 l 57 140 l 190 140 l 190 678 l 57 678 l 57 818 m 154 -76 l 610 -76 l 610 -182 l 154 -182 l 154 -76 z "},"Ł":{"ha":781,"x_min":57,"x_max":753,"o":"m 619 279 l 753 233 l 671 0 l 57 0 l 57 140 l 190 140 l 190 271 l 103 225 l 103 344 l 190 390 l 190 678 l 57 678 l 57 818 l 493 818 l 493 678 l 350 678 l 350 474 l 618 615 l 618 496 l 349 354 l 349 140 l 569 140 l 619 279 z "},"M":{"ha":1207,"x_min":57,"x_max":1150,"o":"m 58 818 l 425 818 l 611 311 l 779 818 l 1150 818 l 1150 678 l 1032 678 l 1032 140 l 1150 140 l 1150 0 l 782 0 l 782 140 l 871 140 l 871 704 l 815 518 l 668 99 l 550 99 l 381 535 l 325 694 l 324 140 l 415 140 l 415 0 l 57 0 l 57 140 l 175 140 l 175 678 l 58 678 l 58 818 z "},"Ṃ":{"ha":1207,"x_min":57,"x_max":1150,"o":"m 58 818 l 425 818 l 611 311 l 779 818 l 1150 818 l 1150 678 l 1032 678 l 1032 140 l 1150 140 l 1150 0 l 782 0 l 782 140 l 871 140 l 871 704 l 815 518 l 668 99 l 550 99 l 381 535 l 325 694 l 324 140 l 415 140 l 415 0 l 57 0 l 57 140 l 175 140 l 175 678 l 58 678 l 58 818 m 604 -81 q 674 -107 647 -81 q 700 -176 700 -133 q 674 -246 700 -219 q 604 -272 647 -272 q 535 -246 561 -272 q 510 -176 510 -219 q 535 -107 510 -133 q 604 -81 561 -81 z "},"N":{"ha":1028,"x_min":57,"x_max":989,"o":"m 58 818 l 418 818 l 714 231 l 714 678 l 607 678 l 607 818 l 989 818 l 989 678 l 858 678 l 858 0 l 672 0 l 321 679 l 322 140 l 439 140 l 439 0 l 57 0 l 57 140 l 178 140 l 178 678 l 58 678 l 58 818 z "},"Ń":{"ha":1028,"x_min":57,"x_max":989,"o":"m 58 818 l 418 818 l 714 231 l 714 678 l 607 678 l 607 818 l 989 818 l 989 678 l 858 678 l 858 0 l 672 0 l 321 679 l 322 140 l 439 140 l 439 0 l 57 0 l 57 140 l 178 140 l 178 678 l 58 678 l 58 818 m 736 1100 l 772 968 l 421 914 l 399 976 l 736 1100 z "},"Ň":{"ha":1028,"x_min":57,"x_max":989,"o":"m 58 818 l 418 818 l 714 231 l 714 678 l 607 678 l 607 818 l 989 818 l 989 678 l 858 678 l 858 0 l 672 0 l 321 679 l 322 140 l 439 140 l 439 0 l 57 0 l 57 140 l 178 140 l 178 678 l 58 678 l 58 818 m 522 892 l 289 1051 l 335 1121 l 524 1017 l 701 1121 l 750 1051 l 522 892 z "},"Ņ":{"ha":1028,"x_min":57,"x_max":989,"o":"m 58 818 l 418 818 l 714 231 l 714 678 l 607 678 l 607 818 l 989 818 l 989 678 l 858 678 l 858 0 l 672 0 l 321 679 l 322 140 l 439 140 l 439 0 l 57 0 l 57 140 l 178 140 l 178 678 l 58 678 l 58 818 m 425 -407 q 455 -363 432 -397 q 492 -300 478 -329 q 429 -264 450 -292 q 408 -200 408 -236 q 439 -124 408 -153 q 518 -94 469 -94 q 597 -128 563 -94 q 632 -208 632 -162 q 589 -337 632 -278 q 514 -426 546 -396 q 476 -461 482 -456 l 425 -407 z "},"Ṅ":{"ha":1028,"x_min":57,"x_max":989,"o":"m 58 818 l 418 818 l 714 231 l 714 678 l 607 678 l 607 818 l 989 818 l 989 678 l 858 678 l 858 0 l 672 0 l 321 679 l 322 140 l 439 140 l 439 0 l 57 0 l 57 140 l 178 140 l 178 678 l 58 678 l 58 818 m 519 1119 q 589 1093 563 1119 q 615 1024 615 1067 q 589 954 615 981 q 519 928 563 928 q 451 954 476 928 q 425 1024 425 981 q 451 1093 425 1067 q 519 1119 476 1119 z "},"Ṇ":{"ha":1028,"x_min":57,"x_max":989,"o":"m 58 818 l 418 818 l 714 231 l 714 678 l 607 678 l 607 818 l 989 818 l 989 678 l 858 678 l 858 0 l 672 0 l 321 679 l 322 140 l 439 140 l 439 0 l 57 0 l 57 140 l 178 140 l 178 678 l 58 678 l 58 818 m 519 -81 q 589 -107 563 -81 q 615 -176 615 -133 q 589 -246 615 -219 q 519 -272 563 -272 q 451 -246 476 -272 q 425 -176 425 -219 q 451 -107 425 -133 q 519 -81 476 -81 z "},"Ŋ":{"ha":1028,"x_min":57,"x_max":989,"o":"m 593 -335 q 485 -325 535 -335 q 382 -293 435 -315 l 421 -179 q 560 -207 489 -207 q 663 -172 624 -207 q 711 -68 701 -136 l 321 679 l 322 140 l 439 140 l 439 0 l 57 0 l 57 140 l 178 140 l 178 678 l 58 678 l 58 818 l 418 818 l 714 231 l 714 678 l 607 678 l 607 818 l 989 818 l 989 678 l 858 678 l 858 -10 q 787 -251 857 -167 q 593 -335 717 -335 z "},"Ṉ":{"ha":1028,"x_min":57,"x_max":989,"o":"m 58 818 l 418 818 l 714 231 l 714 678 l 607 678 l 607 818 l 989 818 l 989 678 l 858 678 l 858 0 l 672 0 l 321 679 l 322 140 l 439 140 l 439 0 l 57 0 l 57 140 l 178 140 l 178 678 l 58 678 l 58 818 m 293 -76 l 749 -76 l 749 -182 l 293 -182 l 293 -76 z "},"Ñ":{"ha":1028,"x_min":57,"x_max":989,"o":"m 58 818 l 418 818 l 714 231 l 714 678 l 607 678 l 607 818 l 989 818 l 989 678 l 858 678 l 858 0 l 672 0 l 321 679 l 322 140 l 439 140 l 439 0 l 57 0 l 57 140 l 178 140 l 178 678 l 58 678 l 58 818 m 288 1021 q 372 1073 336 1058 q 454 1088 407 1088 q 506 1080 482 1088 q 557 1057 529 1072 q 599 1038 582 1044 q 635 1032 617 1032 q 683 1040 663 1032 q 743 1074 704 1049 l 781 985 q 704 931 739 947 q 621 915 669 915 q 581 922 600 915 q 535 943 563 929 q 488 965 508 957 q 446 972 468 972 q 403 966 422 972 q 360 949 383 960 q 328 933 338 938 l 288 1021 z "},"O":{"ha":928,"x_min":60,"x_max":869,"o":"m 463 846 q 675 794 583 846 q 818 644 767 743 q 869 410 869 546 q 819 175 869 274 q 676 24 768 76 q 464 -28 585 -28 q 253 24 344 -28 q 110 175 161 76 q 60 410 60 274 q 110 644 60 546 q 252 794 161 743 q 463 846 343 846 m 464 710 q 287 633 347 710 q 226 410 226 557 q 287 185 226 263 q 464 108 347 108 q 642 185 581 108 q 703 410 703 263 q 642 633 703 557 q 464 710 582 710 z "},"Ó":{"ha":928,"x_min":60,"x_max":869,"o":"m 463 846 q 675 794 583 846 q 818 644 767 743 q 869 410 869 546 q 819 175 869 274 q 676 24 768 76 q 464 -28 585 -28 q 253 24 344 -28 q 110 175 161 76 q 60 410 60 274 q 110 644 60 546 q 252 794 161 743 q 463 846 343 846 m 464 710 q 287 633 347 710 q 226 410 226 557 q 287 185 226 263 q 464 108 347 108 q 642 185 581 108 q 703 410 703 263 q 642 633 703 557 q 464 710 582 710 m 679 1100 l 715 968 l 364 914 l 342 976 l 679 1100 z "},"Ŏ":{"ha":928,"x_min":60,"x_max":869,"o":"m 463 846 q 675 794 583 846 q 818 644 767 743 q 869 410 869 546 q 819 175 869 274 q 676 24 768 76 q 464 -28 585 -28 q 253 24 344 -28 q 110 175 161 76 q 60 410 60 274 q 110 644 60 546 q 252 794 161 743 q 463 846 343 846 m 464 710 q 287 633 347 710 q 226 410 226 557 q 287 185 226 263 q 464 108 347 108 q 642 185 581 108 q 703 410 703 263 q 642 633 703 557 q 464 710 582 710 m 463 914 q 297 963 358 914 q 222 1108 236 1013 l 331 1124 q 368 1045 335 1072 q 463 1018 401 1018 q 560 1045 525 1018 q 597 1124 594 1072 l 706 1108 q 631 963 692 1013 q 463 914 569 914 z "},"Ô":{"ha":928,"x_min":60,"x_max":869,"o":"m 463 846 q 675 794 583 846 q 818 644 767 743 q 869 410 869 546 q 819 175 869 274 q 676 24 768 76 q 464 -28 585 -28 q 253 24 344 -28 q 110 175 161 76 q 60 410 60 274 q 110 644 60 546 q 252 794 161 743 q 463 846 343 846 m 464 710 q 287 633 347 710 q 226 410 226 557 q 287 185 226 263 q 464 108 347 108 q 642 185 581 108 q 703 410 703 263 q 642 633 703 557 q 464 710 582 710 m 463 1103 l 713 958 l 669 899 l 464 981 l 251 899 l 213 958 l 463 1103 z "},"Ố":{"ha":928,"x_min":60,"x_max":869,"o":"m 463 846 q 675 794 583 846 q 818 644 767 743 q 869 410 869 546 q 819 175 869 274 q 676 24 768 76 q 464 -28 585 -28 q 253 24 344 -28 q 110 175 161 76 q 60 410 60 274 q 110 644 60 546 q 252 794 161 743 q 463 846 343 846 m 464 710 q 287 633 347 710 q 226 410 226 557 q 287 185 226 263 q 464 108 347 108 q 642 185 581 108 q 703 410 703 263 q 642 633 703 557 q 464 710 582 710 m 557 1342 l 622 1229 l 342 1111 l 313 1168 l 557 1342 m 463 1103 l 713 958 l 669 899 l 464 981 l 251 899 l 213 958 l 463 1103 z "},"Ộ":{"ha":928,"x_min":60,"x_max":869,"o":"m 463 846 q 675 794 583 846 q 818 644 767 743 q 869 410 869 546 q 819 175 869 274 q 676 24 768 76 q 464 -28 585 -28 q 253 24 344 -28 q 110 175 161 76 q 60 410 60 274 q 110 644 60 546 q 252 794 161 743 q 463 846 343 846 m 464 710 q 287 633 347 710 q 226 410 226 557 q 287 185 226 263 q 464 108 347 108 q 642 185 581 108 q 703 410 703 263 q 642 633 703 557 q 464 710 582 710 m 463 -81 q 532 -107 506 -81 q 558 -176 558 -133 q 532 -246 558 -219 q 463 -272 506 -272 q 394 -246 419 -272 q 368 -176 368 -219 q 394 -107 368 -133 q 463 -81 419 -81 m 463 1103 l 713 958 l 669 899 l 464 981 l 251 899 l 213 958 l 463 1103 z "},"Ồ":{"ha":928,"x_min":60,"x_max":869,"o":"m 463 846 q 675 794 583 846 q 818 644 767 743 q 869 410 869 546 q 819 175 869 274 q 676 24 768 76 q 464 -28 585 -28 q 253 24 344 -28 q 110 175 161 76 q 60 410 60 274 q 110 644 60 546 q 252 794 161 743 q 463 846 343 846 m 464 710 q 287 633 347 710 q 226 410 226 557 q 287 185 226 263 q 464 108 347 108 q 642 185 581 108 q 703 410 703 263 q 642 633 703 557 q 464 710 582 710 m 383 1328 l 629 1156 l 600 1099 l 318 1217 l 383 1328 m 463 1103 l 713 958 l 669 899 l 464 981 l 251 899 l 213 958 l 463 1103 z "},"Ổ":{"ha":928,"x_min":60,"x_max":869,"o":"m 463 846 q 675 794 583 846 q 818 644 767 743 q 869 410 869 546 q 819 175 869 274 q 676 24 768 76 q 464 -28 585 -28 q 253 24 344 -28 q 110 175 161 76 q 60 410 60 274 q 110 644 60 546 q 252 794 161 743 q 463 846 343 846 m 464 710 q 287 633 347 710 q 226 410 226 557 q 287 185 226 263 q 464 108 347 108 q 642 185 581 108 q 703 410 703 263 q 642 633 703 557 q 464 710 582 710 m 463 1103 l 713 958 l 669 899 l 464 981 l 251 899 l 213 958 l 463 1103 m 586 1094 q 626 1138 611 1115 q 640 1182 640 1161 q 628 1212 640 1200 q 596 1224 617 1224 q 524 1183 561 1224 l 463 1251 q 615 1329 532 1329 q 710 1296 675 1329 q 744 1210 744 1263 q 717 1124 744 1167 q 638 1046 690 1081 l 586 1094 z "},"Ỗ":{"ha":928,"x_min":60,"x_max":869,"o":"m 463 846 q 675 794 583 846 q 818 644 767 743 q 869 410 869 546 q 819 175 869 274 q 676 24 768 76 q 464 -28 585 -28 q 253 24 344 -28 q 110 175 161 76 q 60 410 60 274 q 110 644 60 546 q 252 794 161 743 q 463 846 343 846 m 464 710 q 287 633 347 710 q 226 410 226 557 q 287 185 226 263 q 464 108 347 108 q 642 185 581 108 q 703 410 703 263 q 642 633 703 557 q 464 710 582 710 m 247 1226 q 322 1271 290 1258 q 394 1283 353 1283 q 444 1275 421 1283 q 496 1253 468 1267 q 538 1234 521 1240 q 574 1228 556 1228 q 623 1237 601 1228 q 682 1271 644 1246 l 700 1179 q 632 1133 663 1147 q 560 1119 601 1119 q 520 1126 539 1119 q 474 1147 501 1133 q 428 1169 447 1161 q 386 1176 408 1176 q 343 1170 361 1176 q 302 1153 325 1164 q 268 1138 279 1143 l 247 1226 m 465 1103 l 715 958 l 672 899 l 467 981 l 254 899 l 215 958 l 465 1103 z "},"Ȍ":{"ha":928,"x_min":60,"x_max":869,"o":"m 463 846 q 675 794 583 846 q 818 644 767 743 q 869 410 869 546 q 819 175 869 274 q 676 24 768 76 q 464 -28 585 -28 q 253 24 344 -28 q 110 175 161 76 q 60 410 60 274 q 110 644 60 546 q 252 794 161 743 q 463 846 343 846 m 464 710 q 287 633 347 710 q 226 410 226 557 q 287 185 226 263 q 464 108 347 108 q 642 185 581 108 q 703 410 703 263 q 642 633 703 557 q 464 710 582 710 m 451 1238 l 631 950 l 564 904 l 343 1158 l 451 1238 m 178 1208 l 410 963 l 353 904 l 89 1113 l 178 1208 z "},"Ö":{"ha":928,"x_min":60,"x_max":869,"o":"m 463 846 q 675 794 583 846 q 818 644 767 743 q 869 410 869 546 q 819 175 869 274 q 676 24 768 76 q 464 -28 585 -28 q 253 24 344 -28 q 110 175 161 76 q 60 410 60 274 q 110 644 60 546 q 252 794 161 743 q 463 846 343 846 m 464 710 q 287 633 347 710 q 226 410 226 557 q 287 185 226 263 q 464 108 347 108 q 642 185 581 108 q 703 410 703 263 q 642 633 703 557 q 464 710 582 710 m 331 1111 q 397 1083 368 1111 q 425 1015 425 1054 q 397 949 425 976 q 331 921 368 921 q 263 949 292 921 q 235 1015 235 976 q 263 1083 235 1054 q 331 1111 292 1111 m 596 1111 q 662 1083 633 1111 q 690 1015 690 1054 q 662 949 690 976 q 596 921 633 921 q 528 949 557 921 q 500 1015 500 976 q 528 1083 500 1054 q 596 1111 557 1111 z "},"Ȫ":{"ha":928,"x_min":60,"x_max":869,"o":"m 463 846 q 675 794 583 846 q 818 644 767 743 q 869 410 869 546 q 819 175 869 274 q 676 24 768 76 q 464 -28 585 -28 q 253 24 344 -28 q 110 175 161 76 q 60 410 60 274 q 110 644 60 546 q 252 794 161 743 q 463 846 343 846 m 464 710 q 287 633 347 710 q 226 410 226 557 q 287 185 226 263 q 464 108 347 108 q 642 185 581 108 q 703 410 703 263 q 642 633 703 557 q 464 710 582 710 m 331 1111 q 397 1083 368 1111 q 425 1015 425 1054 q 397 949 425 976 q 331 921 368 921 q 263 949 292 921 q 235 1015 235 976 q 263 1083 235 1054 q 331 1111 292 1111 m 596 1111 q 662 1083 633 1111 q 690 1015 690 1054 q 662 949 690 976 q 596 921 633 921 q 528 949 557 921 q 500 1015 500 976 q 528 1083 500 1054 q 596 1111 557 1111 m 231 1275 l 694 1275 l 694 1169 l 231 1169 l 231 1275 z "},"Ȱ":{"ha":928,"x_min":60,"x_max":869,"o":"m 463 846 q 675 794 583 846 q 818 644 767 743 q 869 410 869 546 q 819 175 869 274 q 676 24 768 76 q 464 -28 585 -28 q 253 24 344 -28 q 110 175 161 76 q 60 410 60 274 q 110 644 60 546 q 252 794 161 743 q 463 846 343 846 m 464 710 q 287 633 347 710 q 226 410 226 557 q 287 185 226 263 q 464 108 347 108 q 642 185 581 108 q 703 410 703 263 q 642 633 703 557 q 464 710 582 710 m 463 1119 q 532 1093 506 1119 q 558 1024 558 1067 q 532 954 558 981 q 463 928 506 928 q 394 954 419 928 q 368 1024 368 981 q 394 1093 368 1067 q 463 1119 419 1119 m 236 1271 l 700 1271 l 700 1165 l 236 1165 l 236 1271 z "},"Ọ":{"ha":928,"x_min":60,"x_max":869,"o":"m 463 846 q 675 794 583 846 q 818 644 767 743 q 869 410 869 546 q 819 175 869 274 q 676 24 768 76 q 464 -28 585 -28 q 253 24 344 -28 q 110 175 161 76 q 60 410 60 274 q 110 644 60 546 q 252 794 161 743 q 463 846 343 846 m 464 710 q 287 633 347 710 q 226 410 226 557 q 287 185 226 263 q 464 108 347 108 q 642 185 581 108 q 703 410 703 263 q 642 633 703 557 q 464 710 582 710 m 463 -81 q 532 -107 506 -81 q 558 -176 558 -133 q 532 -246 558 -219 q 463 -272 506 -272 q 394 -246 419 -272 q 368 -176 368 -219 q 394 -107 368 -133 q 463 -81 419 -81 z "},"Ò":{"ha":928,"x_min":60,"x_max":869,"o":"m 463 846 q 675 794 583 846 q 818 644 767 743 q 869 410 869 546 q 819 175 869 274 q 676 24 768 76 q 464 -28 585 -28 q 253 24 344 -28 q 110 175 161 76 q 60 410 60 274 q 110 644 60 546 q 252 794 161 743 q 463 846 343 846 m 464 710 q 287 633 347 710 q 226 410 226 557 q 287 185 226 263 q 464 108 347 108 q 642 185 581 108 q 703 410 703 263 q 642 633 703 557 q 464 710 582 710 m 224 1101 l 563 978 l 542 915 l 189 971 l 224 1101 z "},"Ỏ":{"ha":928,"x_min":60,"x_max":869,"o":"m 463 846 q 675 794 583 846 q 818 644 767 743 q 869 410 869 546 q 819 175 869 274 q 676 24 768 76 q 464 -28 585 -28 q 253 24 344 -28 q 110 175 161 76 q 60 410 60 274 q 110 644 60 546 q 252 794 161 743 q 463 846 343 846 m 464 710 q 287 633 347 710 q 226 410 226 557 q 287 185 226 263 q 464 108 347 108 q 642 185 581 108 q 703 410 703 263 q 642 633 703 557 q 464 710 582 710 m 438 932 q 477 976 463 953 q 492 1019 492 999 q 480 1049 492 1038 q 447 1061 468 1061 q 375 1021 413 1061 l 314 1089 q 467 1167 383 1167 q 561 1133 526 1167 q 596 1047 596 1100 q 569 961 596 1004 q 489 883 542 918 l 438 932 z "},"Ơ":{"ha":928,"x_min":60,"x_max":869,"o":"m 754 735 q 840 595 810 678 q 869 410 869 513 q 819 175 869 274 q 676 24 768 76 q 464 -28 585 -28 q 253 24 344 -28 q 110 175 161 76 q 60 410 60 274 q 110 644 60 546 q 252 794 161 743 q 463 846 343 846 q 622 818 547 846 q 704 928 704 826 l 831 928 q 754 735 831 792 m 464 108 q 642 185 581 108 q 703 410 703 263 q 642 633 703 557 q 464 710 582 710 q 287 633 347 710 q 226 410 226 557 q 287 185 226 263 q 464 108 347 108 z "},"Ớ":{"ha":928,"x_min":60,"x_max":869,"o":"m 754 735 q 840 595 810 678 q 869 410 869 513 q 819 175 869 274 q 676 24 768 76 q 464 -28 585 -28 q 253 24 344 -28 q 110 175 161 76 q 60 410 60 274 q 110 644 60 546 q 252 794 161 743 q 463 846 343 846 q 622 818 547 846 q 704 928 704 826 l 831 928 q 754 735 831 792 m 464 108 q 642 185 581 108 q 703 410 703 263 q 642 633 703 557 q 464 710 582 710 q 287 633 347 710 q 226 410 226 557 q 287 185 226 263 q 464 108 347 108 m 679 1100 l 715 968 l 364 914 l 342 976 l 679 1100 z "},"Ợ":{"ha":928,"x_min":60,"x_max":869,"o":"m 754 735 q 840 595 810 678 q 869 410 869 513 q 819 175 869 274 q 676 24 768 76 q 464 -28 585 -28 q 253 24 344 -28 q 110 175 161 76 q 60 410 60 274 q 110 644 60 546 q 252 794 161 743 q 463 846 343 846 q 622 818 547 846 q 704 928 704 826 l 831 928 q 754 735 831 792 m 464 108 q 642 185 581 108 q 703 410 703 263 q 642 633 703 557 q 464 710 582 710 q 287 633 347 710 q 226 410 226 557 q 287 185 226 263 q 464 108 347 108 m 463 -81 q 532 -107 506 -81 q 558 -176 558 -133 q 532 -246 558 -219 q 463 -272 506 -272 q 394 -246 419 -272 q 368 -176 368 -219 q 394 -107 368 -133 q 463 -81 419 -81 z "},"Ờ":{"ha":928,"x_min":60,"x_max":869,"o":"m 754 735 q 840 595 810 678 q 869 410 869 513 q 819 175 869 274 q 676 24 768 76 q 464 -28 585 -28 q 253 24 344 -28 q 110 175 161 76 q 60 410 60 274 q 110 644 60 546 q 252 794 161 743 q 463 846 343 846 q 622 818 547 846 q 704 928 704 826 l 831 928 q 754 735 831 792 m 464 108 q 642 185 581 108 q 703 410 703 263 q 642 633 703 557 q 464 710 582 710 q 287 633 347 710 q 226 410 226 557 q 287 185 226 263 q 464 108 347 108 m 307 1101 l 646 978 l 625 915 l 272 971 l 307 1101 z "},"Ở":{"ha":928,"x_min":60,"x_max":869,"o":"m 754 735 q 840 595 810 678 q 869 410 869 513 q 819 175 869 274 q 676 24 768 76 q 464 -28 585 -28 q 253 24 344 -28 q 110 175 161 76 q 60 410 60 274 q 110 644 60 546 q 252 794 161 743 q 463 846 343 846 q 622 818 547 846 q 704 928 704 826 l 831 928 q 754 735 831 792 m 464 108 q 642 185 581 108 q 703 410 703 263 q 642 633 703 557 q 464 710 582 710 q 287 633 347 710 q 226 410 226 557 q 287 185 226 263 q 464 108 347 108 m 438 932 q 477 976 463 953 q 492 1019 492 999 q 480 1049 492 1038 q 447 1061 468 1061 q 375 1021 413 1061 l 314 1089 q 467 1167 383 1167 q 561 1133 526 1167 q 596 1047 596 1100 q 569 961 596 1004 q 489 883 542 918 l 438 932 z "},"Ỡ":{"ha":928,"x_min":60,"x_max":869,"o":"m 754 735 q 840 595 810 678 q 869 410 869 513 q 819 175 869 274 q 676 24 768 76 q 464 -28 585 -28 q 253 24 344 -28 q 110 175 161 76 q 60 410 60 274 q 110 644 60 546 q 252 794 161 743 q 463 846 343 846 q 622 818 547 846 q 704 928 704 826 l 831 928 q 754 735 831 792 m 464 108 q 642 185 581 108 q 703 410 703 263 q 642 633 703 557 q 464 710 582 710 q 287 633 347 710 q 226 410 226 557 q 287 185 226 263 q 464 108 347 108 m 222 1026 q 306 1078 271 1064 q 389 1093 342 1093 q 440 1085 417 1093 q 492 1063 464 1078 q 534 1044 517 1050 q 569 1038 551 1038 q 618 1046 597 1038 q 678 1079 639 1054 l 715 990 q 639 937 674 953 q 556 921 604 921 q 516 928 535 921 q 469 949 497 935 q 423 970 443 963 q 381 978 403 978 q 338 972 357 978 q 295 954 318 965 q 263 939 272 943 l 222 1026 z "},"Ő":{"ha":928,"x_min":60,"x_max":869,"o":"m 463 846 q 675 794 583 846 q 818 644 767 743 q 869 410 869 546 q 819 175 869 274 q 676 24 768 76 q 464 -28 585 -28 q 253 24 344 -28 q 110 175 161 76 q 60 410 60 274 q 110 644 60 546 q 252 794 161 743 q 463 846 343 846 m 464 710 q 287 633 347 710 q 226 410 226 557 q 287 185 226 263 q 464 108 347 108 q 642 185 581 108 q 703 410 703 263 q 642 633 703 557 q 464 710 582 710 m 535 1157 l 615 1063 l 382 907 l 340 951 l 535 1157 m 772 1099 l 824 986 l 553 911 l 524 964 l 772 1099 z "},"Ȏ":{"ha":928,"x_min":60,"x_max":869,"o":"m 463 846 q 675 794 583 846 q 818 644 767 743 q 869 410 869 546 q 819 175 869 274 q 676 24 768 76 q 464 -28 585 -28 q 253 24 344 -28 q 110 175 161 76 q 60 410 60 274 q 110 644 60 546 q 252 794 161 743 q 463 846 343 846 m 464 710 q 287 633 347 710 q 226 410 226 557 q 287 185 226 263 q 464 108 347 108 q 642 185 581 108 q 703 410 703 263 q 642 633 703 557 q 464 710 582 710 m 463 1138 q 631 1088 569 1138 q 706 943 692 1039 l 597 928 q 560 1006 594 979 q 463 1033 525 1033 q 368 1006 401 1033 q 331 928 335 979 l 222 943 q 297 1088 236 1039 q 463 1138 358 1138 z "},"Ō":{"ha":928,"x_min":60,"x_max":869,"o":"m 463 846 q 675 794 583 846 q 818 644 767 743 q 869 410 869 546 q 819 175 869 274 q 676 24 768 76 q 464 -28 585 -28 q 253 24 344 -28 q 110 175 161 76 q 60 410 60 274 q 110 644 60 546 q 252 794 161 743 q 463 846 343 846 m 464 710 q 287 633 347 710 q 226 410 226 557 q 287 185 226 263 q 464 108 347 108 q 642 185 581 108 q 703 410 703 263 q 642 633 703 557 q 464 710 582 710 m 231 1056 l 694 1056 l 694 950 l 231 950 l 231 1056 z "},"Ṓ":{"ha":928,"x_min":60,"x_max":869,"o":"m 463 846 q 675 794 583 846 q 818 644 767 743 q 869 410 869 546 q 819 175 869 274 q 676 24 768 76 q 464 -28 585 -28 q 253 24 344 -28 q 110 175 161 76 q 60 410 60 274 q 110 644 60 546 q 252 794 161 743 q 463 846 343 846 m 464 710 q 287 633 347 710 q 226 410 226 557 q 287 185 226 263 q 464 108 347 108 q 642 185 581 108 q 703 410 703 263 q 642 633 703 557 q 464 710 582 710 m 231 1056 l 694 1056 l 694 950 l 231 950 l 231 1056 m 685 1303 l 721 1171 l 369 1117 l 347 1179 l 685 1303 z "},"Ṑ":{"ha":928,"x_min":60,"x_max":869,"o":"m 463 846 q 675 794 583 846 q 818 644 767 743 q 869 410 869 546 q 819 175 869 274 q 676 24 768 76 q 464 -28 585 -28 q 253 24 344 -28 q 110 175 161 76 q 60 410 60 274 q 110 644 60 546 q 252 794 161 743 q 463 846 343 846 m 464 710 q 287 633 347 710 q 226 410 226 557 q 287 185 226 263 q 464 108 347 108 q 642 185 581 108 q 703 410 703 263 q 642 633 703 557 q 464 710 582 710 m 231 1056 l 694 1056 l 694 950 l 231 950 l 231 1056 m 229 1304 l 568 1181 l 547 1118 l 194 1174 l 229 1304 z "},"Ǫ":{"ha":928,"x_min":60,"x_max":869,"o":"m 635 4 q 536 -137 536 -53 q 559 -186 536 -168 q 619 -204 582 -204 q 688 -190 654 -204 l 688 -290 q 564 -317 628 -317 q 435 -280 482 -317 q 388 -186 388 -243 q 464 -28 388 -94 q 253 24 344 -28 q 110 175 161 76 q 60 410 60 274 q 110 644 60 546 q 252 794 161 743 q 463 846 343 846 q 675 794 583 846 q 818 644 767 743 q 869 410 869 546 q 807 153 869 258 q 635 4 744 49 m 226 410 q 287 185 226 263 q 464 108 347 108 q 642 185 581 108 q 703 410 703 263 q 642 633 703 557 q 464 710 582 710 q 287 633 347 710 q 226 410 226 557 z "},"Ø":{"ha":928,"x_min":60,"x_max":869,"o":"m 721 764 q 831 617 792 707 q 869 410 869 528 q 819 175 869 274 q 676 24 768 76 q 464 -28 585 -28 q 353 -15 406 -28 l 315 -96 l 182 -96 l 240 32 q 107 183 154 86 q 60 410 60 279 q 110 644 60 546 q 252 794 161 743 q 463 846 343 846 q 614 822 543 846 l 651 904 l 786 904 l 721 764 m 464 710 q 287 633 347 710 q 226 410 226 557 q 310 161 226 236 l 554 696 q 464 710 517 710 m 464 108 q 642 185 581 108 q 703 410 703 263 q 649 625 703 550 l 414 113 q 464 108 438 108 z "},"Ǿ":{"ha":928,"x_min":60,"x_max":869,"o":"m 721 764 q 831 617 792 707 q 869 410 869 528 q 819 175 869 274 q 676 24 768 76 q 464 -28 585 -28 q 353 -15 406 -28 l 315 -96 l 182 -96 l 240 32 q 107 183 154 86 q 60 410 60 279 q 110 644 60 546 q 252 794 161 743 q 463 846 343 846 q 614 822 543 846 l 651 904 l 786 904 l 721 764 m 464 710 q 287 633 347 710 q 226 410 226 557 q 310 161 226 236 l 554 696 q 464 710 517 710 m 464 108 q 642 185 581 108 q 703 410 703 263 q 649 625 703 550 l 414 113 q 464 108 438 108 m 679 1100 l 715 968 l 364 914 l 342 976 l 679 1100 z "},"Õ":{"ha":928,"x_min":60,"x_max":869,"o":"m 463 846 q 675 794 583 846 q 818 644 767 743 q 869 410 869 546 q 819 175 869 274 q 676 24 768 76 q 464 -28 585 -28 q 253 24 344 -28 q 110 175 161 76 q 60 410 60 274 q 110 644 60 546 q 252 794 161 743 q 463 846 343 846 m 464 710 q 287 633 347 710 q 226 410 226 557 q 287 185 226 263 q 464 108 347 108 q 642 185 581 108 q 703 410 703 263 q 642 633 703 557 q 464 710 582 710 m 231 1021 q 315 1073 279 1058 q 397 1088 350 1088 q 449 1080 425 1088 q 500 1057 472 1072 q 542 1038 525 1044 q 578 1032 560 1032 q 626 1040 606 1032 q 686 1074 647 1049 l 724 985 q 647 931 682 947 q 564 915 613 915 q 524 922 543 915 q 478 943 506 929 q 431 965 451 957 q 389 972 411 972 q 346 966 365 972 q 303 949 326 960 q 271 933 281 938 l 231 1021 z "},"Ṍ":{"ha":928,"x_min":60,"x_max":869,"o":"m 463 846 q 675 794 583 846 q 818 644 767 743 q 869 410 869 546 q 819 175 869 274 q 676 24 768 76 q 464 -28 585 -28 q 253 24 344 -28 q 110 175 161 76 q 60 410 60 274 q 110 644 60 546 q 252 794 161 743 q 463 846 343 846 m 464 710 q 287 633 347 710 q 226 410 226 557 q 287 185 226 263 q 464 108 347 108 q 642 185 581 108 q 703 410 703 263 q 642 633 703 557 q 464 710 582 710 m 231 1021 q 315 1073 279 1058 q 397 1088 350 1088 q 449 1080 425 1088 q 500 1057 472 1072 q 542 1038 525 1044 q 578 1032 560 1032 q 626 1040 606 1032 q 686 1074 647 1049 l 724 985 q 647 931 682 947 q 564 915 613 915 q 524 922 543 915 q 478 943 506 929 q 431 965 451 957 q 389 972 411 972 q 346 966 365 972 q 303 949 326 960 q 271 933 281 938 l 231 1021 m 658 1329 l 694 1197 l 343 1143 l 321 1206 l 658 1329 z "},"Ṏ":{"ha":928,"x_min":60,"x_max":869,"o":"m 463 846 q 675 794 583 846 q 818 644 767 743 q 869 410 869 546 q 819 175 869 274 q 676 24 768 76 q 464 -28 585 -28 q 253 24 344 -28 q 110 175 161 76 q 60 410 60 274 q 110 644 60 546 q 252 794 161 743 q 463 846 343 846 m 464 710 q 287 633 347 710 q 226 410 226 557 q 287 185 226 263 q 464 108 347 108 q 642 185 581 108 q 703 410 703 263 q 642 633 703 557 q 464 710 582 710 m 231 1021 q 315 1073 279 1058 q 397 1088 350 1088 q 449 1080 425 1088 q 500 1057 472 1072 q 542 1038 525 1044 q 578 1032 560 1032 q 626 1040 606 1032 q 686 1074 647 1049 l 724 985 q 647 931 682 947 q 564 915 613 915 q 524 922 543 915 q 478 943 506 929 q 431 965 451 957 q 389 972 411 972 q 346 966 365 972 q 303 949 326 960 q 271 933 281 938 l 231 1021 m 308 1339 q 374 1310 346 1339 q 403 1243 403 1282 q 374 1176 403 1204 q 308 1149 346 1149 q 241 1176 269 1149 q 213 1243 213 1204 q 241 1310 213 1282 q 308 1339 269 1339 m 574 1339 q 640 1310 611 1339 q 668 1243 668 1282 q 640 1176 668 1204 q 574 1149 611 1149 q 506 1176 535 1149 q 478 1243 478 1204 q 506 1310 478 1282 q 574 1339 535 1339 z "},"Ȭ":{"ha":928,"x_min":60,"x_max":869,"o":"m 463 846 q 675 794 583 846 q 818 644 767 743 q 869 410 869 546 q 819 175 869 274 q 676 24 768 76 q 464 -28 585 -28 q 253 24 344 -28 q 110 175 161 76 q 60 410 60 274 q 110 644 60 546 q 252 794 161 743 q 463 846 343 846 m 464 710 q 287 633 347 710 q 226 410 226 557 q 287 185 226 263 q 464 108 347 108 q 642 185 581 108 q 703 410 703 263 q 642 633 703 557 q 464 710 582 710 m 231 1021 q 315 1073 279 1058 q 397 1088 350 1088 q 449 1080 425 1088 q 500 1057 472 1072 q 542 1038 525 1044 q 578 1032 560 1032 q 626 1040 606 1032 q 686 1074 647 1049 l 724 985 q 647 931 682 947 q 564 915 613 915 q 524 922 543 915 q 478 943 506 929 q 431 965 451 957 q 389 972 411 972 q 346 966 365 972 q 303 949 326 960 q 271 933 281 938 l 231 1021 m 208 1283 l 672 1283 l 672 1178 l 208 1178 l 208 1283 z "},"Œ":{"ha":1253,"x_min":60,"x_max":1210,"o":"m 471 0 q 171 103 282 0 q 60 415 60 207 q 169 719 60 621 q 474 818 278 818 l 1094 818 l 1178 572 l 1044 526 l 993 678 l 744 678 l 744 485 l 979 485 l 979 347 l 743 347 l 743 140 l 1028 140 l 1078 279 l 1210 233 l 1129 0 l 471 0 m 476 679 q 288 622 350 679 q 226 415 226 564 q 481 139 226 139 l 583 140 l 583 679 l 476 679 z "},"P":{"ha":778,"x_min":57,"x_max":750,"o":"m 419 818 q 665 750 581 818 q 750 551 750 682 q 665 347 750 417 q 419 278 581 278 l 335 278 l 335 140 l 475 140 l 475 0 l 57 0 l 57 140 l 174 140 l 174 678 l 57 678 l 57 818 l 419 818 m 418 404 q 582 547 582 404 q 542 646 582 614 q 418 678 501 678 l 336 678 l 336 404 l 418 404 z "},"Þ":{"ha":776,"x_min":57,"x_max":749,"o":"m 57 140 l 174 140 l 174 678 l 57 678 l 57 818 l 371 818 l 371 736 l 335 736 l 335 696 l 429 696 q 673 640 597 696 q 749 468 749 585 q 672 283 749 342 q 433 224 596 224 l 335 224 l 335 140 l 490 140 l 490 0 l 57 0 l 57 140 m 426 360 q 544 381 507 360 q 582 461 582 401 q 544 538 582 518 q 425 557 507 557 l 336 557 l 336 360 l 426 360 z "},"Q":{"ha":960,"x_min":60,"x_max":928,"o":"m 656 14 q 464 -28 572 -28 q 253 24 344 -28 q 110 174 161 75 q 60 410 60 272 q 110 645 60 547 q 252 794 161 743 q 463 846 343 846 q 675 794 583 846 q 818 645 767 743 q 869 410 869 547 q 763 93 869 211 l 928 -3 l 825 -129 l 656 14 m 464 711 q 286 634 346 711 q 226 410 226 557 q 286 184 226 261 q 464 107 346 107 q 642 185 582 107 q 703 410 703 263 q 643 635 703 558 q 464 711 583 711 z "},"R":{"ha":872,"x_min":57,"x_max":832,"o":"m 832 140 l 832 0 l 594 0 l 443 281 l 335 281 l 335 140 l 407 140 l 407 0 l 57 0 l 57 140 l 174 140 l 174 678 l 57 678 l 57 818 l 425 818 q 677 751 606 818 q 749 550 749 683 q 596 300 749 353 l 693 140 l 832 140 m 418 419 q 545 447 508 419 q 582 549 582 475 q 542 650 582 622 q 418 678 503 678 l 336 678 l 336 419 l 418 419 z "},"Ŕ":{"ha":872,"x_min":57,"x_max":832,"o":"m 832 140 l 832 0 l 594 0 l 443 281 l 335 281 l 335 140 l 407 140 l 407 0 l 57 0 l 57 140 l 174 140 l 174 678 l 57 678 l 57 818 l 425 818 q 677 751 606 818 q 749 550 749 683 q 596 300 749 353 l 693 140 l 832 140 m 418 419 q 545 447 508 419 q 582 549 582 475 q 542 650 582 622 q 418 678 503 678 l 336 678 l 336 419 l 418 419 m 600 1100 l 636 968 l 285 914 l 263 976 l 600 1100 z "},"Ř":{"ha":872,"x_min":57,"x_max":832,"o":"m 832 140 l 832 0 l 594 0 l 443 281 l 335 281 l 335 140 l 407 140 l 407 0 l 57 0 l 57 140 l 174 140 l 174 678 l 57 678 l 57 818 l 425 818 q 677 751 606 818 q 749 550 749 683 q 596 300 749 353 l 693 140 l 832 140 m 418 419 q 545 447 508 419 q 582 549 582 475 q 542 650 582 622 q 418 678 503 678 l 336 678 l 336 419 l 418 419 m 386 892 l 153 1051 l 199 1121 l 388 1017 l 565 1121 l 614 1051 l 386 892 z "},"Ŗ":{"ha":872,"x_min":57,"x_max":832,"o":"m 832 140 l 832 0 l 594 0 l 443 281 l 335 281 l 335 140 l 407 140 l 407 0 l 57 0 l 57 140 l 174 140 l 174 678 l 57 678 l 57 818 l 425 818 q 677 751 606 818 q 749 550 749 683 q 596 300 749 353 l 693 140 l 832 140 m 418 419 q 545 447 508 419 q 582 549 582 475 q 542 650 582 622 q 418 678 503 678 l 336 678 l 336 419 l 418 419 m 340 -407 q 370 -363 347 -397 q 407 -300 393 -329 q 344 -264 365 -292 q 324 -200 324 -236 q 354 -124 324 -153 q 433 -94 385 -94 q 513 -128 478 -94 q 547 -208 547 -162 q 504 -337 547 -278 q 429 -426 461 -396 q 392 -461 397 -456 l 340 -407 z "},"Ȑ":{"ha":872,"x_min":10,"x_max":832,"o":"m 832 140 l 832 0 l 594 0 l 443 281 l 335 281 l 335 140 l 407 140 l 407 0 l 57 0 l 57 140 l 174 140 l 174 678 l 57 678 l 57 818 l 425 818 q 677 751 606 818 q 749 550 749 683 q 596 300 749 353 l 693 140 l 832 140 m 418 419 q 545 447 508 419 q 582 549 582 475 q 542 650 582 622 q 418 678 503 678 l 336 678 l 336 419 l 418 419 m 372 1238 l 551 950 l 485 904 l 264 1158 l 372 1238 m 99 1208 l 331 963 l 274 904 l 10 1113 l 99 1208 z "},"Ṛ":{"ha":872,"x_min":57,"x_max":832,"o":"m 832 140 l 832 0 l 594 0 l 443 281 l 335 281 l 335 140 l 407 140 l 407 0 l 57 0 l 57 140 l 174 140 l 174 678 l 57 678 l 57 818 l 425 818 q 677 751 606 818 q 749 550 749 683 q 596 300 749 353 l 693 140 l 832 140 m 418 419 q 545 447 508 419 q 582 549 582 475 q 542 650 582 622 q 418 678 503 678 l 336 678 l 336 419 l 418 419 m 435 -81 q 504 -107 478 -81 q 531 -176 531 -133 q 504 -246 531 -219 q 435 -272 478 -272 q 366 -246 392 -272 q 340 -176 340 -219 q 366 -107 340 -133 q 435 -81 392 -81 z "},"Ȓ":{"ha":872,"x_min":57,"x_max":832,"o":"m 832 140 l 832 0 l 594 0 l 443 281 l 335 281 l 335 140 l 407 140 l 407 0 l 57 0 l 57 140 l 174 140 l 174 678 l 57 678 l 57 818 l 425 818 q 677 751 606 818 q 749 550 749 683 q 596 300 749 353 l 693 140 l 832 140 m 418 419 q 545 447 508 419 q 582 549 582 475 q 542 650 582 622 q 418 678 503 678 l 336 678 l 336 419 l 418 419 m 383 1138 q 551 1088 490 1138 q 626 943 613 1039 l 518 928 q 481 1006 515 979 q 383 1033 446 1033 q 289 1006 322 1033 q 251 928 256 979 l 143 943 q 218 1088 157 1039 q 383 1138 279 1138 z "},"Ṟ":{"ha":872,"x_min":57,"x_max":832,"o":"m 832 140 l 832 0 l 594 0 l 443 281 l 335 281 l 335 140 l 407 140 l 407 0 l 57 0 l 57 140 l 174 140 l 174 678 l 57 678 l 57 818 l 425 818 q 677 751 606 818 q 749 550 749 683 q 596 300 749 353 l 693 140 l 832 140 m 418 419 q 545 447 508 419 q 582 549 582 475 q 542 650 582 622 q 418 678 503 678 l 336 678 l 336 419 l 418 419 m 208 -76 l 664 -76 l 664 -182 l 208 -182 l 208 -76 z "},"S":{"ha":776,"x_min":61,"x_max":719,"o":"m 392 -28 q 86 25 221 -28 l 61 215 l 192 231 l 207 129 q 381 101 288 101 q 520 132 465 101 q 575 224 575 163 q 544 301 575 271 q 435 344 514 331 l 335 361 q 142 444 208 383 q 76 604 76 506 q 167 783 76 719 q 401 846 258 846 q 661 794 538 846 l 688 590 l 547 575 l 529 700 q 396 721 467 721 q 268 692 315 721 q 221 615 221 664 q 255 540 221 567 q 367 499 289 513 l 471 482 q 660 403 600 463 q 719 244 719 343 q 622 35 719 99 q 392 -28 525 -28 z "},"Ś":{"ha":776,"x_min":61,"x_max":719,"o":"m 392 -28 q 86 25 221 -28 l 61 215 l 192 231 l 207 129 q 381 101 288 101 q 520 132 465 101 q 575 224 575 163 q 544 301 575 271 q 435 344 514 331 l 335 361 q 142 444 208 383 q 76 604 76 506 q 167 783 76 719 q 401 846 258 846 q 661 794 538 846 l 688 590 l 547 575 l 529 700 q 396 721 467 721 q 268 692 315 721 q 221 615 221 664 q 255 540 221 567 q 367 499 289 513 l 471 482 q 660 403 600 463 q 719 244 719 343 q 622 35 719 99 q 392 -28 525 -28 m 604 1100 l 640 968 l 289 914 l 267 976 l 604 1100 z "},"Ṥ":{"ha":776,"x_min":61,"x_max":719,"o":"m 392 -28 q 86 25 221 -28 l 61 215 l 192 231 l 207 129 q 381 101 288 101 q 520 132 465 101 q 575 224 575 163 q 544 301 575 271 q 435 344 514 331 l 335 361 q 142 444 208 383 q 76 604 76 506 q 167 783 76 719 q 401 846 258 846 q 661 794 538 846 l 688 590 l 547 575 l 529 700 q 396 721 467 721 q 268 692 315 721 q 221 615 221 664 q 255 540 221 567 q 367 499 289 513 l 471 482 q 660 403 600 463 q 719 244 719 343 q 622 35 719 99 q 392 -28 525 -28 m 604 1100 l 640 968 l 289 914 l 267 976 l 604 1100 m 453 1311 q 522 1285 496 1311 q 549 1215 549 1258 q 522 1146 549 1172 q 453 1119 496 1119 q 384 1146 410 1119 q 358 1215 358 1172 q 384 1285 358 1258 q 453 1311 410 1311 z "},"Š":{"ha":776,"x_min":61,"x_max":719,"o":"m 392 -28 q 86 25 221 -28 l 61 215 l 192 231 l 207 129 q 381 101 288 101 q 520 132 465 101 q 575 224 575 163 q 544 301 575 271 q 435 344 514 331 l 335 361 q 142 444 208 383 q 76 604 76 506 q 167 783 76 719 q 401 846 258 846 q 661 794 538 846 l 688 590 l 547 575 l 529 700 q 396 721 467 721 q 268 692 315 721 q 221 615 221 664 q 255 540 221 567 q 367 499 289 513 l 471 482 q 660 403 600 463 q 719 244 719 343 q 622 35 719 99 q 392 -28 525 -28 m 390 892 l 157 1051 l 203 1121 l 392 1017 l 569 1121 l 618 1051 l 390 892 z "},"Ṧ":{"ha":776,"x_min":61,"x_max":719,"o":"m 392 -28 q 86 25 221 -28 l 61 215 l 192 231 l 207 129 q 381 101 288 101 q 520 132 465 101 q 575 224 575 163 q 544 301 575 271 q 435 344 514 331 l 335 361 q 142 444 208 383 q 76 604 76 506 q 167 783 76 719 q 401 846 258 846 q 661 794 538 846 l 688 590 l 547 575 l 529 700 q 396 721 467 721 q 268 692 315 721 q 221 615 221 664 q 255 540 221 567 q 367 499 289 513 l 471 482 q 660 403 600 463 q 719 244 719 343 q 622 35 719 99 q 392 -28 525 -28 m 390 892 l 157 1051 l 203 1121 l 392 1017 l 569 1121 l 618 1051 l 390 892 m 388 1331 q 457 1304 431 1331 q 483 1235 483 1278 q 457 1165 483 1192 q 388 1139 431 1139 q 319 1165 344 1139 q 293 1235 293 1192 q 319 1304 293 1278 q 388 1331 344 1331 z "},"Ş":{"ha":776,"x_min":61,"x_max":719,"o":"m 488 -71 q 619 -97 576 -68 q 663 -190 663 -126 q 613 -292 663 -257 q 485 -326 563 -326 q 390 -308 431 -326 q 311 -264 350 -290 l 356 -197 q 483 -237 419 -237 q 528 -223 514 -237 q 543 -183 543 -208 q 469 -139 543 -139 l 389 -139 l 389 -28 q 86 25 221 -28 l 61 215 l 192 231 l 207 129 q 381 101 288 101 q 520 132 465 101 q 575 224 575 163 q 544 301 575 271 q 435 344 514 331 l 335 361 q 142 444 208 383 q 76 604 76 506 q 167 783 76 719 q 401 846 258 846 q 661 794 538 846 l 688 590 l 547 575 l 529 700 q 396 721 467 721 q 268 692 315 721 q 221 615 221 664 q 255 540 221 567 q 367 499 289 513 l 471 482 q 660 403 600 463 q 719 244 719 343 q 654 64 719 128 q 488 -19 589 0 l 488 -71 z "},"Ŝ":{"ha":776,"x_min":61,"x_max":719,"o":"m 392 -28 q 86 25 221 -28 l 61 215 l 192 231 l 207 129 q 381 101 288 101 q 520 132 465 101 q 575 224 575 163 q 544 301 575 271 q 435 344 514 331 l 335 361 q 142 444 208 383 q 76 604 76 506 q 167 783 76 719 q 401 846 258 846 q 661 794 538 846 l 688 590 l 547 575 l 529 700 q 396 721 467 721 q 268 692 315 721 q 221 615 221 664 q 255 540 221 567 q 367 499 289 513 l 471 482 q 660 403 600 463 q 719 244 719 343 q 622 35 719 99 q 392 -28 525 -28 m 388 1103 l 638 958 l 594 899 l 389 981 l 176 899 l 138 958 l 388 1103 z "},"Ș":{"ha":776,"x_min":61,"x_max":719,"o":"m 392 -28 q 86 25 221 -28 l 61 215 l 192 231 l 207 129 q 381 101 288 101 q 520 132 465 101 q 575 224 575 163 q 544 301 575 271 q 435 344 514 331 l 335 361 q 142 444 208 383 q 76 604 76 506 q 167 783 76 719 q 401 846 258 846 q 661 794 538 846 l 688 590 l 547 575 l 529 700 q 396 721 467 721 q 268 692 315 721 q 221 615 221 664 q 255 540 221 567 q 367 499 289 513 l 471 482 q 660 403 600 463 q 719 244 719 343 q 622 35 719 99 q 392 -28 525 -28 m 293 -407 q 323 -363 300 -397 q 360 -300 346 -329 q 297 -264 318 -292 q 276 -200 276 -236 q 307 -124 276 -153 q 386 -94 338 -94 q 465 -128 431 -94 q 500 -208 500 -162 q 457 -337 500 -278 q 382 -426 414 -396 q 344 -461 350 -456 l 293 -407 z "},"Ṡ":{"ha":776,"x_min":61,"x_max":719,"o":"m 392 -28 q 86 25 221 -28 l 61 215 l 192 231 l 207 129 q 381 101 288 101 q 520 132 465 101 q 575 224 575 163 q 544 301 575 271 q 435 344 514 331 l 335 361 q 142 444 208 383 q 76 604 76 506 q 167 783 76 719 q 401 846 258 846 q 661 794 538 846 l 688 590 l 547 575 l 529 700 q 396 721 467 721 q 268 692 315 721 q 221 615 221 664 q 255 540 221 567 q 367 499 289 513 l 471 482 q 660 403 600 463 q 719 244 719 343 q 622 35 719 99 q 392 -28 525 -28 m 388 1119 q 457 1093 431 1119 q 483 1024 483 1067 q 457 954 483 981 q 388 928 431 928 q 319 954 344 928 q 293 1024 293 981 q 319 1093 293 1067 q 388 1119 344 1119 z "},"Ṣ":{"ha":776,"x_min":61,"x_max":719,"o":"m 392 -28 q 86 25 221 -28 l 61 215 l 192 231 l 207 129 q 381 101 288 101 q 520 132 465 101 q 575 224 575 163 q 544 301 575 271 q 435 344 514 331 l 335 361 q 142 444 208 383 q 76 604 76 506 q 167 783 76 719 q 401 846 258 846 q 661 794 538 846 l 688 590 l 547 575 l 529 700 q 396 721 467 721 q 268 692 315 721 q 221 615 221 664 q 255 540 221 567 q 367 499 289 513 l 471 482 q 660 403 600 463 q 719 244 719 343 q 622 35 719 99 q 392 -28 525 -28 m 388 -81 q 457 -107 431 -81 q 483 -176 483 -133 q 457 -246 483 -219 q 388 -272 431 -272 q 319 -246 344 -272 q 293 -176 293 -219 q 319 -107 293 -133 q 388 -81 344 -81 z "},"Ṩ":{"ha":776,"x_min":61,"x_max":719,"o":"m 392 -28 q 86 25 221 -28 l 61 215 l 192 231 l 207 129 q 381 101 288 101 q 520 132 465 101 q 575 224 575 163 q 544 301 575 271 q 435 344 514 331 l 335 361 q 142 444 208 383 q 76 604 76 506 q 167 783 76 719 q 401 846 258 846 q 661 794 538 846 l 688 590 l 547 575 l 529 700 q 396 721 467 721 q 268 692 315 721 q 221 615 221 664 q 255 540 221 567 q 367 499 289 513 l 471 482 q 660 403 600 463 q 719 244 719 343 q 622 35 719 99 q 392 -28 525 -28 m 388 -81 q 457 -107 431 -81 q 483 -176 483 -133 q 457 -246 483 -219 q 388 -272 431 -272 q 319 -246 344 -272 q 293 -176 293 -219 q 319 -107 293 -133 q 388 -81 344 -81 m 388 1119 q 457 1093 431 1119 q 483 1024 483 1067 q 457 954 483 981 q 388 928 431 928 q 319 954 344 928 q 293 1024 293 981 q 319 1093 293 1067 q 388 1119 344 1119 z "},"ẞ":{"ha":844,"x_min":60,"x_max":806,"o":"m 583 -22 q 475 -3 528 -22 q 399 44 422 15 l 376 165 l 497 190 l 510 118 q 540 102 519 108 q 583 96 560 96 q 640 115 618 96 q 661 164 661 133 q 560 269 661 228 q 437 349 472 308 q 401 450 401 389 q 426 540 401 506 q 500 614 451 575 q 553 663 536 642 q 571 714 571 685 q 540 775 571 753 q 456 797 508 797 q 361 761 388 797 q 335 635 335 725 l 335 0 l 60 0 l 60 138 l 176 138 l 176 485 l 60 485 l 60 621 l 176 621 l 176 675 q 245 858 176 799 q 449 917 314 917 q 640 862 568 917 q 713 714 713 807 q 685 620 713 656 q 610 547 658 585 q 562 504 576 521 q 547 465 547 488 q 568 416 547 436 q 646 372 589 396 q 806 174 806 301 q 744 33 806 88 q 583 -22 682 -22 z "},"Ə":{"ha":863,"x_min":39,"x_max":794,"o":"m 376 846 q 596 794 501 846 q 742 644 690 742 q 794 411 794 546 q 746 176 794 275 q 609 24 697 76 q 407 -28 521 -28 q 217 21 300 -28 q 86 162 133 69 q 39 382 39 254 l 39 447 l 635 447 q 558 644 625 578 q 375 711 492 711 q 226 685 292 711 l 201 568 l 65 599 l 99 775 q 376 846 213 846 m 404 108 q 568 167 504 108 q 632 329 632 225 l 194 329 q 251 163 194 218 q 404 108 308 108 z "},"T":{"ha":833,"x_min":42,"x_max":782,"o":"m 42 818 l 782 818 l 782 540 l 639 540 l 639 678 l 493 678 l 492 140 l 610 140 l 610 0 l 211 0 l 211 140 l 329 140 l 331 678 l 185 678 l 185 540 l 42 540 l 42 818 z "},"Ŧ":{"ha":833,"x_min":42,"x_max":782,"o":"m 42 818 l 782 818 l 782 540 l 639 540 l 639 678 l 493 678 l 493 463 l 639 463 l 639 357 l 492 357 l 492 140 l 610 140 l 610 0 l 211 0 l 211 140 l 329 140 l 329 357 l 185 357 l 185 463 l 331 463 l 331 678 l 185 678 l 185 540 l 42 540 l 42 818 z "},"Ť":{"ha":833,"x_min":42,"x_max":782,"o":"m 42 818 l 782 818 l 782 540 l 639 540 l 639 678 l 493 678 l 492 140 l 610 140 l 610 0 l 211 0 l 211 140 l 329 140 l 331 678 l 185 678 l 185 540 l 42 540 l 42 818 m 414 892 l 181 1051 l 226 1121 l 415 1017 l 593 1121 l 642 1051 l 414 892 z "},"Ţ":{"ha":833,"x_min":42,"x_max":782,"o":"m 42 818 l 782 818 l 782 540 l 639 540 l 639 678 l 493 678 l 492 140 l 610 140 l 610 0 l 211 0 l 211 140 l 329 140 l 331 678 l 185 678 l 185 540 l 42 540 l 42 818 m 508 -326 q 414 -308 454 -326 q 335 -264 374 -290 l 379 -197 q 507 -237 443 -237 q 552 -223 538 -237 q 567 -183 567 -208 q 493 -139 567 -139 l 413 -139 l 413 0 l 511 0 l 511 -71 q 643 -97 600 -68 q 686 -190 686 -126 q 636 -292 686 -257 q 508 -326 586 -326 z "},"Ț":{"ha":833,"x_min":42,"x_max":782,"o":"m 42 818 l 782 818 l 782 540 l 639 540 l 639 678 l 493 678 l 492 140 l 610 140 l 610 0 l 211 0 l 211 140 l 329 140 l 331 678 l 185 678 l 185 540 l 42 540 l 42 818 m 317 -407 q 347 -363 324 -397 q 383 -300 369 -329 q 321 -264 342 -292 q 300 -200 300 -236 q 331 -124 300 -153 q 410 -94 361 -94 q 489 -128 454 -94 q 524 -208 524 -162 q 481 -337 524 -278 q 406 -426 438 -396 q 368 -461 374 -456 l 317 -407 z "},"Ṭ":{"ha":833,"x_min":42,"x_max":782,"o":"m 42 818 l 782 818 l 782 540 l 639 540 l 639 678 l 493 678 l 492 140 l 610 140 l 610 0 l 211 0 l 211 140 l 329 140 l 331 678 l 185 678 l 185 540 l 42 540 l 42 818 m 411 -81 q 481 -107 454 -81 q 507 -176 507 -133 q 481 -246 507 -219 q 411 -272 454 -272 q 342 -246 368 -272 q 317 -176 317 -219 q 342 -107 317 -133 q 411 -81 368 -81 z "},"Ṯ":{"ha":833,"x_min":42,"x_max":782,"o":"m 42 818 l 782 818 l 782 540 l 639 540 l 639 678 l 493 678 l 492 140 l 610 140 l 610 0 l 211 0 l 211 140 l 329 140 l 331 678 l 185 678 l 185 540 l 42 540 l 42 818 m 185 -76 l 640 -76 l 640 -182 l 185 -182 l 185 -76 z "},"U":{"ha":956,"x_min":39,"x_max":917,"o":"m 797 296 q 717 56 797 139 q 478 -28 636 -28 q 238 56 318 -28 q 157 296 157 139 l 157 678 l 39 678 l 39 818 l 399 818 l 399 678 l 318 678 l 318 268 q 358 144 318 183 q 478 106 399 106 q 636 282 636 106 l 636 678 l 557 678 l 557 818 l 917 818 l 917 678 l 797 678 l 797 296 z "},"Ú":{"ha":956,"x_min":39,"x_max":917,"o":"m 797 296 q 717 56 797 139 q 478 -28 636 -28 q 238 56 318 -28 q 157 296 157 139 l 157 678 l 39 678 l 39 818 l 399 818 l 399 678 l 318 678 l 318 268 q 358 144 318 183 q 478 106 399 106 q 636 282 636 106 l 636 678 l 557 678 l 557 818 l 917 818 l 917 678 l 797 678 l 797 296 m 693 1100 l 729 968 l 378 914 l 356 976 l 693 1100 z "},"Ŭ":{"ha":956,"x_min":39,"x_max":917,"o":"m 797 296 q 717 56 797 139 q 478 -28 636 -28 q 238 56 318 -28 q 157 296 157 139 l 157 678 l 39 678 l 39 818 l 399 818 l 399 678 l 318 678 l 318 268 q 358 144 318 183 q 478 106 399 106 q 636 282 636 106 l 636 678 l 557 678 l 557 818 l 917 818 l 917 678 l 797 678 l 797 296 m 476 914 q 311 963 372 914 q 236 1108 250 1013 l 344 1124 q 382 1045 349 1072 q 476 1018 415 1018 q 574 1045 539 1018 q 611 1124 608 1072 l 719 1108 q 644 963 706 1013 q 476 914 583 914 z "},"Û":{"ha":956,"x_min":39,"x_max":917,"o":"m 797 296 q 717 56 797 139 q 478 -28 636 -28 q 238 56 318 -28 q 157 296 157 139 l 157 678 l 39 678 l 39 818 l 399 818 l 399 678 l 318 678 l 318 268 q 358 144 318 183 q 478 106 399 106 q 636 282 636 106 l 636 678 l 557 678 l 557 818 l 917 818 l 917 678 l 797 678 l 797 296 m 476 1103 l 726 958 l 683 899 l 478 981 l 265 899 l 226 958 l 476 1103 z "},"Ȕ":{"ha":956,"x_min":39,"x_max":917,"o":"m 797 296 q 717 56 797 139 q 478 -28 636 -28 q 238 56 318 -28 q 157 296 157 139 l 157 678 l 39 678 l 39 818 l 399 818 l 399 678 l 318 678 l 318 268 q 358 144 318 183 q 478 106 399 106 q 636 282 636 106 l 636 678 l 557 678 l 557 818 l 917 818 l 917 678 l 797 678 l 797 296 m 465 1238 l 644 950 l 578 904 l 357 1158 l 465 1238 m 192 1208 l 424 963 l 367 904 l 103 1113 l 192 1208 z "},"Ü":{"ha":956,"x_min":39,"x_max":917,"o":"m 797 296 q 717 56 797 139 q 478 -28 636 -28 q 238 56 318 -28 q 157 296 157 139 l 157 678 l 39 678 l 39 818 l 399 818 l 399 678 l 318 678 l 318 268 q 358 144 318 183 q 478 106 399 106 q 636 282 636 106 l 636 678 l 557 678 l 557 818 l 917 818 l 917 678 l 797 678 l 797 296 m 344 1111 q 410 1083 382 1111 q 439 1015 439 1054 q 410 949 439 976 q 344 921 382 921 q 277 949 306 921 q 249 1015 249 976 q 277 1083 249 1054 q 344 1111 306 1111 m 610 1111 q 676 1083 647 1111 q 704 1015 704 1054 q 676 949 704 976 q 610 921 647 921 q 542 949 571 921 q 514 1015 514 976 q 542 1083 514 1054 q 610 1111 571 1111 z "},"Ụ":{"ha":956,"x_min":39,"x_max":917,"o":"m 797 296 q 717 56 797 139 q 478 -28 636 -28 q 238 56 318 -28 q 157 296 157 139 l 157 678 l 39 678 l 39 818 l 399 818 l 399 678 l 318 678 l 318 268 q 358 144 318 183 q 478 106 399 106 q 636 282 636 106 l 636 678 l 557 678 l 557 818 l 917 818 l 917 678 l 797 678 l 797 296 m 464 -81 q 533 -107 507 -81 q 560 -176 560 -133 q 533 -246 560 -219 q 464 -272 507 -272 q 395 -246 421 -272 q 369 -176 369 -219 q 395 -107 369 -133 q 464 -81 421 -81 z "},"Ù":{"ha":956,"x_min":39,"x_max":917,"o":"m 797 296 q 717 56 797 139 q 478 -28 636 -28 q 238 56 318 -28 q 157 296 157 139 l 157 678 l 39 678 l 39 818 l 399 818 l 399 678 l 318 678 l 318 268 q 358 144 318 183 q 478 106 399 106 q 636 282 636 106 l 636 678 l 557 678 l 557 818 l 917 818 l 917 678 l 797 678 l 797 296 m 238 1101 l 576 978 l 556 915 l 203 971 l 238 1101 z "},"Ủ":{"ha":956,"x_min":39,"x_max":917,"o":"m 797 296 q 717 56 797 139 q 478 -28 636 -28 q 238 56 318 -28 q 157 296 157 139 l 157 678 l 39 678 l 39 818 l 399 818 l 399 678 l 318 678 l 318 268 q 358 144 318 183 q 478 106 399 106 q 636 282 636 106 l 636 678 l 557 678 l 557 818 l 917 818 l 917 678 l 797 678 l 797 296 m 451 932 q 491 976 476 953 q 506 1019 506 999 q 494 1049 506 1038 q 461 1061 482 1061 q 389 1021 426 1061 l 328 1089 q 481 1167 397 1167 q 575 1133 540 1167 q 610 1047 610 1100 q 583 961 610 1004 q 503 883 556 918 l 451 932 z "},"Ư":{"ha":1019,"x_min":39,"x_max":944,"o":"m 944 928 q 907 768 944 829 q 797 688 869 707 l 797 296 q 717 56 797 139 q 478 -28 636 -28 q 238 56 318 -28 q 157 296 157 139 l 157 678 l 39 678 l 39 818 l 399 818 l 399 678 l 318 678 l 318 268 q 358 144 318 183 q 478 106 399 106 q 636 282 636 106 l 636 678 l 557 678 l 557 818 l 721 818 q 792 846 768 818 q 817 928 817 874 l 944 928 z "},"Ứ":{"ha":1019,"x_min":39,"x_max":944,"o":"m 944 928 q 907 768 944 829 q 797 688 869 707 l 797 296 q 717 56 797 139 q 478 -28 636 -28 q 238 56 318 -28 q 157 296 157 139 l 157 678 l 39 678 l 39 818 l 399 818 l 399 678 l 318 678 l 318 268 q 358 144 318 183 q 478 106 399 106 q 636 282 636 106 l 636 678 l 557 678 l 557 818 l 721 818 q 792 846 768 818 q 817 928 817 874 l 944 928 m 701 1100 l 738 968 l 386 914 l 364 976 l 701 1100 z "},"Ự":{"ha":1019,"x_min":39,"x_max":944,"o":"m 944 928 q 907 768 944 829 q 797 688 869 707 l 797 296 q 717 56 797 139 q 478 -28 636 -28 q 238 56 318 -28 q 157 296 157 139 l 157 678 l 39 678 l 39 818 l 399 818 l 399 678 l 318 678 l 318 268 q 358 144 318 183 q 478 106 399 106 q 636 282 636 106 l 636 678 l 557 678 l 557 818 l 721 818 q 792 846 768 818 q 817 928 817 874 l 944 928 m 508 -81 q 578 -107 551 -81 q 604 -176 604 -133 q 578 -246 604 -219 q 508 -272 551 -272 q 440 -246 465 -272 q 414 -176 414 -219 q 440 -107 414 -133 q 508 -81 465 -81 z "},"Ừ":{"ha":1019,"x_min":39,"x_max":944,"o":"m 944 928 q 907 768 944 829 q 797 688 869 707 l 797 296 q 717 56 797 139 q 478 -28 636 -28 q 238 56 318 -28 q 157 296 157 139 l 157 678 l 39 678 l 39 818 l 399 818 l 399 678 l 318 678 l 318 268 q 358 144 318 183 q 478 106 399 106 q 636 282 636 106 l 636 678 l 557 678 l 557 818 l 721 818 q 792 846 768 818 q 817 928 817 874 l 944 928 m 246 1101 l 585 978 l 564 915 l 211 971 l 246 1101 z "},"Ử":{"ha":1019,"x_min":39,"x_max":944,"o":"m 944 928 q 907 768 944 829 q 797 688 869 707 l 797 296 q 717 56 797 139 q 478 -28 636 -28 q 238 56 318 -28 q 157 296 157 139 l 157 678 l 39 678 l 39 818 l 399 818 l 399 678 l 318 678 l 318 268 q 358 144 318 183 q 478 106 399 106 q 636 282 636 106 l 636 678 l 557 678 l 557 818 l 721 818 q 792 846 768 818 q 817 928 817 874 l 944 928 m 460 932 q 499 976 485 953 q 514 1019 514 999 q 502 1049 514 1038 q 469 1061 490 1061 q 397 1021 435 1061 l 336 1089 q 489 1167 406 1167 q 583 1133 549 1167 q 618 1047 618 1100 q 591 961 618 1004 q 511 883 564 918 l 460 932 z "},"Ữ":{"ha":1019,"x_min":39,"x_max":944,"o":"m 944 928 q 907 768 944 829 q 797 688 869 707 l 797 296 q 717 56 797 139 q 478 -28 636 -28 q 238 56 318 -28 q 157 296 157 139 l 157 678 l 39 678 l 39 818 l 399 818 l 399 678 l 318 678 l 318 268 q 358 144 318 183 q 478 106 399 106 q 636 282 636 106 l 636 678 l 557 678 l 557 818 l 721 818 q 792 846 768 818 q 817 928 817 874 l 944 928 m 253 1021 q 337 1073 301 1058 q 419 1088 372 1088 q 471 1080 447 1088 q 522 1057 494 1072 q 565 1038 547 1044 q 600 1032 582 1032 q 649 1040 628 1032 q 708 1074 669 1049 l 746 985 q 669 931 704 947 q 586 915 635 915 q 547 922 565 915 q 500 943 528 929 q 453 965 474 957 q 411 972 433 972 q 368 966 388 972 q 326 949 349 960 q 293 933 303 938 l 253 1021 z "},"Ű":{"ha":956,"x_min":39,"x_max":917,"o":"m 797 296 q 717 56 797 139 q 478 -28 636 -28 q 238 56 318 -28 q 157 296 157 139 l 157 678 l 39 678 l 39 818 l 399 818 l 399 678 l 318 678 l 318 268 q 358 144 318 183 q 478 106 399 106 q 636 282 636 106 l 636 678 l 557 678 l 557 818 l 917 818 l 917 678 l 797 678 l 797 296 m 549 1157 l 629 1063 l 396 907 l 354 951 l 549 1157 m 786 1099 l 838 986 l 567 911 l 538 964 l 786 1099 z "},"Ȗ":{"ha":956,"x_min":39,"x_max":917,"o":"m 797 296 q 717 56 797 139 q 478 -28 636 -28 q 238 56 318 -28 q 157 296 157 139 l 157 678 l 39 678 l 39 818 l 399 818 l 399 678 l 318 678 l 318 268 q 358 144 318 183 q 478 106 399 106 q 636 282 636 106 l 636 678 l 557 678 l 557 818 l 917 818 l 917 678 l 797 678 l 797 296 m 476 1138 q 644 1088 583 1138 q 719 943 706 1039 l 611 928 q 574 1006 608 979 q 476 1033 539 1033 q 382 1006 415 1033 q 344 928 349 979 l 236 943 q 311 1088 250 1039 q 476 1138 372 1138 z "},"Ū":{"ha":956,"x_min":39,"x_max":917,"o":"m 797 296 q 717 56 797 139 q 478 -28 636 -28 q 238 56 318 -28 q 157 296 157 139 l 157 678 l 39 678 l 39 818 l 399 818 l 399 678 l 318 678 l 318 268 q 358 144 318 183 q 478 106 399 106 q 636 282 636 106 l 636 678 l 557 678 l 557 818 l 917 818 l 917 678 l 797 678 l 797 296 m 244 1056 l 708 1056 l 708 950 l 244 950 l 244 1056 z "},"Ṻ":{"ha":956,"x_min":39,"x_max":917,"o":"m 797 296 q 717 56 797 139 q 478 -28 636 -28 q 238 56 318 -28 q 157 296 157 139 l 157 678 l 39 678 l 39 818 l 399 818 l 399 678 l 318 678 l 318 268 q 358 144 318 183 q 478 106 399 106 q 636 282 636 106 l 636 678 l 557 678 l 557 818 l 917 818 l 917 678 l 797 678 l 797 296 m 244 1056 l 708 1056 l 708 950 l 244 950 l 244 1056 m 350 1314 q 416 1285 388 1314 q 444 1218 444 1257 q 416 1151 444 1179 q 350 1124 388 1124 q 283 1151 311 1124 q 254 1218 254 1179 q 283 1285 254 1257 q 350 1314 311 1314 m 615 1314 q 681 1285 653 1314 q 710 1218 710 1257 q 681 1151 710 1179 q 615 1124 653 1124 q 548 1151 576 1124 q 519 1218 519 1179 q 548 1285 519 1257 q 615 1314 576 1314 z "},"Ų":{"ha":956,"x_min":39,"x_max":917,"o":"m 917 818 l 917 678 l 797 678 l 797 296 q 753 103 797 179 q 621 -6 708 26 q 538 -137 538 -58 q 560 -186 538 -168 q 621 -204 583 -204 q 689 -190 656 -204 l 689 -290 q 565 -317 629 -317 q 436 -280 483 -317 q 389 -186 389 -243 q 467 -28 389 -93 q 235 58 313 -25 q 157 296 157 142 l 157 678 l 39 678 l 39 818 l 399 818 l 399 678 l 318 678 l 318 268 q 358 144 318 183 q 478 106 399 106 q 636 282 636 106 l 636 678 l 557 678 l 557 818 l 917 818 z "},"Ů":{"ha":956,"x_min":39,"x_max":917,"o":"m 797 296 q 717 56 797 139 q 478 -28 636 -28 q 238 56 318 -28 q 157 296 157 139 l 157 678 l 39 678 l 39 818 l 399 818 l 399 678 l 318 678 l 318 268 q 358 144 318 183 q 478 106 399 106 q 636 282 636 106 l 636 678 l 557 678 l 557 818 l 917 818 l 917 678 l 797 678 l 797 296 m 476 1207 q 581 1167 542 1207 q 621 1063 621 1128 q 581 958 621 997 q 476 918 542 918 q 372 958 411 918 q 332 1063 332 997 q 372 1167 332 1128 q 476 1207 411 1207 m 476 1131 q 426 1112 446 1131 q 407 1063 407 1093 q 426 1013 407 1032 q 476 994 446 994 q 526 1013 507 994 q 544 1063 544 1032 q 526 1112 544 1093 q 476 1131 507 1131 z "},"Ũ":{"ha":956,"x_min":39,"x_max":917,"o":"m 797 296 q 717 56 797 139 q 478 -28 636 -28 q 238 56 318 -28 q 157 296 157 139 l 157 678 l 39 678 l 39 818 l 399 818 l 399 678 l 318 678 l 318 268 q 358 144 318 183 q 478 106 399 106 q 636 282 636 106 l 636 678 l 557 678 l 557 818 l 917 818 l 917 678 l 797 678 l 797 296 m 244 1021 q 328 1073 293 1058 q 411 1088 364 1088 q 463 1080 439 1088 q 514 1057 486 1072 q 556 1038 539 1044 q 592 1032 574 1032 q 640 1040 619 1032 q 700 1074 661 1049 l 738 985 q 661 931 696 947 q 578 915 626 915 q 538 922 557 915 q 492 943 519 929 q 445 965 465 957 q 403 972 425 972 q 360 966 379 972 q 317 949 340 960 q 285 933 294 938 l 244 1021 z "},"Ṹ":{"ha":956,"x_min":39,"x_max":917,"o":"m 797 296 q 717 56 797 139 q 478 -28 636 -28 q 238 56 318 -28 q 157 296 157 139 l 157 678 l 39 678 l 39 818 l 399 818 l 399 678 l 318 678 l 318 268 q 358 144 318 183 q 478 106 399 106 q 636 282 636 106 l 636 678 l 557 678 l 557 818 l 917 818 l 917 678 l 797 678 l 797 296 m 244 1021 q 328 1073 293 1058 q 411 1088 364 1088 q 463 1080 439 1088 q 514 1057 486 1072 q 556 1038 539 1044 q 592 1032 574 1032 q 640 1040 619 1032 q 700 1074 661 1049 l 738 985 q 661 931 696 947 q 578 915 626 915 q 538 922 557 915 q 492 943 519 929 q 445 965 465 957 q 403 972 425 972 q 360 966 379 972 q 317 949 340 960 q 285 933 294 938 l 244 1021 m 672 1329 l 708 1197 l 357 1143 l 335 1206 l 672 1329 z "},"V":{"ha":926,"x_min":8,"x_max":918,"o":"m 8 818 l 385 818 l 385 678 l 297 678 l 425 351 l 479 165 l 533 350 l 654 678 l 561 678 l 561 818 l 918 818 l 918 678 l 814 678 l 563 0 l 394 0 l 122 678 l 8 678 l 8 818 z "},"W":{"ha":1296,"x_min":7,"x_max":1289,"o":"m 7 818 l 383 818 l 383 678 l 307 678 l 390 350 l 433 167 l 468 347 l 568 715 l 764 715 l 861 350 l 896 167 l 935 350 l 1019 678 l 933 678 l 933 818 l 1289 818 l 1289 678 l 1189 678 l 974 0 l 788 0 l 664 546 l 619 372 l 525 0 l 340 0 l 126 678 l 7 678 l 7 818 z "},"Ẃ":{"ha":1296,"x_min":7,"x_max":1289,"o":"m 7 818 l 383 818 l 383 678 l 307 678 l 390 350 l 433 167 l 468 347 l 568 715 l 764 715 l 861 350 l 896 167 l 935 350 l 1019 678 l 933 678 l 933 818 l 1289 818 l 1289 678 l 1189 678 l 974 0 l 788 0 l 664 546 l 619 372 l 525 0 l 340 0 l 126 678 l 7 678 l 7 818 m 881 1100 l 917 968 l 565 914 l 543 976 l 881 1100 z "},"Ŵ":{"ha":1296,"x_min":7,"x_max":1289,"o":"m 7 818 l 383 818 l 383 678 l 307 678 l 390 350 l 433 167 l 468 347 l 568 715 l 764 715 l 861 350 l 896 167 l 935 350 l 1019 678 l 933 678 l 933 818 l 1289 818 l 1289 678 l 1189 678 l 974 0 l 788 0 l 664 546 l 619 372 l 525 0 l 340 0 l 126 678 l 7 678 l 7 818 m 664 1103 l 914 958 l 871 899 l 665 981 l 453 899 l 414 958 l 664 1103 z "},"Ẅ":{"ha":1296,"x_min":7,"x_max":1289,"o":"m 7 818 l 383 818 l 383 678 l 307 678 l 390 350 l 433 167 l 468 347 l 568 715 l 764 715 l 861 350 l 896 167 l 935 350 l 1019 678 l 933 678 l 933 818 l 1289 818 l 1289 678 l 1189 678 l 974 0 l 788 0 l 664 546 l 619 372 l 525 0 l 340 0 l 126 678 l 7 678 l 7 818 m 532 1111 q 598 1083 569 1111 q 626 1015 626 1054 q 598 949 626 976 q 532 921 569 921 q 465 949 493 921 q 436 1015 436 976 q 465 1083 436 1054 q 532 1111 493 1111 m 797 1111 q 863 1083 835 1111 q 892 1015 892 1054 q 863 949 892 976 q 797 921 835 921 q 730 949 758 921 q 701 1015 701 976 q 730 1083 701 1054 q 797 1111 758 1111 z "},"Ẁ":{"ha":1296,"x_min":7,"x_max":1289,"o":"m 7 818 l 383 818 l 383 678 l 307 678 l 390 350 l 433 167 l 468 347 l 568 715 l 764 715 l 861 350 l 896 167 l 935 350 l 1019 678 l 933 678 l 933 818 l 1289 818 l 1289 678 l 1189 678 l 974 0 l 788 0 l 664 546 l 619 372 l 525 0 l 340 0 l 126 678 l 7 678 l 7 818 m 425 1101 l 764 978 l 743 915 l 390 971 l 425 1101 z "},"X":{"ha":971,"x_min":36,"x_max":940,"o":"m 36 0 l 36 138 l 175 138 l 388 406 l 163 678 l 47 678 l 47 818 l 421 818 l 421 678 l 340 678 l 482 507 l 625 678 l 549 678 l 549 818 l 914 818 l 914 678 l 789 678 l 576 407 l 794 138 l 940 138 l 940 0 l 539 0 l 539 138 l 621 138 l 482 306 l 342 138 l 411 138 l 411 0 l 36 0 z "},"Y":{"ha":921,"x_min":8,"x_max":913,"o":"m 8 818 l 386 818 l 386 678 l 296 678 l 471 442 l 644 678 l 553 678 l 553 818 l 913 818 l 913 678 l 813 678 l 544 331 l 544 139 l 675 139 l 675 0 l 254 0 l 254 139 l 386 139 l 386 329 l 117 678 l 8 678 l 8 818 z "},"Ý":{"ha":921,"x_min":8,"x_max":913,"o":"m 8 818 l 386 818 l 386 678 l 296 678 l 471 442 l 644 678 l 553 678 l 553 818 l 913 818 l 913 678 l 813 678 l 544 331 l 544 139 l 675 139 l 675 0 l 254 0 l 254 139 l 386 139 l 386 329 l 117 678 l 8 678 l 8 818 m 675 1100 l 711 968 l 360 914 l 338 976 l 675 1100 z "},"Ŷ":{"ha":921,"x_min":8,"x_max":913,"o":"m 8 818 l 386 818 l 386 678 l 296 678 l 471 442 l 644 678 l 553 678 l 553 818 l 913 818 l 913 678 l 813 678 l 544 331 l 544 139 l 675 139 l 675 0 l 254 0 l 254 139 l 386 139 l 386 329 l 117 678 l 8 678 l 8 818 m 458 1103 l 708 958 l 665 899 l 460 981 l 247 899 l 208 958 l 458 1103 z "},"Ÿ":{"ha":921,"x_min":8,"x_max":913,"o":"m 8 818 l 386 818 l 386 678 l 296 678 l 471 442 l 644 678 l 553 678 l 553 818 l 913 818 l 913 678 l 813 678 l 544 331 l 544 139 l 675 139 l 675 0 l 254 0 l 254 139 l 386 139 l 386 329 l 117 678 l 8 678 l 8 818 m 326 1111 q 392 1083 364 1111 q 421 1015 421 1054 q 392 949 421 976 q 326 921 364 921 q 259 949 288 921 q 231 1015 231 976 q 259 1083 231 1054 q 326 1111 288 1111 m 592 1111 q 658 1083 629 1111 q 686 1015 686 1054 q 658 949 686 976 q 592 921 629 921 q 524 949 553 921 q 496 1015 496 976 q 524 1083 496 1054 q 592 1111 553 1111 z "},"Ẏ":{"ha":921,"x_min":8,"x_max":913,"o":"m 8 818 l 386 818 l 386 678 l 296 678 l 471 442 l 644 678 l 553 678 l 553 818 l 913 818 l 913 678 l 813 678 l 544 331 l 544 139 l 675 139 l 675 0 l 254 0 l 254 139 l 386 139 l 386 329 l 117 678 l 8 678 l 8 818 m 458 1119 q 528 1093 501 1119 q 554 1024 554 1067 q 528 954 554 981 q 458 928 501 928 q 390 954 415 928 q 364 1024 364 981 q 390 1093 364 1067 q 458 1119 415 1119 z "},"Ỵ":{"ha":921,"x_min":8,"x_max":913,"o":"m 8 818 l 386 818 l 386 678 l 296 678 l 471 442 l 644 678 l 553 678 l 553 818 l 913 818 l 913 678 l 813 678 l 544 331 l 544 139 l 675 139 l 675 0 l 254 0 l 254 139 l 386 139 l 386 329 l 117 678 l 8 678 l 8 818 m 458 -81 q 528 -107 501 -81 q 554 -176 554 -133 q 528 -246 554 -219 q 458 -272 501 -272 q 390 -246 415 -272 q 364 -176 364 -219 q 390 -107 364 -133 q 458 -81 415 -81 z "},"Ỳ":{"ha":921,"x_min":8,"x_max":913,"o":"m 8 818 l 386 818 l 386 678 l 296 678 l 471 442 l 644 678 l 553 678 l 553 818 l 913 818 l 913 678 l 813 678 l 544 331 l 544 139 l 675 139 l 675 0 l 254 0 l 254 139 l 386 139 l 386 329 l 117 678 l 8 678 l 8 818 m 219 1101 l 558 978 l 538 915 l 185 971 l 219 1101 z "},"Ỷ":{"ha":921,"x_min":8,"x_max":913,"o":"m 8 818 l 386 818 l 386 678 l 296 678 l 471 442 l 644 678 l 553 678 l 553 818 l 913 818 l 913 678 l 813 678 l 544 331 l 544 139 l 675 139 l 675 0 l 254 0 l 254 139 l 386 139 l 386 329 l 117 678 l 8 678 l 8 818 m 433 932 q 473 976 458 953 q 488 1019 488 999 q 476 1049 488 1038 q 443 1061 464 1061 q 371 1021 408 1061 l 310 1089 q 463 1167 379 1167 q 557 1133 522 1167 q 592 1047 592 1100 q 565 961 592 1004 q 485 883 538 918 l 433 932 z "},"Ȳ":{"ha":921,"x_min":8,"x_max":913,"o":"m 8 818 l 386 818 l 386 678 l 296 678 l 471 442 l 644 678 l 553 678 l 553 818 l 913 818 l 913 678 l 813 678 l 544 331 l 544 139 l 675 139 l 675 0 l 254 0 l 254 139 l 386 139 l 386 329 l 117 678 l 8 678 l 8 818 m 226 1056 l 690 1056 l 690 950 l 226 950 l 226 1056 z "},"Ỹ":{"ha":921,"x_min":8,"x_max":913,"o":"m 8 818 l 386 818 l 386 678 l 296 678 l 471 442 l 644 678 l 553 678 l 553 818 l 913 818 l 913 678 l 813 678 l 544 331 l 544 139 l 675 139 l 675 0 l 254 0 l 254 139 l 386 139 l 386 329 l 117 678 l 8 678 l 8 818 m 226 1021 q 310 1073 275 1058 q 393 1088 346 1088 q 444 1080 421 1088 q 496 1057 468 1072 q 538 1038 521 1044 q 574 1032 556 1032 q 622 1040 601 1032 q 682 1074 643 1049 l 719 985 q 643 931 678 947 q 560 915 608 915 q 520 922 539 915 q 474 943 501 929 q 427 965 447 957 q 385 972 407 972 q 342 966 361 972 q 299 949 322 960 q 267 933 276 938 l 226 1021 z "},"Z":{"ha":788,"x_min":44,"x_max":743,"o":"m 86 818 l 706 818 l 706 717 l 276 140 l 561 140 l 610 274 l 743 229 l 665 0 l 65 0 l 65 111 l 488 678 l 208 678 l 182 556 l 44 575 l 86 818 z "},"Ź":{"ha":788,"x_min":44,"x_max":743,"o":"m 86 818 l 706 818 l 706 717 l 276 140 l 561 140 l 610 274 l 743 229 l 665 0 l 65 0 l 65 111 l 488 678 l 208 678 l 182 556 l 44 575 l 86 818 m 613 1100 l 649 968 l 297 914 l 275 976 l 613 1100 z "},"Ž":{"ha":788,"x_min":44,"x_max":743,"o":"m 86 818 l 706 818 l 706 717 l 276 140 l 561 140 l 610 274 l 743 229 l 665 0 l 65 0 l 65 111 l 488 678 l 208 678 l 182 556 l 44 575 l 86 818 m 399 892 l 165 1051 l 211 1121 l 400 1017 l 578 1121 l 626 1051 l 399 892 z "},"Ż":{"ha":788,"x_min":44,"x_max":743,"o":"m 86 818 l 706 818 l 706 717 l 276 140 l 561 140 l 610 274 l 743 229 l 665 0 l 65 0 l 65 111 l 488 678 l 208 678 l 182 556 l 44 575 l 86 818 m 396 1119 q 465 1093 439 1119 q 492 1024 492 1067 q 465 954 492 981 q 396 928 439 928 q 327 954 353 928 q 301 1024 301 981 q 327 1093 301 1067 q 396 1119 353 1119 z "},"Ẓ":{"ha":788,"x_min":44,"x_max":743,"o":"m 86 818 l 706 818 l 706 717 l 276 140 l 561 140 l 610 274 l 743 229 l 665 0 l 65 0 l 65 111 l 488 678 l 208 678 l 182 556 l 44 575 l 86 818 m 396 -81 q 465 -107 439 -81 q 492 -176 492 -133 q 465 -246 492 -219 q 396 -272 439 -272 q 327 -246 353 -272 q 301 -176 301 -219 q 327 -107 301 -133 q 396 -81 353 -81 z "},"a":{"ha":765,"x_min":51,"x_max":736,"o":"m 514 28 q 315 -26 414 -26 q 119 24 186 -26 q 51 172 51 75 q 116 315 51 267 q 306 363 181 363 l 461 363 q 428 485 461 443 q 336 526 394 526 q 225 510 278 526 l 213 442 l 82 460 l 107 607 q 340 647 219 647 q 548 575 476 647 q 619 365 619 503 l 619 135 l 736 97 l 693 -33 l 514 28 m 310 260 q 238 237 263 260 q 213 171 213 214 q 321 92 213 92 q 461 132 397 92 l 461 258 l 310 260 z "},"á":{"ha":765,"x_min":51,"x_max":736,"o":"m 514 28 q 315 -26 414 -26 q 119 24 186 -26 q 51 172 51 75 q 116 315 51 267 q 306 363 181 363 l 461 363 q 428 485 461 443 q 336 526 394 526 q 225 510 278 526 l 213 442 l 82 460 l 107 607 q 340 647 219 647 q 548 575 476 647 q 619 365 619 503 l 619 135 l 736 97 l 693 -33 l 514 28 m 310 260 q 238 237 263 260 q 213 171 213 214 q 321 92 213 92 q 461 132 397 92 l 461 258 l 310 260 m 464 1040 l 571 961 l 351 707 l 283 753 l 464 1040 z "},"ă":{"ha":765,"x_min":51,"x_max":736,"o":"m 514 28 q 315 -26 414 -26 q 119 24 186 -26 q 51 172 51 75 q 116 315 51 267 q 306 363 181 363 l 461 363 q 428 485 461 443 q 336 526 394 526 q 225 510 278 526 l 213 442 l 82 460 l 107 607 q 340 647 219 647 q 548 575 476 647 q 619 365 619 503 l 619 135 l 736 97 l 693 -33 l 514 28 m 310 260 q 238 237 263 260 q 213 171 213 214 q 321 92 213 92 q 461 132 397 92 l 461 258 l 310 260 m 343 717 q 178 766 239 717 q 103 911 117 815 l 211 926 q 249 848 215 875 q 343 821 282 821 q 440 848 406 821 q 478 926 475 875 l 586 911 q 511 766 572 815 q 343 717 450 717 z "},"ắ":{"ha":765,"x_min":51,"x_max":736,"o":"m 514 28 q 315 -26 414 -26 q 119 24 186 -26 q 51 172 51 75 q 116 315 51 267 q 306 363 181 363 l 461 363 q 428 485 461 443 q 336 526 394 526 q 225 510 278 526 l 213 442 l 82 460 l 107 607 q 340 647 219 647 q 548 575 476 647 q 619 365 619 503 l 619 135 l 736 97 l 693 -33 l 514 28 m 310 260 q 238 237 263 260 q 213 171 213 214 q 321 92 213 92 q 461 132 397 92 l 461 258 l 310 260 m 424 1161 l 531 1082 l 363 892 l 294 939 l 424 1161 m 343 717 q 178 766 239 717 q 103 911 117 815 l 211 926 q 249 848 215 875 q 343 821 282 821 q 440 848 406 821 q 478 926 475 875 l 586 911 q 511 766 572 815 q 343 717 450 717 z "},"ặ":{"ha":765,"x_min":51,"x_max":736,"o":"m 514 28 q 315 -26 414 -26 q 119 24 186 -26 q 51 172 51 75 q 116 315 51 267 q 306 363 181 363 l 461 363 q 428 485 461 443 q 336 526 394 526 q 225 510 278 526 l 213 442 l 82 460 l 107 607 q 340 647 219 647 q 548 575 476 647 q 619 365 619 503 l 619 135 l 736 97 l 693 -33 l 514 28 m 310 260 q 238 237 263 260 q 213 171 213 214 q 321 92 213 92 q 461 132 397 92 l 461 258 l 310 260 m 376 -81 q 446 -107 419 -81 q 472 -176 472 -133 q 446 -246 472 -219 q 376 -272 419 -272 q 308 -246 333 -272 q 282 -176 282 -219 q 308 -107 282 -133 q 376 -81 333 -81 m 343 717 q 178 766 239 717 q 103 911 117 815 l 211 926 q 249 848 215 875 q 343 821 282 821 q 440 848 406 821 q 478 926 475 875 l 586 911 q 511 766 572 815 q 343 717 450 717 z "},"ằ":{"ha":765,"x_min":51,"x_max":736,"o":"m 514 28 q 315 -26 414 -26 q 119 24 186 -26 q 51 172 51 75 q 116 315 51 267 q 306 363 181 363 l 461 363 q 428 485 461 443 q 336 526 394 526 q 225 510 278 526 l 213 442 l 82 460 l 107 607 q 340 647 219 647 q 548 575 476 647 q 619 365 619 503 l 619 135 l 736 97 l 693 -33 l 514 28 m 310 260 q 238 237 263 260 q 213 171 213 214 q 321 92 213 92 q 461 132 397 92 l 461 258 l 310 260 m 343 892 l 174 1081 l 281 1160 l 410 939 l 343 892 m 343 717 q 178 766 239 717 q 103 911 117 815 l 211 926 q 249 848 215 875 q 343 821 282 821 q 440 848 406 821 q 478 926 475 875 l 586 911 q 511 766 572 815 q 343 717 450 717 z "},"ẳ":{"ha":765,"x_min":51,"x_max":736,"o":"m 514 28 q 315 -26 414 -26 q 119 24 186 -26 q 51 172 51 75 q 116 315 51 267 q 306 363 181 363 l 461 363 q 428 485 461 443 q 336 526 394 526 q 225 510 278 526 l 213 442 l 82 460 l 107 607 q 340 647 219 647 q 548 575 476 647 q 619 365 619 503 l 619 135 l 736 97 l 693 -33 l 514 28 m 310 260 q 238 237 263 260 q 213 171 213 214 q 321 92 213 92 q 461 132 397 92 l 461 258 l 310 260 m 343 717 q 178 766 239 717 q 103 911 117 815 l 211 926 q 249 848 215 875 q 343 821 282 821 q 440 848 406 821 q 478 926 475 875 l 586 911 q 511 766 572 815 q 343 717 450 717 m 289 971 q 328 1015 314 992 q 343 1058 343 1038 q 331 1088 343 1076 q 299 1100 319 1100 q 226 1060 264 1100 l 165 1128 q 318 1206 235 1206 q 413 1172 378 1206 q 447 1086 447 1139 q 420 1000 447 1043 q 340 922 393 957 l 289 971 z "},"ẵ":{"ha":765,"x_min":51,"x_max":736,"o":"m 514 28 q 315 -26 414 -26 q 119 24 186 -26 q 51 172 51 75 q 116 315 51 267 q 306 363 181 363 l 461 363 q 428 485 461 443 q 336 526 394 526 q 225 510 278 526 l 213 442 l 82 460 l 107 607 q 340 647 219 647 q 548 575 476 647 q 619 365 619 503 l 619 135 l 736 97 l 693 -33 l 514 28 m 310 260 q 238 237 263 260 q 213 171 213 214 q 321 92 213 92 q 461 132 397 92 l 461 258 l 310 260 m 110 1069 q 184 1114 153 1101 q 257 1126 215 1126 q 304 1119 283 1126 q 358 1096 325 1111 q 436 1069 406 1069 q 485 1078 464 1069 q 544 1113 507 1088 l 563 1021 q 494 975 525 989 q 422 961 464 961 q 383 968 401 961 q 336 989 364 975 q 290 1010 310 1003 q 249 1018 271 1018 q 206 1012 224 1018 q 165 995 188 1006 q 131 979 142 985 l 110 1069 m 342 717 q 176 766 238 717 q 101 911 115 815 l 210 926 q 247 848 214 875 q 342 821 281 821 q 439 848 404 821 q 476 926 474 875 l 585 911 q 510 766 571 815 q 342 717 449 717 z "},"â":{"ha":765,"x_min":51,"x_max":736,"o":"m 514 28 q 315 -26 414 -26 q 119 24 186 -26 q 51 172 51 75 q 116 315 51 267 q 306 363 181 363 l 461 363 q 428 485 461 443 q 336 526 394 526 q 225 510 278 526 l 213 442 l 82 460 l 107 607 q 340 647 219 647 q 548 575 476 647 q 619 365 619 503 l 619 135 l 736 97 l 693 -33 l 514 28 m 310 260 q 238 237 263 260 q 213 171 213 214 q 321 92 213 92 q 461 132 397 92 l 461 258 l 310 260 m 346 938 l 574 778 l 525 708 l 347 813 l 158 708 l 113 778 l 346 938 z "},"ấ":{"ha":765,"x_min":51,"x_max":736,"o":"m 514 28 q 315 -26 414 -26 q 119 24 186 -26 q 51 172 51 75 q 116 315 51 267 q 306 363 181 363 l 461 363 q 428 485 461 443 q 336 526 394 526 q 225 510 278 526 l 213 442 l 82 460 l 107 607 q 340 647 219 647 q 548 575 476 647 q 619 365 619 503 l 619 135 l 736 97 l 693 -33 l 514 28 m 310 260 q 238 237 263 260 q 213 171 213 214 q 321 92 213 92 q 461 132 397 92 l 461 258 l 310 260 m 564 1147 l 671 1068 l 503 878 l 435 925 l 564 1147 m 346 938 l 574 778 l 525 708 l 347 813 l 158 708 l 113 778 l 346 938 z "},"ậ":{"ha":765,"x_min":51,"x_max":736,"o":"m 514 28 q 315 -26 414 -26 q 119 24 186 -26 q 51 172 51 75 q 116 315 51 267 q 306 363 181 363 l 461 363 q 428 485 461 443 q 336 526 394 526 q 225 510 278 526 l 213 442 l 82 460 l 107 607 q 340 647 219 647 q 548 575 476 647 q 619 365 619 503 l 619 135 l 736 97 l 693 -33 l 514 28 m 310 260 q 238 237 263 260 q 213 171 213 214 q 321 92 213 92 q 461 132 397 92 l 461 258 l 310 260 m 376 -81 q 446 -107 419 -81 q 472 -176 472 -133 q 446 -246 472 -219 q 376 -272 419 -272 q 308 -246 333 -272 q 282 -176 282 -219 q 308 -107 282 -133 q 376 -81 333 -81 m 346 938 l 574 778 l 525 708 l 347 813 l 158 708 l 113 778 l 346 938 z "},"ầ":{"ha":765,"x_min":51,"x_max":736,"o":"m 514 28 q 315 -26 414 -26 q 119 24 186 -26 q 51 172 51 75 q 116 315 51 267 q 306 363 181 363 l 461 363 q 428 485 461 443 q 336 526 394 526 q 225 510 278 526 l 213 442 l 82 460 l 107 607 q 340 647 219 647 q 548 575 476 647 q 619 365 619 503 l 619 135 l 736 97 l 693 -33 l 514 28 m 310 260 q 238 237 263 260 q 213 171 213 214 q 321 92 213 92 q 461 132 397 92 l 461 258 l 310 260 m 494 878 l 325 1067 l 432 1146 l 563 925 l 494 878 m 346 938 l 574 778 l 525 708 l 347 813 l 158 708 l 113 778 l 346 938 z "},"ẩ":{"ha":765,"x_min":51,"x_max":736,"o":"m 514 28 q 315 -26 414 -26 q 119 24 186 -26 q 51 172 51 75 q 116 315 51 267 q 306 363 181 363 l 461 363 q 428 485 461 443 q 336 526 394 526 q 225 510 278 526 l 213 442 l 82 460 l 107 607 q 340 647 219 647 q 548 575 476 647 q 619 365 619 503 l 619 135 l 736 97 l 693 -33 l 514 28 m 310 260 q 238 237 263 260 q 213 171 213 214 q 321 92 213 92 q 461 132 397 92 l 461 258 l 310 260 m 346 938 l 574 778 l 525 708 l 347 813 l 158 708 l 113 778 l 346 938 m 469 903 q 509 947 494 924 q 524 990 524 969 q 512 1020 524 1008 q 479 1032 500 1032 q 407 992 444 1032 l 346 1060 q 499 1138 415 1138 q 593 1104 558 1138 q 628 1018 628 1071 q 601 932 628 975 q 521 854 574 889 l 469 903 z "},"ẫ":{"ha":765,"x_min":51,"x_max":736,"o":"m 514 28 q 315 -26 414 -26 q 119 24 186 -26 q 51 172 51 75 q 116 315 51 267 q 306 363 181 363 l 461 363 q 428 485 461 443 q 336 526 394 526 q 225 510 278 526 l 213 442 l 82 460 l 107 607 q 340 647 219 647 q 548 575 476 647 q 619 365 619 503 l 619 135 l 736 97 l 693 -33 l 514 28 m 310 260 q 238 237 263 260 q 213 171 213 214 q 321 92 213 92 q 461 132 397 92 l 461 258 l 310 260 m 115 1074 q 190 1118 160 1106 q 261 1131 219 1131 q 312 1122 289 1131 q 364 1099 335 1114 q 406 1080 389 1086 q 442 1074 424 1074 q 491 1083 469 1074 q 550 1117 513 1092 l 567 1025 q 500 979 531 993 q 428 965 469 965 q 388 972 407 965 q 342 993 369 979 q 296 1015 315 1007 q 254 1022 276 1022 q 210 1016 229 1022 q 167 999 190 1010 q 135 983 144 988 l 115 1074 m 346 938 l 574 778 l 525 708 l 347 813 l 158 708 l 113 778 l 346 938 z "},"ȁ":{"ha":765,"x_min":-31,"x_max":736,"o":"m 514 28 q 315 -26 414 -26 q 119 24 186 -26 q 51 172 51 75 q 116 315 51 267 q 306 363 181 363 l 461 363 q 428 485 461 443 q 336 526 394 526 q 225 510 278 526 l 213 442 l 82 460 l 107 607 q 340 647 219 647 q 548 575 476 647 q 619 365 619 503 l 619 135 l 736 97 l 693 -33 l 514 28 m 310 260 q 238 237 263 260 q 213 171 213 214 q 321 92 213 92 q 461 132 397 92 l 461 258 l 310 260 m 332 1040 l 511 753 l 444 707 l 224 961 l 332 1040 m 58 1011 l 290 765 l 233 707 l -31 915 l 58 1011 z "},"ä":{"ha":765,"x_min":51,"x_max":736,"o":"m 514 28 q 315 -26 414 -26 q 119 24 186 -26 q 51 172 51 75 q 116 315 51 267 q 306 363 181 363 l 461 363 q 428 485 461 443 q 336 526 394 526 q 225 510 278 526 l 213 442 l 82 460 l 107 607 q 340 647 219 647 q 548 575 476 647 q 619 365 619 503 l 619 135 l 736 97 l 693 -33 l 514 28 m 310 260 q 238 237 263 260 q 213 171 213 214 q 321 92 213 92 q 461 132 397 92 l 461 258 l 310 260 m 211 914 q 277 885 249 914 q 306 818 306 857 q 277 751 306 779 q 211 724 249 724 q 144 751 172 724 q 115 818 115 779 q 144 885 115 857 q 211 914 172 914 m 476 914 q 542 885 514 914 q 571 818 571 857 q 542 751 571 779 q 476 724 514 724 q 409 751 438 724 q 381 818 381 779 q 409 885 381 857 q 476 914 438 914 z "},"ạ":{"ha":765,"x_min":51,"x_max":736,"o":"m 514 28 q 315 -26 414 -26 q 119 24 186 -26 q 51 172 51 75 q 116 315 51 267 q 306 363 181 363 l 461 363 q 428 485 461 443 q 336 526 394 526 q 225 510 278 526 l 213 442 l 82 460 l 107 607 q 340 647 219 647 q 548 575 476 647 q 619 365 619 503 l 619 135 l 736 97 l 693 -33 l 514 28 m 310 260 q 238 237 263 260 q 213 171 213 214 q 321 92 213 92 q 461 132 397 92 l 461 258 l 310 260 m 376 -81 q 446 -107 419 -81 q 472 -176 472 -133 q 446 -246 472 -219 q 376 -272 419 -272 q 308 -246 333 -272 q 282 -176 282 -219 q 308 -107 282 -133 q 376 -81 333 -81 z "},"à":{"ha":765,"x_min":51,"x_max":736,"o":"m 514 28 q 315 -26 414 -26 q 119 24 186 -26 q 51 172 51 75 q 116 315 51 267 q 306 363 181 363 l 461 363 q 428 485 461 443 q 336 526 394 526 q 225 510 278 526 l 213 442 l 82 460 l 107 607 q 340 647 219 647 q 548 575 476 647 q 619 365 619 503 l 619 135 l 736 97 l 693 -33 l 514 28 m 310 260 q 238 237 263 260 q 213 171 213 214 q 321 92 213 92 q 461 132 397 92 l 461 258 l 310 260 m 344 707 l 124 961 l 232 1040 l 411 753 l 344 707 z "},"ả":{"ha":765,"x_min":51,"x_max":736,"o":"m 514 28 q 315 -26 414 -26 q 119 24 186 -26 q 51 172 51 75 q 116 315 51 267 q 306 363 181 363 l 461 363 q 428 485 461 443 q 336 526 394 526 q 225 510 278 526 l 213 442 l 82 460 l 107 607 q 340 647 219 647 q 548 575 476 647 q 619 365 619 503 l 619 135 l 736 97 l 693 -33 l 514 28 m 310 260 q 238 237 263 260 q 213 171 213 214 q 321 92 213 92 q 461 132 397 92 l 461 258 l 310 260 m 318 735 q 358 778 343 756 q 372 822 372 801 q 360 852 372 840 q 328 864 349 864 q 256 824 293 864 l 194 892 q 347 969 264 969 q 442 936 407 969 q 476 850 476 903 q 449 764 476 807 q 369 686 422 721 l 318 735 z "},"ȃ":{"ha":765,"x_min":51,"x_max":736,"o":"m 514 28 q 315 -26 414 -26 q 119 24 186 -26 q 51 172 51 75 q 116 315 51 267 q 306 363 181 363 l 461 363 q 428 485 461 443 q 336 526 394 526 q 225 510 278 526 l 213 442 l 82 460 l 107 607 q 340 647 219 647 q 548 575 476 647 q 619 365 619 503 l 619 135 l 736 97 l 693 -33 l 514 28 m 310 260 q 238 237 263 260 q 213 171 213 214 q 321 92 213 92 q 461 132 397 92 l 461 258 l 310 260 m 343 940 q 511 891 450 940 q 586 746 572 842 l 478 731 q 440 809 475 782 q 343 836 406 836 q 249 809 282 836 q 211 731 215 782 l 103 746 q 178 891 117 842 q 343 940 239 940 z "},"ā":{"ha":765,"x_min":51,"x_max":736,"o":"m 514 28 q 315 -26 414 -26 q 119 24 186 -26 q 51 172 51 75 q 116 315 51 267 q 306 363 181 363 l 461 363 q 428 485 461 443 q 336 526 394 526 q 225 510 278 526 l 213 442 l 82 460 l 107 607 q 340 647 219 647 q 548 575 476 647 q 619 365 619 503 l 619 135 l 736 97 l 693 -33 l 514 28 m 310 260 q 238 237 263 260 q 213 171 213 214 q 321 92 213 92 q 461 132 397 92 l 461 258 l 310 260 m 111 858 l 575 858 l 575 753 l 111 753 l 111 858 z "},"ą":{"ha":765,"x_min":51,"x_max":736,"o":"m 576 -185 q 599 -233 576 -215 q 660 -251 622 -251 q 728 -237 694 -251 l 728 -337 q 604 -364 668 -364 q 475 -327 522 -364 q 428 -233 428 -290 q 473 -108 428 -164 q 614 -7 518 -51 l 514 28 q 315 -26 414 -26 q 119 24 186 -26 q 51 172 51 75 q 116 315 51 267 q 306 363 181 363 l 461 363 q 428 485 461 443 q 336 526 394 526 q 225 510 278 526 l 213 442 l 82 460 l 107 607 q 340 647 219 647 q 548 575 476 647 q 619 365 619 503 l 619 135 l 736 97 l 693 -33 q 603 -103 631 -65 q 576 -185 576 -140 m 461 258 l 310 260 q 238 237 263 260 q 213 171 213 214 q 321 92 213 92 q 461 132 397 92 l 461 258 z "},"å":{"ha":765,"x_min":51,"x_max":736,"o":"m 514 28 q 315 -26 414 -26 q 119 24 186 -26 q 51 172 51 75 q 116 315 51 267 q 306 363 181 363 l 461 363 q 428 485 461 443 q 336 526 394 526 q 225 510 278 526 l 213 442 l 82 460 l 107 607 q 340 647 219 647 q 548 575 476 647 q 619 365 619 503 l 619 135 l 736 97 l 693 -33 l 514 28 m 310 260 q 238 237 263 260 q 213 171 213 214 q 321 92 213 92 q 461 132 397 92 l 461 258 l 310 260 m 343 1010 q 448 970 408 1010 q 488 865 488 931 q 448 760 488 800 q 343 721 408 721 q 238 760 278 721 q 199 865 199 800 q 238 970 199 931 q 343 1010 278 1010 m 343 933 q 293 915 313 933 q 274 865 274 896 q 293 816 274 835 q 343 797 313 797 q 392 816 374 797 q 411 865 411 835 q 392 915 411 896 q 343 933 374 933 z "},"ǻ":{"ha":765,"x_min":51,"x_max":736,"o":"m 514 28 q 315 -26 414 -26 q 119 24 186 -26 q 51 172 51 75 q 116 315 51 267 q 306 363 181 363 l 461 363 q 428 485 461 443 q 336 526 394 526 q 225 510 278 526 l 213 442 l 82 460 l 107 607 q 340 647 219 647 q 548 575 476 647 q 619 365 619 503 l 619 135 l 736 97 l 693 -33 l 514 28 m 310 260 q 238 237 263 260 q 213 171 213 214 q 321 92 213 92 q 461 132 397 92 l 461 258 l 310 260 m 343 1010 q 448 970 408 1010 q 488 865 488 931 q 448 760 488 800 q 343 721 408 721 q 238 760 278 721 q 199 865 199 800 q 238 970 199 931 q 343 1010 278 1010 m 343 933 q 293 915 313 933 q 274 865 274 896 q 293 816 274 835 q 343 797 313 797 q 392 816 374 797 q 411 865 411 835 q 392 915 411 896 q 343 933 374 933 m 464 1428 l 571 1349 l 351 1094 l 283 1140 l 464 1428 z "},"ã":{"ha":765,"x_min":51,"x_max":736,"o":"m 514 28 q 315 -26 414 -26 q 119 24 186 -26 q 51 172 51 75 q 116 315 51 267 q 306 363 181 363 l 461 363 q 428 485 461 443 q 336 526 394 526 q 225 510 278 526 l 213 442 l 82 460 l 107 607 q 340 647 219 647 q 548 575 476 647 q 619 365 619 503 l 619 135 l 736 97 l 693 -33 l 514 28 m 310 260 q 238 237 263 260 q 213 171 213 214 q 321 92 213 92 q 461 132 397 92 l 461 258 l 310 260 m 111 824 q 195 876 160 861 q 278 890 231 890 q 329 883 306 890 q 381 860 353 875 q 423 841 406 847 q 458 835 440 835 q 507 843 486 835 q 567 876 528 851 l 604 788 q 528 734 563 750 q 444 718 493 718 q 405 725 424 718 q 358 746 386 732 q 312 767 332 760 q 269 775 292 775 q 226 769 246 775 q 184 751 207 763 q 151 736 161 740 l 111 824 z "},"æ":{"ha":1113,"x_min":51,"x_max":1060,"o":"m 107 592 q 214 625 163 614 q 326 636 265 636 q 477 603 419 636 q 556 513 535 569 q 661 604 600 572 q 790 636 722 636 q 926 597 867 636 q 1019 490 986 558 q 1051 338 1051 422 q 1044 261 1051 306 l 613 260 q 669 140 622 183 q 788 97 715 97 q 992 163 904 97 l 1060 74 q 1023 42 1057 67 q 928 -6 989 17 q 786 -28 867 -28 q 658 -10 714 -28 q 557 50 601 8 q 444 -3 514 21 q 317 -28 374 -28 q 122 25 193 -28 q 51 169 51 78 q 122 323 51 274 q 307 372 193 372 l 472 372 q 444 467 472 436 q 332 499 417 499 q 225 488 297 499 l 214 418 l 81 443 l 107 592 m 918 378 q 883 473 917 439 q 781 507 850 507 q 672 473 715 507 q 615 376 629 439 l 918 378 m 311 256 q 213 171 213 256 q 244 117 213 135 q 322 99 275 99 q 415 115 364 99 q 496 149 467 131 q 471 256 475 203 l 311 256 z "},"ǽ":{"ha":1113,"x_min":51,"x_max":1060,"o":"m 107 592 q 214 625 163 614 q 326 636 265 636 q 477 603 419 636 q 556 513 535 569 q 661 604 600 572 q 790 636 722 636 q 926 597 867 636 q 1019 490 986 558 q 1051 338 1051 422 q 1044 261 1051 306 l 613 260 q 669 140 622 183 q 788 97 715 97 q 992 163 904 97 l 1060 74 q 1023 42 1057 67 q 928 -6 989 17 q 786 -28 867 -28 q 658 -10 714 -28 q 557 50 601 8 q 444 -3 514 21 q 317 -28 374 -28 q 122 25 193 -28 q 51 169 51 78 q 122 323 51 274 q 307 372 193 372 l 472 372 q 444 467 472 436 q 332 499 417 499 q 225 488 297 499 l 214 418 l 81 443 l 107 592 m 918 378 q 883 473 917 439 q 781 507 850 507 q 672 473 715 507 q 615 376 629 439 l 918 378 m 311 256 q 213 171 213 256 q 244 117 213 135 q 322 99 275 99 q 415 115 364 99 q 496 149 467 131 q 471 256 475 203 l 311 256 m 686 1040 l 793 961 l 574 707 l 506 753 l 686 1040 z "},"b":{"ha":761,"x_min":-47,"x_max":704,"o":"m 378 -26 q 90 51 210 -26 l 90 753 l -47 800 l -1 933 l 247 847 l 247 606 q 399 647 318 647 q 704 317 704 647 q 378 -26 704 -26 m 376 100 q 543 317 543 100 q 397 518 543 518 q 247 472 307 518 l 247 124 q 376 100 303 100 z "},"c":{"ha":690,"x_min":54,"x_max":642,"o":"m 486 513 q 392 526 436 526 q 260 471 306 526 q 215 306 215 415 q 264 156 215 211 q 388 101 313 101 q 578 169 482 101 l 642 75 q 517 -2 574 22 q 383 -26 460 -26 q 142 60 231 -26 q 54 306 54 146 q 142 560 54 472 q 390 649 231 649 q 604 608 488 649 l 639 429 l 506 400 l 486 513 z "},"ć":{"ha":690,"x_min":54,"x_max":642,"o":"m 486 513 q 392 526 436 526 q 260 471 306 526 q 215 306 215 415 q 264 156 215 211 q 388 101 313 101 q 578 169 482 101 l 642 75 q 517 -2 574 22 q 383 -26 460 -26 q 142 60 231 -26 q 54 306 54 146 q 142 560 54 472 q 390 649 231 649 q 604 608 488 649 l 639 429 l 506 400 l 486 513 m 510 1040 l 617 961 l 397 707 l 329 753 l 510 1040 z "},"č":{"ha":690,"x_min":54,"x_max":642,"o":"m 486 513 q 392 526 436 526 q 260 471 306 526 q 215 306 215 415 q 264 156 215 211 q 388 101 313 101 q 578 169 482 101 l 642 75 q 517 -2 574 22 q 383 -26 460 -26 q 142 60 231 -26 q 54 306 54 146 q 142 560 54 472 q 390 649 231 649 q 604 608 488 649 l 639 429 l 506 400 l 486 513 m 392 694 l 158 854 l 204 924 l 393 819 l 571 924 l 619 854 l 392 694 z "},"ç":{"ha":690,"x_min":54,"x_max":642,"o":"m 435 -71 q 567 -97 524 -68 q 610 -190 610 -126 q 560 -292 610 -257 q 432 -326 510 -326 q 338 -308 378 -326 q 258 -264 297 -290 l 303 -197 q 431 -237 367 -237 q 476 -223 461 -237 q 490 -183 490 -208 q 417 -139 490 -139 l 336 -139 l 336 -24 q 129 74 204 -11 q 54 306 54 158 q 142 560 54 472 q 390 649 231 649 q 604 608 488 649 l 639 429 l 506 400 l 486 513 q 392 526 436 526 q 260 471 306 526 q 215 306 215 415 q 264 156 215 211 q 388 101 313 101 q 578 169 482 101 l 642 75 q 539 8 586 32 q 435 -24 492 -15 l 435 -71 z "},"ḉ":{"ha":690,"x_min":54,"x_max":642,"o":"m 617 961 l 397 707 l 329 753 l 510 1040 l 617 961 m 435 -71 q 567 -97 524 -68 q 610 -190 610 -126 q 560 -292 610 -257 q 432 -326 510 -326 q 338 -308 378 -326 q 258 -264 297 -290 l 303 -197 q 431 -237 367 -237 q 476 -223 461 -237 q 490 -183 490 -208 q 417 -139 490 -139 l 336 -139 l 336 -24 q 129 74 204 -11 q 54 306 54 158 q 142 560 54 472 q 390 649 231 649 q 604 608 488 649 l 639 429 l 506 400 l 486 513 q 392 526 436 526 q 260 471 306 526 q 215 306 215 415 q 264 156 215 211 q 388 101 313 101 q 578 169 482 101 l 642 75 q 539 8 586 32 q 435 -24 492 -15 l 435 -71 z "},"ĉ":{"ha":690,"x_min":54,"x_max":642,"o":"m 486 513 q 392 526 436 526 q 260 471 306 526 q 215 306 215 415 q 264 156 215 211 q 388 101 313 101 q 578 169 482 101 l 642 75 q 517 -2 574 22 q 383 -26 460 -26 q 142 60 231 -26 q 54 306 54 146 q 142 560 54 472 q 390 649 231 649 q 604 608 488 649 l 639 429 l 506 400 l 486 513 m 392 938 l 619 778 l 571 708 l 393 813 l 204 708 l 158 778 l 392 938 z "},"ċ":{"ha":690,"x_min":54,"x_max":642,"o":"m 486 513 q 392 526 436 526 q 260 471 306 526 q 215 306 215 415 q 264 156 215 211 q 388 101 313 101 q 578 169 482 101 l 642 75 q 517 -2 574 22 q 383 -26 460 -26 q 142 60 231 -26 q 54 306 54 146 q 142 560 54 472 q 390 649 231 649 q 604 608 488 649 l 639 429 l 506 400 l 486 513 m 389 922 q 458 896 432 922 q 485 826 485 869 q 458 757 485 783 q 389 731 432 731 q 320 757 346 731 q 294 826 294 783 q 320 896 294 869 q 389 922 346 922 z "},"d":{"ha":817,"x_min":56,"x_max":789,"o":"m 568 28 q 481 -12 531 3 q 383 -26 432 -26 q 142 65 228 -26 q 56 317 56 156 q 142 560 56 472 q 383 647 228 647 q 513 624 439 647 l 513 753 l 375 800 l 419 933 l 669 847 l 669 142 l 789 101 l 746 -33 l 568 28 m 385 100 q 449 110 414 100 q 513 136 485 119 l 513 492 q 453 511 488 504 q 385 518 418 518 q 262 463 308 518 q 215 317 215 407 q 262 160 215 219 q 385 100 308 100 z "},"ð":{"ha":769,"x_min":50,"x_max":708,"o":"m 442 814 q 635 625 564 744 q 708 365 707 506 q 617 69 708 165 q 379 -28 526 -28 q 144 54 238 -28 q 50 306 50 136 q 94 462 50 394 q 210 565 139 529 q 357 600 281 600 q 510 571 454 600 q 360 724 456 663 l 300 658 l 218 733 l 258 781 q 142 828 211 803 l 169 926 q 264 898 219 913 q 339 868 308 883 l 404 940 l 486 863 l 442 814 m 388 489 q 257 438 303 489 q 211 296 211 388 q 381 100 211 100 q 508 169 464 100 q 551 346 551 238 q 538 451 551 396 q 471 479 511 469 q 388 489 431 489 z "},"ď":{"ha":817,"x_min":56,"x_max":813,"o":"m 568 28 q 481 -12 531 3 q 383 -26 432 -26 q 142 65 228 -26 q 56 317 56 156 q 142 560 56 472 q 383 647 228 647 q 513 624 439 647 l 513 753 l 375 800 l 419 933 l 669 847 l 669 142 l 789 101 l 746 -33 l 568 28 m 385 100 q 449 110 414 100 q 513 136 485 119 l 513 492 q 453 511 488 504 q 385 518 418 518 q 262 463 308 518 q 215 317 215 407 q 262 160 215 219 q 385 100 308 100 m 585 939 l 351 1099 l 397 1168 l 586 1064 l 764 1168 l 813 1099 l 585 939 z "},"đ":{"ha":817,"x_min":56,"x_max":789,"o":"m 789 101 l 746 -33 l 568 28 q 481 -12 531 3 q 383 -26 432 -26 q 142 58 228 -26 q 56 292 56 142 q 142 519 56 438 q 383 601 229 601 q 513 578 439 601 l 513 642 l 328 642 l 328 726 l 513 726 l 513 753 l 375 800 l 419 933 l 669 847 l 669 726 l 782 726 l 782 642 l 669 642 l 669 142 l 789 101 m 513 444 q 451 465 486 457 q 385 472 417 472 q 262 422 308 472 q 215 293 215 372 q 262 153 215 206 q 385 100 308 100 q 451 110 417 100 q 513 136 485 119 l 513 444 z "},"ḍ":{"ha":817,"x_min":56,"x_max":789,"o":"m 568 28 q 481 -12 531 3 q 383 -26 432 -26 q 142 65 228 -26 q 56 317 56 156 q 142 560 56 472 q 383 647 228 647 q 513 624 439 647 l 513 753 l 375 800 l 419 933 l 669 847 l 669 142 l 789 101 l 746 -33 l 568 28 m 385 100 q 449 110 414 100 q 513 136 485 119 l 513 492 q 453 511 488 504 q 385 518 418 518 q 262 463 308 518 q 215 317 215 407 q 262 160 215 219 q 385 100 308 100 m 418 -81 q 488 -107 461 -81 q 514 -176 514 -133 q 488 -246 514 -219 q 418 -272 461 -272 q 349 -246 375 -272 q 324 -176 324 -219 q 349 -107 324 -133 q 418 -81 375 -81 z "},"ḏ":{"ha":817,"x_min":56,"x_max":789,"o":"m 568 28 q 481 -12 531 3 q 383 -26 432 -26 q 142 65 228 -26 q 56 317 56 156 q 142 560 56 472 q 383 647 228 647 q 513 624 439 647 l 513 753 l 375 800 l 419 933 l 669 847 l 669 142 l 789 101 l 746 -33 l 568 28 m 385 100 q 449 110 414 100 q 513 136 485 119 l 513 492 q 453 511 488 504 q 385 518 418 518 q 262 463 308 518 q 215 317 215 407 q 262 160 215 219 q 385 100 308 100 m 192 -76 l 647 -76 l 647 -182 l 192 -182 l 192 -76 z "},"e":{"ha":724,"x_min":49,"x_max":686,"o":"m 658 76 q 396 -26 538 -26 q 213 16 292 -26 q 92 134 135 58 q 49 308 49 210 q 89 485 49 408 q 203 605 129 563 q 371 647 276 647 q 537 608 465 647 q 647 499 608 569 q 686 335 686 428 q 679 257 686 299 l 201 257 q 262 139 207 179 q 396 99 317 99 q 603 171 511 99 l 658 76 m 529 365 q 486 477 528 435 q 375 519 444 519 q 258 476 307 519 q 204 365 210 433 l 529 365 z "},"é":{"ha":724,"x_min":49,"x_max":686,"o":"m 658 76 q 396 -26 538 -26 q 213 16 292 -26 q 92 134 135 58 q 49 308 49 210 q 89 485 49 408 q 203 605 129 563 q 371 647 276 647 q 537 608 465 647 q 647 499 608 569 q 686 335 686 428 q 679 257 686 299 l 201 257 q 262 139 207 179 q 396 99 317 99 q 603 171 511 99 l 658 76 m 529 365 q 486 477 528 435 q 375 519 444 519 q 258 476 307 519 q 204 365 210 433 l 529 365 m 486 1040 l 593 961 l 374 707 l 306 753 l 486 1040 z "},"ĕ":{"ha":724,"x_min":49,"x_max":686,"o":"m 658 76 q 396 -26 538 -26 q 213 16 292 -26 q 92 134 135 58 q 49 308 49 210 q 89 485 49 408 q 203 605 129 563 q 371 647 276 647 q 537 608 465 647 q 647 499 608 569 q 686 335 686 428 q 679 257 686 299 l 201 257 q 262 139 207 179 q 396 99 317 99 q 603 171 511 99 l 658 76 m 529 365 q 486 477 528 435 q 375 519 444 519 q 258 476 307 519 q 204 365 210 433 l 529 365 m 365 717 q 200 766 261 717 q 125 911 139 815 l 233 926 q 271 848 238 875 q 365 821 304 821 q 463 848 428 821 q 500 926 497 875 l 608 911 q 533 766 594 815 q 365 717 472 717 z "},"ě":{"ha":724,"x_min":49,"x_max":686,"o":"m 658 76 q 396 -26 538 -26 q 213 16 292 -26 q 92 134 135 58 q 49 308 49 210 q 89 485 49 408 q 203 605 129 563 q 371 647 276 647 q 537 608 465 647 q 647 499 608 569 q 686 335 686 428 q 679 257 686 299 l 201 257 q 262 139 207 179 q 396 99 317 99 q 603 171 511 99 l 658 76 m 529 365 q 486 477 528 435 q 375 519 444 519 q 258 476 307 519 q 204 365 210 433 l 529 365 m 368 694 l 135 854 l 181 924 l 369 819 l 547 924 l 596 854 l 368 694 z "},"ḝ":{"ha":724,"x_min":49,"x_max":686,"o":"m 365 717 q 200 766 261 717 q 125 911 139 815 l 233 926 q 271 848 238 875 q 365 821 304 821 q 463 848 428 821 q 500 926 497 875 l 608 911 q 533 766 594 815 q 365 717 472 717 m 686 335 q 679 257 686 299 l 201 257 q 262 139 207 179 q 396 99 317 99 q 603 171 511 99 l 658 76 q 460 -21 565 -1 l 460 -71 q 592 -97 549 -68 q 635 -190 635 -126 q 585 -292 635 -257 q 457 -326 535 -326 q 363 -308 403 -326 q 283 -264 322 -290 l 328 -197 q 456 -237 392 -237 q 501 -223 486 -237 q 515 -183 515 -208 q 442 -139 515 -139 l 361 -139 l 361 -25 q 133 76 218 -15 q 49 308 49 167 q 89 485 49 408 q 203 605 129 563 q 371 647 276 647 q 537 608 465 647 q 647 499 608 569 q 686 335 686 428 m 529 365 q 486 477 528 435 q 375 519 444 519 q 258 476 307 519 q 204 365 210 433 l 529 365 z "},"ê":{"ha":724,"x_min":49,"x_max":686,"o":"m 658 76 q 396 -26 538 -26 q 213 16 292 -26 q 92 134 135 58 q 49 308 49 210 q 89 485 49 408 q 203 605 129 563 q 371 647 276 647 q 537 608 465 647 q 647 499 608 569 q 686 335 686 428 q 679 257 686 299 l 201 257 q 262 139 207 179 q 396 99 317 99 q 603 171 511 99 l 658 76 m 529 365 q 486 477 528 435 q 375 519 444 519 q 258 476 307 519 q 204 365 210 433 l 529 365 m 368 938 l 596 778 l 547 708 l 369 813 l 181 708 l 135 778 l 368 938 z "},"ế":{"ha":724,"x_min":49,"x_max":693,"o":"m 658 76 q 396 -26 538 -26 q 213 16 292 -26 q 92 134 135 58 q 49 308 49 210 q 89 485 49 408 q 203 605 129 563 q 371 647 276 647 q 537 608 465 647 q 647 499 608 569 q 686 335 686 428 q 679 257 686 299 l 201 257 q 262 139 207 179 q 396 99 317 99 q 603 171 511 99 l 658 76 m 529 365 q 486 477 528 435 q 375 519 444 519 q 258 476 307 519 q 204 365 210 433 l 529 365 m 586 1147 l 693 1068 l 525 878 l 457 925 l 586 1147 m 368 938 l 596 778 l 547 708 l 369 813 l 181 708 l 135 778 l 368 938 z "},"ệ":{"ha":724,"x_min":49,"x_max":686,"o":"m 658 76 q 396 -26 538 -26 q 213 16 292 -26 q 92 134 135 58 q 49 308 49 210 q 89 485 49 408 q 203 605 129 563 q 371 647 276 647 q 537 608 465 647 q 647 499 608 569 q 686 335 686 428 q 679 257 686 299 l 201 257 q 262 139 207 179 q 396 99 317 99 q 603 171 511 99 l 658 76 m 529 365 q 486 477 528 435 q 375 519 444 519 q 258 476 307 519 q 204 365 210 433 l 529 365 m 360 -81 q 429 -107 403 -81 q 456 -176 456 -133 q 429 -246 456 -219 q 360 -272 403 -272 q 291 -246 317 -272 q 265 -176 265 -219 q 291 -107 265 -133 q 360 -81 317 -81 m 368 938 l 596 778 l 547 708 l 369 813 l 181 708 l 135 778 l 368 938 z "},"ề":{"ha":724,"x_min":49,"x_max":686,"o":"m 658 76 q 396 -26 538 -26 q 213 16 292 -26 q 92 134 135 58 q 49 308 49 210 q 89 485 49 408 q 203 605 129 563 q 371 647 276 647 q 537 608 465 647 q 647 499 608 569 q 686 335 686 428 q 679 257 686 299 l 201 257 q 262 139 207 179 q 396 99 317 99 q 603 171 511 99 l 658 76 m 529 365 q 486 477 528 435 q 375 519 444 519 q 258 476 307 519 q 204 365 210 433 l 529 365 m 517 878 l 347 1067 l 454 1146 l 585 925 l 517 878 m 368 938 l 596 778 l 547 708 l 369 813 l 181 708 l 135 778 l 368 938 z "},"ể":{"ha":724,"x_min":49,"x_max":686,"o":"m 658 76 q 396 -26 538 -26 q 213 16 292 -26 q 92 134 135 58 q 49 308 49 210 q 89 485 49 408 q 203 605 129 563 q 371 647 276 647 q 537 608 465 647 q 647 499 608 569 q 686 335 686 428 q 679 257 686 299 l 201 257 q 262 139 207 179 q 396 99 317 99 q 603 171 511 99 l 658 76 m 529 365 q 486 477 528 435 q 375 519 444 519 q 258 476 307 519 q 204 365 210 433 l 529 365 m 368 938 l 596 778 l 547 708 l 369 813 l 181 708 l 135 778 l 368 938 m 492 903 q 531 947 517 924 q 546 990 546 969 q 534 1020 546 1008 q 501 1032 522 1032 q 429 992 467 1032 l 368 1060 q 521 1138 438 1138 q 615 1104 581 1138 q 650 1018 650 1071 q 623 932 650 975 q 543 854 596 889 l 492 903 z "},"ễ":{"ha":724,"x_min":49,"x_max":686,"o":"m 658 76 q 396 -26 538 -26 q 213 16 292 -26 q 92 134 135 58 q 49 308 49 210 q 89 485 49 408 q 203 605 129 563 q 371 647 276 647 q 537 608 465 647 q 647 499 608 569 q 686 335 686 428 q 679 257 686 299 l 201 257 q 262 139 207 179 q 396 99 317 99 q 603 171 511 99 l 658 76 m 529 365 q 486 477 528 435 q 375 519 444 519 q 258 476 307 519 q 204 365 210 433 l 529 365 m 138 1074 q 212 1118 182 1106 q 283 1131 242 1131 q 334 1122 311 1131 q 386 1099 357 1114 q 428 1080 411 1086 q 464 1074 446 1074 q 513 1083 492 1074 q 572 1117 535 1092 l 589 1025 q 522 979 553 993 q 450 965 492 965 q 410 972 429 965 q 364 993 392 979 q 318 1015 338 1007 q 276 1022 299 1022 q 232 1016 251 1022 q 190 999 213 1010 q 157 983 167 988 l 138 1074 m 368 938 l 596 778 l 547 708 l 369 813 l 181 708 l 135 778 l 368 938 z "},"ȅ":{"ha":724,"x_min":-8,"x_max":686,"o":"m 658 76 q 396 -26 538 -26 q 213 16 292 -26 q 92 134 135 58 q 49 308 49 210 q 89 485 49 408 q 203 605 129 563 q 371 647 276 647 q 537 608 465 647 q 647 499 608 569 q 686 335 686 428 q 679 257 686 299 l 201 257 q 262 139 207 179 q 396 99 317 99 q 603 171 511 99 l 658 76 m 529 365 q 486 477 528 435 q 375 519 444 519 q 258 476 307 519 q 204 365 210 433 l 529 365 m 354 1040 l 533 753 l 467 707 l 246 961 l 354 1040 m 81 1011 l 313 765 l 256 707 l -8 915 l 81 1011 z "},"ë":{"ha":724,"x_min":49,"x_max":686,"o":"m 658 76 q 396 -26 538 -26 q 213 16 292 -26 q 92 134 135 58 q 49 308 49 210 q 89 485 49 408 q 203 605 129 563 q 371 647 276 647 q 537 608 465 647 q 647 499 608 569 q 686 335 686 428 q 679 257 686 299 l 201 257 q 262 139 207 179 q 396 99 317 99 q 603 171 511 99 l 658 76 m 529 365 q 486 477 528 435 q 375 519 444 519 q 258 476 307 519 q 204 365 210 433 l 529 365 m 233 914 q 299 885 271 914 q 328 818 328 857 q 299 751 328 779 q 233 724 271 724 q 166 751 194 724 q 138 818 138 779 q 166 885 138 857 q 233 914 194 914 m 499 914 q 565 885 536 914 q 593 818 593 857 q 565 751 593 779 q 499 724 536 724 q 431 751 460 724 q 403 818 403 779 q 431 885 403 857 q 499 914 460 914 z "},"ė":{"ha":724,"x_min":49,"x_max":686,"o":"m 658 76 q 396 -26 538 -26 q 213 16 292 -26 q 92 134 135 58 q 49 308 49 210 q 89 485 49 408 q 203 605 129 563 q 371 647 276 647 q 537 608 465 647 q 647 499 608 569 q 686 335 686 428 q 679 257 686 299 l 201 257 q 262 139 207 179 q 396 99 317 99 q 603 171 511 99 l 658 76 m 529 365 q 486 477 528 435 q 375 519 444 519 q 258 476 307 519 q 204 365 210 433 l 529 365 m 365 922 q 435 896 408 922 q 461 826 461 869 q 435 757 461 783 q 365 731 408 731 q 297 757 322 731 q 271 826 271 783 q 297 896 271 869 q 365 922 322 922 z "},"ẹ":{"ha":724,"x_min":49,"x_max":686,"o":"m 658 76 q 396 -26 538 -26 q 213 16 292 -26 q 92 134 135 58 q 49 308 49 210 q 89 485 49 408 q 203 605 129 563 q 371 647 276 647 q 537 608 465 647 q 647 499 608 569 q 686 335 686 428 q 679 257 686 299 l 201 257 q 262 139 207 179 q 396 99 317 99 q 603 171 511 99 l 658 76 m 529 365 q 486 477 528 435 q 375 519 444 519 q 258 476 307 519 q 204 365 210 433 l 529 365 m 360 -81 q 429 -107 403 -81 q 456 -176 456 -133 q 429 -246 456 -219 q 360 -272 403 -272 q 291 -246 317 -272 q 265 -176 265 -219 q 291 -107 265 -133 q 360 -81 317 -81 z "},"è":{"ha":724,"x_min":49,"x_max":686,"o":"m 658 76 q 396 -26 538 -26 q 213 16 292 -26 q 92 134 135 58 q 49 308 49 210 q 89 485 49 408 q 203 605 129 563 q 371 647 276 647 q 537 608 465 647 q 647 499 608 569 q 686 335 686 428 q 679 257 686 299 l 201 257 q 262 139 207 179 q 396 99 317 99 q 603 171 511 99 l 658 76 m 529 365 q 486 477 528 435 q 375 519 444 519 q 258 476 307 519 q 204 365 210 433 l 529 365 m 367 707 l 146 961 l 254 1040 l 433 753 l 367 707 z "},"ẻ":{"ha":724,"x_min":49,"x_max":686,"o":"m 658 76 q 396 -26 538 -26 q 213 16 292 -26 q 92 134 135 58 q 49 308 49 210 q 89 485 49 408 q 203 605 129 563 q 371 647 276 647 q 537 608 465 647 q 647 499 608 569 q 686 335 686 428 q 679 257 686 299 l 201 257 q 262 139 207 179 q 396 99 317 99 q 603 171 511 99 l 658 76 m 529 365 q 486 477 528 435 q 375 519 444 519 q 258 476 307 519 q 204 365 210 433 l 529 365 m 340 735 q 380 778 365 756 q 394 822 394 801 q 383 852 394 840 q 350 864 371 864 q 278 824 315 864 l 217 892 q 369 969 286 969 q 464 936 429 969 q 499 850 499 903 q 472 764 499 807 q 392 686 444 721 l 340 735 z "},"ȇ":{"ha":724,"x_min":49,"x_max":686,"o":"m 658 76 q 396 -26 538 -26 q 213 16 292 -26 q 92 134 135 58 q 49 308 49 210 q 89 485 49 408 q 203 605 129 563 q 371 647 276 647 q 537 608 465 647 q 647 499 608 569 q 686 335 686 428 q 679 257 686 299 l 201 257 q 262 139 207 179 q 396 99 317 99 q 603 171 511 99 l 658 76 m 529 365 q 486 477 528 435 q 375 519 444 519 q 258 476 307 519 q 204 365 210 433 l 529 365 m 365 940 q 533 891 472 940 q 608 746 594 842 l 500 731 q 463 809 497 782 q 365 836 428 836 q 271 809 304 836 q 233 731 238 782 l 125 746 q 200 891 139 842 q 365 940 261 940 z "},"ē":{"ha":724,"x_min":49,"x_max":686,"o":"m 658 76 q 396 -26 538 -26 q 213 16 292 -26 q 92 134 135 58 q 49 308 49 210 q 89 485 49 408 q 203 605 129 563 q 371 647 276 647 q 537 608 465 647 q 647 499 608 569 q 686 335 686 428 q 679 257 686 299 l 201 257 q 262 139 207 179 q 396 99 317 99 q 603 171 511 99 l 658 76 m 529 365 q 486 477 528 435 q 375 519 444 519 q 258 476 307 519 q 204 365 210 433 l 529 365 m 133 858 l 597 858 l 597 753 l 133 753 l 133 858 z "},"ḗ":{"ha":724,"x_min":49,"x_max":686,"o":"m 658 76 q 396 -26 538 -26 q 213 16 292 -26 q 92 134 135 58 q 49 308 49 210 q 89 485 49 408 q 203 605 129 563 q 371 647 276 647 q 537 608 465 647 q 647 499 608 569 q 686 335 686 428 q 679 257 686 299 l 201 257 q 262 139 207 179 q 396 99 317 99 q 603 171 511 99 l 658 76 m 529 365 q 486 477 528 435 q 375 519 444 519 q 258 476 307 519 q 204 365 210 433 l 529 365 m 133 858 l 597 858 l 597 753 l 133 753 l 133 858 m 492 1243 l 599 1164 l 379 910 l 311 956 l 492 1243 z "},"ḕ":{"ha":724,"x_min":49,"x_max":686,"o":"m 658 76 q 396 -26 538 -26 q 213 16 292 -26 q 92 134 135 58 q 49 308 49 210 q 89 485 49 408 q 203 605 129 563 q 371 647 276 647 q 537 608 465 647 q 647 499 608 569 q 686 335 686 428 q 679 257 686 299 l 201 257 q 262 139 207 179 q 396 99 317 99 q 603 171 511 99 l 658 76 m 529 365 q 486 477 528 435 q 375 519 444 519 q 258 476 307 519 q 204 365 210 433 l 529 365 m 133 858 l 597 858 l 597 753 l 133 753 l 133 858 m 372 910 l 151 1164 l 260 1243 l 439 956 l 372 910 z "},"ę":{"ha":724,"x_min":49,"x_max":686,"o":"m 686 335 q 679 257 686 299 l 201 257 q 262 139 207 179 q 396 99 317 99 q 603 171 511 99 l 658 76 q 564 14 614 38 q 483 -117 483 -40 q 506 -165 483 -147 q 567 -183 529 -183 q 635 -169 601 -183 l 635 -269 q 511 -296 575 -296 q 382 -259 429 -296 q 335 -165 335 -222 q 392 -26 335 -87 q 211 16 289 -26 q 91 134 133 58 q 49 308 49 210 q 89 485 49 408 q 203 605 129 563 q 371 647 276 647 q 537 608 465 647 q 647 499 608 569 q 686 335 686 428 m 529 365 q 486 477 528 435 q 375 519 444 519 q 258 476 307 519 q 204 365 210 433 l 529 365 z "},"ẽ":{"ha":724,"x_min":49,"x_max":686,"o":"m 658 76 q 396 -26 538 -26 q 213 16 292 -26 q 92 134 135 58 q 49 308 49 210 q 89 485 49 408 q 203 605 129 563 q 371 647 276 647 q 537 608 465 647 q 647 499 608 569 q 686 335 686 428 q 679 257 686 299 l 201 257 q 262 139 207 179 q 396 99 317 99 q 603 171 511 99 l 658 76 m 529 365 q 486 477 528 435 q 375 519 444 519 q 258 476 307 519 q 204 365 210 433 l 529 365 m 133 824 q 217 876 182 861 q 300 890 253 890 q 351 883 328 890 q 403 860 375 875 q 445 841 428 847 q 481 835 463 835 q 529 843 508 835 q 589 876 550 851 l 626 788 q 550 734 585 750 q 467 718 515 718 q 427 725 446 718 q 381 746 408 732 q 334 767 354 760 q 292 775 314 775 q 249 769 268 775 q 206 751 229 763 q 174 736 183 740 l 133 824 z "},"ə":{"ha":724,"x_min":38,"x_max":675,"o":"m 65 544 q 328 647 186 647 q 510 605 432 647 q 632 487 589 563 q 675 313 675 411 q 635 135 675 213 q 521 16 594 58 q 353 -26 447 -26 q 187 13 258 -26 q 76 122 115 51 q 38 286 38 193 q 44 364 38 322 l 522 364 q 462 482 517 442 q 328 522 407 522 q 121 450 213 522 l 65 544 m 194 256 q 238 144 196 186 q 349 101 279 101 q 465 144 417 101 q 519 256 514 188 l 194 256 z "},"f":{"ha":544,"x_min":61,"x_max":629,"o":"m 178 681 q 243 873 178 807 q 436 939 308 939 q 546 924 496 939 q 629 881 596 910 l 575 771 q 453 810 513 810 q 363 776 394 810 q 331 676 331 743 l 331 621 l 503 621 l 503 496 l 331 496 l 331 126 l 456 126 l 456 0 l 61 0 l 61 126 l 178 126 l 178 496 l 61 496 l 61 621 l 178 621 l 178 681 z "},"g":{"ha":797,"x_min":33,"x_max":772,"o":"m 426 71 q 610 21 549 71 q 672 -124 672 -29 q 583 -282 672 -229 q 353 -335 493 -335 q 166 -312 250 -335 q 33 -264 82 -290 l 90 -140 q 223 -185 160 -169 q 353 -200 286 -200 q 480 -179 440 -200 q 519 -125 519 -158 q 495 -77 519 -94 q 407 -60 471 -60 l 189 -60 l 189 183 q 81 263 118 210 q 44 392 44 315 q 126 578 44 510 q 343 647 207 647 q 438 639 397 647 q 514 610 478 631 l 724 683 l 772 546 l 603 519 q 633 464 624 496 q 643 399 643 432 q 559 219 643 278 q 342 160 475 160 l 314 160 l 314 71 l 426 71 m 344 528 q 233 494 272 528 q 193 400 193 461 q 233 311 193 344 q 344 278 274 278 q 456 311 415 278 q 496 400 496 344 q 456 494 496 461 q 344 528 417 528 z "},"ğ":{"ha":797,"x_min":33,"x_max":772,"o":"m 426 71 q 610 21 549 71 q 672 -124 672 -29 q 583 -282 672 -229 q 353 -335 493 -335 q 166 -312 250 -335 q 33 -264 82 -290 l 90 -140 q 223 -185 160 -169 q 353 -200 286 -200 q 480 -179 440 -200 q 519 -125 519 -158 q 495 -77 519 -94 q 407 -60 471 -60 l 189 -60 l 189 183 q 81 263 118 210 q 44 392 44 315 q 126 578 44 510 q 343 647 207 647 q 438 639 397 647 q 514 610 478 631 l 724 683 l 772 546 l 603 519 q 633 464 624 496 q 643 399 643 432 q 559 219 643 278 q 342 160 475 160 l 314 160 l 314 71 l 426 71 m 344 528 q 233 494 272 528 q 193 400 193 461 q 233 311 193 344 q 344 278 274 278 q 456 311 415 278 q 496 400 496 344 q 456 494 496 461 q 344 528 417 528 m 342 717 q 176 766 238 717 q 101 911 115 815 l 210 926 q 247 848 214 875 q 342 821 281 821 q 439 848 404 821 q 476 926 474 875 l 585 911 q 510 766 571 815 q 342 717 449 717 z "},"ǧ":{"ha":797,"x_min":33,"x_max":772,"o":"m 426 71 q 610 21 549 71 q 672 -124 672 -29 q 583 -282 672 -229 q 353 -335 493 -335 q 166 -312 250 -335 q 33 -264 82 -290 l 90 -140 q 223 -185 160 -169 q 353 -200 286 -200 q 480 -179 440 -200 q 519 -125 519 -158 q 495 -77 519 -94 q 407 -60 471 -60 l 189 -60 l 189 183 q 81 263 118 210 q 44 392 44 315 q 126 578 44 510 q 343 647 207 647 q 438 639 397 647 q 514 610 478 631 l 724 683 l 772 546 l 603 519 q 633 464 624 496 q 643 399 643 432 q 559 219 643 278 q 342 160 475 160 l 314 160 l 314 71 l 426 71 m 344 528 q 233 494 272 528 q 193 400 193 461 q 233 311 193 344 q 344 278 274 278 q 456 311 415 278 q 496 400 496 344 q 456 494 496 461 q 344 528 417 528 m 344 694 l 111 854 l 157 924 l 346 819 l 524 924 l 572 854 l 344 694 z "},"ĝ":{"ha":797,"x_min":33,"x_max":772,"o":"m 426 71 q 610 21 549 71 q 672 -124 672 -29 q 583 -282 672 -229 q 353 -335 493 -335 q 166 -312 250 -335 q 33 -264 82 -290 l 90 -140 q 223 -185 160 -169 q 353 -200 286 -200 q 480 -179 440 -200 q 519 -125 519 -158 q 495 -77 519 -94 q 407 -60 471 -60 l 189 -60 l 189 183 q 81 263 118 210 q 44 392 44 315 q 126 578 44 510 q 343 647 207 647 q 438 639 397 647 q 514 610 478 631 l 724 683 l 772 546 l 603 519 q 633 464 624 496 q 643 399 643 432 q 559 219 643 278 q 342 160 475 160 l 314 160 l 314 71 l 426 71 m 344 528 q 233 494 272 528 q 193 400 193 461 q 233 311 193 344 q 344 278 274 278 q 456 311 415 278 q 496 400 496 344 q 456 494 496 461 q 344 528 417 528 m 344 938 l 572 778 l 524 708 l 346 813 l 157 708 l 111 778 l 344 938 z "},"ģ":{"ha":797,"x_min":33,"x_max":772,"o":"m 426 71 q 610 21 549 71 q 672 -124 672 -29 q 583 -282 672 -229 q 353 -335 493 -335 q 166 -312 250 -335 q 33 -264 82 -290 l 90 -140 q 223 -185 160 -169 q 353 -200 286 -200 q 480 -179 440 -200 q 519 -125 519 -158 q 495 -77 519 -94 q 407 -60 471 -60 l 189 -60 l 189 183 q 81 263 118 210 q 44 392 44 315 q 126 578 44 510 q 343 647 207 647 q 438 639 397 647 q 514 610 478 631 l 724 683 l 772 546 l 603 519 q 633 464 624 496 q 643 399 643 432 q 559 219 643 278 q 342 160 475 160 l 314 160 l 314 71 l 426 71 m 344 528 q 233 494 272 528 q 193 400 193 461 q 233 311 193 344 q 344 278 274 278 q 456 311 415 278 q 496 400 496 344 q 456 494 496 461 q 344 528 417 528 m 438 1025 q 408 981 431 1015 q 371 918 385 947 q 433 882 413 910 q 454 818 454 854 q 424 742 454 771 q 344 713 393 713 q 265 747 300 713 q 231 826 231 781 q 274 955 231 896 q 349 1044 317 1014 q 386 1079 381 1074 l 438 1025 z "},"ġ":{"ha":797,"x_min":33,"x_max":772,"o":"m 426 71 q 610 21 549 71 q 672 -124 672 -29 q 583 -282 672 -229 q 353 -335 493 -335 q 166 -312 250 -335 q 33 -264 82 -290 l 90 -140 q 223 -185 160 -169 q 353 -200 286 -200 q 480 -179 440 -200 q 519 -125 519 -158 q 495 -77 519 -94 q 407 -60 471 -60 l 189 -60 l 189 183 q 81 263 118 210 q 44 392 44 315 q 126 578 44 510 q 343 647 207 647 q 438 639 397 647 q 514 610 478 631 l 724 683 l 772 546 l 603 519 q 633 464 624 496 q 643 399 643 432 q 559 219 643 278 q 342 160 475 160 l 314 160 l 314 71 l 426 71 m 344 528 q 233 494 272 528 q 193 400 193 461 q 233 311 193 344 q 344 278 274 278 q 456 311 415 278 q 496 400 496 344 q 456 494 496 461 q 344 528 417 528 m 342 922 q 411 896 385 922 q 438 826 438 869 q 411 757 438 783 q 342 731 385 731 q 273 757 299 731 q 247 826 247 783 q 273 896 247 869 q 342 922 299 922 z "},"ḡ":{"ha":797,"x_min":33,"x_max":772,"o":"m 426 71 q 610 21 549 71 q 672 -124 672 -29 q 583 -282 672 -229 q 353 -335 493 -335 q 166 -312 250 -335 q 33 -264 82 -290 l 90 -140 q 223 -185 160 -169 q 353 -200 286 -200 q 480 -179 440 -200 q 519 -125 519 -158 q 495 -77 519 -94 q 407 -60 471 -60 l 189 -60 l 189 183 q 81 263 118 210 q 44 392 44 315 q 126 578 44 510 q 343 647 207 647 q 438 639 397 647 q 514 610 478 631 l 724 683 l 772 546 l 603 519 q 633 464 624 496 q 643 399 643 432 q 559 219 643 278 q 342 160 475 160 l 314 160 l 314 71 l 426 71 m 344 528 q 233 494 272 528 q 193 400 193 461 q 233 311 193 344 q 344 278 274 278 q 456 311 415 278 q 496 400 496 344 q 456 494 496 461 q 344 528 417 528 m 110 858 l 574 858 l 574 753 l 110 753 l 110 858 z "},"h":{"ha":886,"x_min":14,"x_max":853,"o":"m 31 126 l 146 126 l 146 761 l 14 806 l 56 932 l 304 847 l 304 594 q 399 633 346 619 q 504 647 451 647 q 676 582 617 647 q 736 393 736 517 l 736 126 l 853 126 l 853 0 l 519 0 l 519 126 l 578 126 l 578 371 q 549 480 578 446 q 456 514 519 514 q 382 503 424 514 q 306 478 340 493 l 306 126 l 363 126 l 363 0 l 31 0 l 31 126 z "},"ħ":{"ha":886,"x_min":14,"x_max":853,"o":"m 853 126 l 853 0 l 519 0 l 519 126 l 578 126 l 578 304 q 549 413 578 379 q 456 447 519 447 q 382 437 424 447 q 306 411 340 426 l 306 126 l 363 126 l 363 0 l 31 0 l 31 126 l 146 126 l 146 642 l 22 642 l 22 726 l 146 726 l 146 761 l 14 806 l 56 932 l 304 847 l 304 726 l 467 726 l 467 642 l 304 642 l 304 528 q 399 567 346 553 q 504 581 451 581 q 676 515 617 581 q 736 326 736 450 l 736 126 l 853 126 z "},"ḫ":{"ha":886,"x_min":14,"x_max":853,"o":"m 31 126 l 146 126 l 146 761 l 14 806 l 56 932 l 304 847 l 304 594 q 399 633 346 619 q 504 647 451 647 q 676 582 617 647 q 736 393 736 517 l 736 126 l 853 126 l 853 0 l 519 0 l 519 126 l 578 126 l 578 371 q 549 480 578 446 q 456 514 519 514 q 382 503 424 514 q 306 478 340 493 l 306 126 l 363 126 l 363 0 l 31 0 l 31 126 m 435 -285 q 269 -235 331 -285 q 194 -90 208 -186 l 303 -75 q 340 -153 307 -126 q 435 -181 374 -181 q 532 -153 497 -181 q 569 -75 567 -126 l 678 -90 q 603 -235 664 -186 q 435 -285 542 -285 z "},"ĥ":{"ha":886,"x_min":-86,"x_max":853,"o":"m 31 126 l 146 126 l 146 761 l 14 806 l 56 932 l 304 847 l 304 594 q 399 633 346 619 q 504 647 451 647 q 676 582 617 647 q 736 393 736 517 l 736 126 l 853 126 l 853 0 l 519 0 l 519 126 l 578 126 l 578 371 q 549 480 578 446 q 456 514 519 514 q 382 503 424 514 q 306 478 340 493 l 306 126 l 363 126 l 363 0 l 31 0 l 31 126 m 164 1140 l 414 996 l 371 936 l 165 1018 l -47 936 l -86 996 l 164 1140 z "},"ḥ":{"ha":886,"x_min":14,"x_max":853,"o":"m 31 126 l 146 126 l 146 761 l 14 806 l 56 932 l 304 847 l 304 594 q 399 633 346 619 q 504 647 451 647 q 676 582 617 647 q 736 393 736 517 l 736 126 l 853 126 l 853 0 l 519 0 l 519 126 l 578 126 l 578 371 q 549 480 578 446 q 456 514 519 514 q 382 503 424 514 q 306 478 340 493 l 306 126 l 363 126 l 363 0 l 31 0 l 31 126 m 435 -81 q 504 -107 478 -81 q 531 -176 531 -133 q 504 -246 531 -219 q 435 -272 478 -272 q 366 -246 392 -272 q 340 -176 340 -219 q 366 -107 340 -133 q 435 -81 392 -81 z "},"i":{"ha":479,"x_min":56,"x_max":446,"o":"m 56 621 l 331 621 l 331 126 l 446 126 l 446 0 l 56 0 l 56 126 l 171 126 l 171 496 l 56 496 l 56 621 m 236 922 q 306 896 279 922 q 332 826 332 869 q 306 757 332 783 q 236 731 279 731 q 167 757 193 731 q 142 826 142 783 q 167 896 142 869 q 236 922 193 922 z "},"ı":{"ha":479,"x_min":56,"x_max":446,"o":"m 56 621 l 331 621 l 331 126 l 446 126 l 446 0 l 56 0 l 56 126 l 171 126 l 171 496 l 56 496 l 56 621 z "},"í":{"ha":479,"x_min":56,"x_max":464,"o":"m 56 621 l 331 621 l 331 126 l 446 126 l 446 0 l 56 0 l 56 126 l 171 126 l 171 496 l 56 496 l 56 621 m 357 1040 l 464 961 l 244 707 l 176 753 l 357 1040 z "},"ĭ":{"ha":479,"x_min":24,"x_max":450,"o":"m 56 621 l 331 621 l 331 126 l 446 126 l 446 0 l 56 0 l 56 126 l 171 126 l 171 496 l 56 496 l 56 621 m 236 717 q 24 911 49 717 l 131 926 q 236 821 139 821 q 313 848 285 821 q 343 926 340 875 l 450 911 q 385 766 439 815 q 236 717 331 717 z "},"î":{"ha":479,"x_min":6,"x_max":467,"o":"m 56 621 l 331 621 l 331 126 l 446 126 l 446 0 l 56 0 l 56 126 l 171 126 l 171 496 l 56 496 l 56 621 m 239 938 l 467 778 l 418 708 l 240 813 l 51 708 l 6 778 l 239 938 z "},"ȉ":{"ha":479,"x_min":-137,"x_max":446,"o":"m 56 621 l 331 621 l 331 126 l 446 126 l 446 0 l 56 0 l 56 126 l 171 126 l 171 496 l 56 496 l 56 621 m 225 1040 l 404 753 l 338 707 l 117 961 l 225 1040 m -49 1011 l 183 765 l 126 707 l -137 915 l -49 1011 z "},"ï":{"ha":479,"x_min":8,"x_max":464,"o":"m 56 621 l 331 621 l 331 126 l 446 126 l 446 0 l 56 0 l 56 126 l 171 126 l 171 496 l 56 496 l 56 621 m 104 914 q 170 885 142 914 q 199 818 199 857 q 170 751 199 779 q 104 724 142 724 q 37 751 65 724 q 8 818 8 779 q 37 885 8 857 q 104 914 65 914 m 369 914 q 435 885 407 914 q 464 818 464 857 q 435 751 464 779 q 369 724 407 724 q 302 751 331 724 q 274 818 274 779 q 302 885 274 857 q 369 914 331 914 z "},"ḯ":{"ha":479,"x_min":8,"x_max":464,"o":"m 56 621 l 331 621 l 331 126 l 446 126 l 446 0 l 56 0 l 56 126 l 171 126 l 171 496 l 56 496 l 56 621 m 104 914 q 170 885 142 914 q 199 818 199 857 q 170 751 199 779 q 104 724 142 724 q 37 751 65 724 q 8 818 8 779 q 37 885 8 857 q 104 914 65 914 m 369 914 q 435 885 407 914 q 464 818 464 857 q 435 751 464 779 q 369 724 407 724 q 302 751 331 724 q 274 818 274 779 q 302 885 274 857 q 369 914 331 914 m 357 1260 l 464 1181 l 244 926 l 176 972 l 357 1260 z "},"ị":{"ha":479,"x_min":56,"x_max":446,"o":"m 56 621 l 331 621 l 331 126 l 446 126 l 446 0 l 56 0 l 56 126 l 171 126 l 171 496 l 56 496 l 56 621 m 236 922 q 306 896 279 922 q 332 826 332 869 q 306 757 332 783 q 236 731 279 731 q 167 757 193 731 q 142 826 142 783 q 167 896 142 869 q 236 922 193 922 m 308 -81 q 378 -107 351 -81 q 404 -176 404 -133 q 378 -246 404 -219 q 308 -272 351 -272 q 240 -246 265 -272 q 214 -176 214 -219 q 240 -107 214 -133 q 308 -81 265 -81 z "},"ì":{"ha":479,"x_min":17,"x_max":446,"o":"m 56 621 l 331 621 l 331 126 l 446 126 l 446 0 l 56 0 l 56 126 l 171 126 l 171 496 l 56 496 l 56 621 m 238 707 l 17 961 l 125 1040 l 304 753 l 238 707 z "},"ỉ":{"ha":479,"x_min":56,"x_max":446,"o":"m 56 621 l 331 621 l 331 126 l 446 126 l 446 0 l 56 0 l 56 126 l 171 126 l 171 496 l 56 496 l 56 621 m 211 735 q 251 778 236 756 q 265 822 265 801 q 253 852 265 840 q 221 864 242 864 q 149 824 186 864 l 88 892 q 240 969 157 969 q 335 936 300 969 q 369 850 369 903 q 342 764 369 807 q 263 686 315 721 l 211 735 z "},"ȋ":{"ha":479,"x_min":31,"x_max":446,"o":"m 56 621 l 331 621 l 331 126 l 446 126 l 446 0 l 56 0 l 56 126 l 171 126 l 171 496 l 56 496 l 56 621 m 236 940 q 383 891 331 940 q 444 746 436 842 l 347 731 q 236 836 346 836 q 157 810 185 836 q 128 731 129 783 l 31 746 q 92 891 39 842 q 236 940 144 940 z "},"ī":{"ha":479,"x_min":46,"x_max":446,"o":"m 56 621 l 331 621 l 331 126 l 446 126 l 446 0 l 56 0 l 56 126 l 171 126 l 171 496 l 56 496 l 56 621 m 46 858 l 426 858 l 426 753 l 46 753 l 46 858 z "},"į":{"ha":479,"x_min":56,"x_max":446,"o":"m 236 731 q 167 757 193 731 q 142 826 142 783 q 167 896 142 869 q 236 922 193 922 q 306 896 279 922 q 332 826 332 869 q 306 757 332 783 q 236 731 279 731 m 368 0 q 278 -69 306 -32 q 251 -151 251 -107 q 274 -200 251 -182 q 335 -218 297 -218 q 403 -204 369 -218 l 403 -304 q 279 -331 343 -331 q 150 -294 197 -331 q 103 -200 103 -257 q 239 0 103 -81 l 56 0 l 56 126 l 171 126 l 171 496 l 56 496 l 56 621 l 331 621 l 331 126 l 446 126 l 446 0 l 368 0 z "},"ĩ":{"ha":479,"x_min":25,"x_max":454,"o":"m 56 621 l 331 621 l 331 126 l 446 126 l 446 0 l 56 0 l 56 126 l 171 126 l 171 496 l 56 496 l 56 621 m 25 824 q 99 875 67 860 q 171 890 131 890 q 210 883 192 890 q 253 861 229 875 q 291 841 276 847 q 322 835 306 835 q 367 843 347 835 q 422 876 388 851 l 454 788 q 390 733 421 749 q 308 718 358 718 q 275 725 290 718 q 235 746 260 732 q 193 768 208 761 q 158 775 178 775 q 125 768 140 775 q 90 751 110 761 q 64 736 71 740 l 25 824 z "},"j":{"ha":390,"x_min":-58,"x_max":314,"o":"m 308 -49 q 295 -194 308 -136 q 224 -293 282 -251 q 46 -335 167 -335 q -58 -321 4 -335 l -42 -197 q 35 -203 3 -203 q 114 -183 89 -203 q 144 -137 139 -164 q 150 -65 150 -110 l 150 496 l 33 496 l 33 621 l 308 621 l 308 -49 m 218 922 q 288 896 261 922 q 314 826 314 869 q 288 757 314 783 q 218 731 261 731 q 149 757 175 731 q 124 826 124 783 q 149 896 124 869 q 218 922 175 922 z "},"ȷ":{"ha":390,"x_min":-58,"x_max":308,"o":"m 308 -49 q 295 -194 308 -136 q 224 -293 282 -251 q 46 -335 167 -335 q -58 -321 4 -335 l -42 -197 q 35 -203 3 -203 q 114 -183 89 -203 q 144 -137 139 -164 q 150 -65 150 -110 l 150 496 l 33 496 l 33 621 l 308 621 l 308 -49 z "},"ĵ":{"ha":390,"x_min":-58,"x_max":449,"o":"m 308 -49 q 295 -194 308 -136 q 224 -293 282 -251 q 46 -335 167 -335 q -58 -321 4 -335 l -42 -197 q 35 -203 3 -203 q 114 -183 89 -203 q 144 -137 139 -164 q 150 -65 150 -110 l 150 496 l 33 496 l 33 621 l 308 621 l 308 -49 m 221 938 l 449 778 l 400 708 l 222 813 l 33 708 l -12 778 l 221 938 z "},"k":{"ha":814,"x_min":18,"x_max":763,"o":"m 60 933 l 308 849 l 308 371 l 410 371 l 483 496 l 413 496 l 413 621 l 747 621 l 747 496 l 642 496 l 522 313 l 647 126 l 763 126 l 763 0 l 568 0 l 414 246 l 308 246 l 308 126 l 356 126 l 356 0 l 33 0 l 33 126 l 150 126 l 150 761 l 18 806 l 60 933 z "},"ķ":{"ha":814,"x_min":18,"x_max":763,"o":"m 60 933 l 308 849 l 308 371 l 410 371 l 483 496 l 413 496 l 413 621 l 747 621 l 747 496 l 642 496 l 522 313 l 647 126 l 763 126 l 763 0 l 568 0 l 414 246 l 308 246 l 308 126 l 356 126 l 356 0 l 33 0 l 33 126 l 150 126 l 150 761 l 18 806 l 60 933 m 333 -407 q 363 -363 340 -397 q 400 -300 386 -329 q 338 -264 358 -292 q 317 -200 317 -236 q 347 -124 317 -153 q 426 -94 378 -94 q 506 -128 471 -94 q 540 -208 540 -162 q 497 -337 540 -278 q 422 -426 454 -396 q 385 -461 390 -456 l 333 -407 z "},"ĸ":{"ha":854,"x_min":64,"x_max":803,"o":"m 64 621 l 386 621 l 386 496 l 339 496 l 339 368 l 446 368 l 532 496 l 461 496 l 461 621 l 796 621 l 796 496 l 690 496 l 557 310 l 688 126 l 803 126 l 803 0 l 597 0 l 429 243 l 339 243 l 339 126 l 386 126 l 386 0 l 64 0 l 64 126 l 181 126 l 181 496 l 64 496 l 64 621 z "},"l":{"ha":465,"x_min":24,"x_max":432,"o":"m 40 0 l 40 126 l 157 126 l 157 765 l 24 806 l 63 933 l 315 854 l 315 126 l 432 126 l 432 0 l 40 0 z "},"ĺ":{"ha":465,"x_min":24,"x_max":465,"o":"m 40 0 l 40 126 l 157 126 l 157 765 l 24 806 l 63 933 l 315 854 l 315 126 l 432 126 l 432 0 l 40 0 m 429 1161 l 465 1029 l 114 975 l 92 1038 l 429 1161 z "},"ľ":{"ha":465,"x_min":-24,"x_max":449,"o":"m 35 1061 l 214 974 l 396 1061 l 449 990 l 214 833 l -24 990 l 35 1061 m 40 0 l 40 126 l 157 126 l 157 647 l 24 688 l 63 815 l 315 736 l 315 126 l 432 126 l 432 0 l 40 0 z "},"ļ":{"ha":465,"x_min":24,"x_max":432,"o":"m 40 0 l 40 126 l 157 126 l 157 765 l 24 806 l 63 933 l 315 854 l 315 126 l 432 126 l 432 0 l 40 0 m 132 -407 q 162 -363 139 -397 q 199 -300 185 -329 q 136 -264 157 -292 q 115 -200 115 -236 q 146 -124 115 -153 q 225 -94 176 -94 q 304 -128 269 -94 q 339 -208 339 -162 q 296 -337 339 -278 q 221 -426 253 -396 q 183 -461 189 -456 l 132 -407 z "},"ŀ":{"ha":610,"x_min":24,"x_max":582,"o":"m 40 0 l 40 126 l 157 126 l 157 765 l 24 806 l 63 933 l 315 854 l 315 126 l 432 126 l 432 0 l 40 0 m 472 517 q 549 484 517 517 q 582 406 582 451 q 549 327 582 360 q 472 294 517 294 q 392 327 425 294 q 360 406 360 360 q 392 484 360 451 q 472 517 425 517 z "},"ḷ":{"ha":465,"x_min":24,"x_max":432,"o":"m 40 0 l 40 126 l 157 126 l 157 765 l 24 806 l 63 933 l 315 854 l 315 126 l 432 126 l 432 0 l 40 0 m 226 -81 q 296 -107 269 -81 q 322 -176 322 -133 q 296 -246 322 -219 q 226 -272 269 -272 q 158 -246 183 -272 q 132 -176 132 -219 q 158 -107 132 -133 q 226 -81 183 -81 z "},"ḻ":{"ha":465,"x_min":0,"x_max":456,"o":"m 40 0 l 40 126 l 157 126 l 157 765 l 24 806 l 63 933 l 315 854 l 315 126 l 432 126 l 432 0 l 40 0 m 0 -76 l 456 -76 l 456 -182 l 0 -182 l 0 -76 z "},"ł":{"ha":465,"x_min":24,"x_max":432,"o":"m 315 126 l 432 126 l 432 0 l 40 0 l 40 126 l 157 126 l 157 333 l 57 246 l 57 375 l 157 463 l 157 765 l 24 806 l 63 933 l 315 854 l 315 601 l 424 697 l 424 568 l 315 472 l 315 126 z "},"m":{"ha":1282,"x_min":46,"x_max":1247,"o":"m 63 126 l 178 126 l 178 468 l 46 510 l 88 638 l 285 574 q 381 628 326 608 q 489 647 435 647 q 596 627 547 647 q 675 569 644 607 q 882 647 775 647 q 1071 584 1013 647 q 1129 376 1129 521 l 1129 126 l 1247 126 l 1247 0 l 917 0 l 917 126 l 971 126 l 971 368 q 946 478 971 446 q 860 511 921 511 q 793 498 829 511 q 733 465 757 485 l 733 126 l 788 126 l 788 0 l 519 0 l 519 126 l 575 126 l 575 368 q 550 478 575 446 q 464 511 525 511 q 397 498 433 511 q 336 465 361 485 l 336 126 l 393 126 l 393 0 l 63 0 l 63 126 z "},"ṃ":{"ha":1282,"x_min":46,"x_max":1247,"o":"m 63 126 l 178 126 l 178 468 l 46 510 l 88 638 l 285 574 q 381 628 326 608 q 489 647 435 647 q 596 627 547 647 q 675 569 644 607 q 882 647 775 647 q 1071 584 1013 647 q 1129 376 1129 521 l 1129 126 l 1247 126 l 1247 0 l 917 0 l 917 126 l 971 126 l 971 368 q 946 478 971 446 q 860 511 921 511 q 793 498 829 511 q 733 465 757 485 l 733 126 l 788 126 l 788 0 l 519 0 l 519 126 l 575 126 l 575 368 q 550 478 575 446 q 464 511 525 511 q 397 498 433 511 q 336 465 361 485 l 336 126 l 393 126 l 393 0 l 63 0 l 63 126 m 646 -81 q 715 -107 689 -81 q 742 -176 742 -133 q 715 -246 742 -219 q 646 -272 689 -272 q 577 -246 603 -272 q 551 -176 551 -219 q 577 -107 551 -133 q 646 -81 603 -81 z "},"n":{"ha":918,"x_min":47,"x_max":882,"o":"m 63 126 l 181 126 l 181 464 l 47 510 l 88 636 l 281 569 q 394 628 339 608 q 522 647 450 647 q 706 576 644 647 q 767 388 767 506 l 767 126 l 882 126 l 882 0 l 551 0 l 551 126 l 610 126 l 610 367 q 485 510 610 510 q 407 497 446 510 q 338 463 368 483 l 338 126 l 394 126 l 394 0 l 63 0 l 63 126 z "},"ń":{"ha":918,"x_min":47,"x_max":882,"o":"m 63 126 l 181 126 l 181 464 l 47 510 l 88 636 l 281 569 q 394 628 339 608 q 522 647 450 647 q 706 576 644 647 q 767 388 767 506 l 767 126 l 882 126 l 882 0 l 551 0 l 551 126 l 610 126 l 610 367 q 485 510 610 510 q 407 497 446 510 q 338 463 368 483 l 338 126 l 394 126 l 394 0 l 63 0 l 63 126 m 583 1040 l 690 961 l 471 707 l 403 753 l 583 1040 z "},"ň":{"ha":918,"x_min":47,"x_max":882,"o":"m 63 126 l 181 126 l 181 464 l 47 510 l 88 636 l 281 569 q 394 628 339 608 q 522 647 450 647 q 706 576 644 647 q 767 388 767 506 l 767 126 l 882 126 l 882 0 l 551 0 l 551 126 l 610 126 l 610 367 q 485 510 610 510 q 407 497 446 510 q 338 463 368 483 l 338 126 l 394 126 l 394 0 l 63 0 l 63 126 m 465 694 l 232 854 l 278 924 l 467 819 l 644 924 l 693 854 l 465 694 z "},"ņ":{"ha":918,"x_min":47,"x_max":882,"o":"m 63 126 l 181 126 l 181 464 l 47 510 l 88 636 l 281 569 q 394 628 339 608 q 522 647 450 647 q 706 576 644 647 q 767 388 767 506 l 767 126 l 882 126 l 882 0 l 551 0 l 551 126 l 610 126 l 610 367 q 485 510 610 510 q 407 497 446 510 q 338 463 368 483 l 338 126 l 394 126 l 394 0 l 63 0 l 63 126 m 368 -407 q 398 -363 375 -397 q 435 -300 421 -329 q 372 -264 393 -292 q 351 -200 351 -236 q 382 -124 351 -153 q 461 -94 413 -94 q 540 -128 506 -94 q 575 -208 575 -162 q 532 -337 575 -278 q 457 -426 489 -396 q 419 -461 425 -456 l 368 -407 z "},"ṅ":{"ha":918,"x_min":47,"x_max":882,"o":"m 63 126 l 181 126 l 181 464 l 47 510 l 88 636 l 281 569 q 394 628 339 608 q 522 647 450 647 q 706 576 644 647 q 767 388 767 506 l 767 126 l 882 126 l 882 0 l 551 0 l 551 126 l 610 126 l 610 367 q 485 510 610 510 q 407 497 446 510 q 338 463 368 483 l 338 126 l 394 126 l 394 0 l 63 0 l 63 126 m 463 922 q 532 896 506 922 q 558 826 558 869 q 532 757 558 783 q 463 731 506 731 q 394 757 419 731 q 368 826 368 783 q 394 896 368 869 q 463 922 419 922 z "},"ṇ":{"ha":918,"x_min":47,"x_max":882,"o":"m 63 126 l 181 126 l 181 464 l 47 510 l 88 636 l 281 569 q 394 628 339 608 q 522 647 450 647 q 706 576 644 647 q 767 388 767 506 l 767 126 l 882 126 l 882 0 l 551 0 l 551 126 l 610 126 l 610 367 q 485 510 610 510 q 407 497 446 510 q 338 463 368 483 l 338 126 l 394 126 l 394 0 l 63 0 l 63 126 m 463 -81 q 532 -107 506 -81 q 558 -176 558 -133 q 532 -246 558 -219 q 463 -272 506 -272 q 394 -246 419 -272 q 368 -176 368 -219 q 394 -107 368 -133 q 463 -81 419 -81 z "},"ŋ":{"ha":836,"x_min":47,"x_max":767,"o":"m 522 647 q 703 579 639 647 q 767 388 767 511 l 767 -1 q 697 -249 767 -162 q 503 -335 628 -335 q 394 -325 444 -335 q 290 -293 343 -315 l 331 -179 q 468 -207 399 -207 q 573 -161 536 -207 q 610 -29 610 -115 l 610 367 q 485 510 610 510 q 410 497 450 510 q 338 463 369 483 l 338 126 l 394 126 l 394 0 l 63 0 l 63 126 l 181 126 l 181 464 l 47 510 l 88 636 l 281 569 q 397 629 342 611 q 522 647 453 647 z "},"ṉ":{"ha":918,"x_min":47,"x_max":882,"o":"m 63 126 l 181 126 l 181 464 l 47 510 l 88 636 l 281 569 q 394 628 339 608 q 522 647 450 647 q 706 576 644 647 q 767 388 767 506 l 767 126 l 882 126 l 882 0 l 551 0 l 551 126 l 610 126 l 610 367 q 485 510 610 510 q 407 497 446 510 q 338 463 368 483 l 338 126 l 394 126 l 394 0 l 63 0 l 63 126 m 236 -76 l 692 -76 l 692 -182 l 236 -182 l 236 -76 z "},"ñ":{"ha":918,"x_min":47,"x_max":882,"o":"m 63 126 l 181 126 l 181 464 l 47 510 l 88 636 l 281 569 q 394 628 339 608 q 522 647 450 647 q 706 576 644 647 q 767 388 767 506 l 767 126 l 882 126 l 882 0 l 551 0 l 551 126 l 610 126 l 610 367 q 485 510 610 510 q 407 497 446 510 q 338 463 368 483 l 338 126 l 394 126 l 394 0 l 63 0 l 63 126 m 231 824 q 315 876 279 861 q 397 890 350 890 q 449 883 425 890 q 500 860 472 875 q 542 841 525 847 q 578 835 560 835 q 626 843 606 835 q 686 876 647 851 l 724 788 q 647 734 682 750 q 564 718 613 718 q 524 725 543 718 q 478 746 506 732 q 431 767 451 760 q 389 775 411 775 q 346 769 365 775 q 303 751 326 763 q 271 736 281 740 l 231 824 z "},"o":{"ha":771,"x_min":60,"x_max":713,"o":"m 383 647 q 626 558 539 647 q 713 310 713 468 q 626 63 713 151 q 383 -26 539 -26 q 145 63 231 -26 q 60 310 60 151 q 145 558 60 468 q 383 647 231 647 m 385 518 q 258 465 301 518 q 215 310 215 411 q 258 153 215 207 q 385 100 301 100 q 513 153 469 100 q 556 310 556 207 q 512 465 556 411 q 385 518 468 518 z "},"ó":{"ha":771,"x_min":60,"x_max":713,"o":"m 383 647 q 626 558 539 647 q 713 310 713 468 q 626 63 713 151 q 383 -26 539 -26 q 145 63 231 -26 q 60 310 60 151 q 145 558 60 468 q 383 647 231 647 m 385 518 q 258 465 301 518 q 215 310 215 411 q 258 153 215 207 q 385 100 301 100 q 513 153 469 100 q 556 310 556 207 q 512 465 556 411 q 385 518 468 518 m 506 1040 l 613 961 l 393 707 l 325 753 l 506 1040 z "},"ŏ":{"ha":771,"x_min":60,"x_max":713,"o":"m 383 647 q 626 558 539 647 q 713 310 713 468 q 626 63 713 151 q 383 -26 539 -26 q 145 63 231 -26 q 60 310 60 151 q 145 558 60 468 q 383 647 231 647 m 385 518 q 258 465 301 518 q 215 310 215 411 q 258 153 215 207 q 385 100 301 100 q 513 153 469 100 q 556 310 556 207 q 512 465 556 411 q 385 518 468 518 m 385 717 q 219 766 281 717 q 144 911 158 815 l 253 926 q 290 848 257 875 q 385 821 324 821 q 482 848 447 821 q 519 926 517 875 l 628 911 q 553 766 614 815 q 385 717 492 717 z "},"ô":{"ha":771,"x_min":60,"x_max":713,"o":"m 383 647 q 626 558 539 647 q 713 310 713 468 q 626 63 713 151 q 383 -26 539 -26 q 145 63 231 -26 q 60 310 60 151 q 145 558 60 468 q 383 647 231 647 m 385 518 q 258 465 301 518 q 215 310 215 411 q 258 153 215 207 q 385 100 301 100 q 513 153 469 100 q 556 310 556 207 q 512 465 556 411 q 385 518 468 518 m 388 938 l 615 778 l 567 708 l 389 813 l 200 708 l 154 778 l 388 938 z "},"ố":{"ha":771,"x_min":60,"x_max":713,"o":"m 383 647 q 626 558 539 647 q 713 310 713 468 q 626 63 713 151 q 383 -26 539 -26 q 145 63 231 -26 q 60 310 60 151 q 145 558 60 468 q 383 647 231 647 m 385 518 q 258 465 301 518 q 215 310 215 411 q 258 153 215 207 q 385 100 301 100 q 513 153 469 100 q 556 310 556 207 q 512 465 556 411 q 385 518 468 518 m 606 1147 l 713 1068 l 544 878 l 476 925 l 606 1147 m 388 938 l 615 778 l 567 708 l 389 813 l 200 708 l 154 778 l 388 938 z "},"ộ":{"ha":771,"x_min":60,"x_max":713,"o":"m 383 647 q 626 558 539 647 q 713 310 713 468 q 626 63 713 151 q 383 -26 539 -26 q 145 63 231 -26 q 60 310 60 151 q 145 558 60 468 q 383 647 231 647 m 385 518 q 258 465 301 518 q 215 310 215 411 q 258 153 215 207 q 385 100 301 100 q 513 153 469 100 q 556 310 556 207 q 512 465 556 411 q 385 518 468 518 m 385 -81 q 454 -107 428 -81 q 481 -176 481 -133 q 454 -246 481 -219 q 385 -272 428 -272 q 316 -246 342 -272 q 290 -176 290 -219 q 316 -107 290 -133 q 385 -81 342 -81 m 388 938 l 615 778 l 567 708 l 389 813 l 200 708 l 154 778 l 388 938 z "},"ồ":{"ha":771,"x_min":60,"x_max":713,"o":"m 383 647 q 626 558 539 647 q 713 310 713 468 q 626 63 713 151 q 383 -26 539 -26 q 145 63 231 -26 q 60 310 60 151 q 145 558 60 468 q 383 647 231 647 m 385 518 q 258 465 301 518 q 215 310 215 411 q 258 153 215 207 q 385 100 301 100 q 513 153 469 100 q 556 310 556 207 q 512 465 556 411 q 385 518 468 518 m 536 878 l 367 1067 l 474 1146 l 604 925 l 536 878 m 388 938 l 615 778 l 567 708 l 389 813 l 200 708 l 154 778 l 388 938 z "},"ổ":{"ha":771,"x_min":60,"x_max":713,"o":"m 383 647 q 626 558 539 647 q 713 310 713 468 q 626 63 713 151 q 383 -26 539 -26 q 145 63 231 -26 q 60 310 60 151 q 145 558 60 468 q 383 647 231 647 m 385 518 q 258 465 301 518 q 215 310 215 411 q 258 153 215 207 q 385 100 301 100 q 513 153 469 100 q 556 310 556 207 q 512 465 556 411 q 385 518 468 518 m 388 938 l 615 778 l 567 708 l 389 813 l 200 708 l 154 778 l 388 938 m 511 903 q 551 947 536 924 q 565 990 565 969 q 553 1020 565 1008 q 521 1032 542 1032 q 449 992 486 1032 l 388 1060 q 540 1138 457 1138 q 635 1104 600 1138 q 669 1018 669 1071 q 642 932 669 975 q 563 854 615 889 l 511 903 z "},"ỗ":{"ha":771,"x_min":60,"x_max":713,"o":"m 383 647 q 626 558 539 647 q 713 310 713 468 q 626 63 713 151 q 383 -26 539 -26 q 145 63 231 -26 q 60 310 60 151 q 145 558 60 468 q 383 647 231 647 m 385 518 q 258 465 301 518 q 215 310 215 411 q 258 153 215 207 q 385 100 301 100 q 513 153 469 100 q 556 310 556 207 q 512 465 556 411 q 385 518 468 518 m 157 1074 q 231 1118 201 1106 q 303 1131 261 1131 q 353 1122 331 1131 q 406 1099 376 1114 q 448 1080 431 1086 q 483 1074 465 1074 q 533 1083 511 1074 q 592 1117 554 1092 l 608 1025 q 542 979 572 993 q 469 965 511 965 q 430 972 449 965 q 383 993 411 979 q 338 1015 357 1007 q 296 1022 318 1022 q 251 1016 271 1022 q 209 999 232 1010 q 176 983 186 988 l 157 1074 m 388 938 l 615 778 l 567 708 l 389 813 l 200 708 l 154 778 l 388 938 z "},"ȍ":{"ha":771,"x_min":11,"x_max":713,"o":"m 383 647 q 626 558 539 647 q 713 310 713 468 q 626 63 713 151 q 383 -26 539 -26 q 145 63 231 -26 q 60 310 60 151 q 145 558 60 468 q 383 647 231 647 m 385 518 q 258 465 301 518 q 215 310 215 411 q 258 153 215 207 q 385 100 301 100 q 513 153 469 100 q 556 310 556 207 q 512 465 556 411 q 385 518 468 518 m 374 1040 l 553 753 l 486 707 l 265 961 l 374 1040 m 100 1011 l 332 765 l 275 707 l 11 915 l 100 1011 z "},"ö":{"ha":771,"x_min":60,"x_max":713,"o":"m 383 647 q 626 558 539 647 q 713 310 713 468 q 626 63 713 151 q 383 -26 539 -26 q 145 63 231 -26 q 60 310 60 151 q 145 558 60 468 q 383 647 231 647 m 385 518 q 258 465 301 518 q 215 310 215 411 q 258 153 215 207 q 385 100 301 100 q 513 153 469 100 q 556 310 556 207 q 512 465 556 411 q 385 518 468 518 m 253 914 q 319 885 290 914 q 347 818 347 857 q 319 751 347 779 q 253 724 290 724 q 185 751 214 724 q 157 818 157 779 q 185 885 157 857 q 253 914 214 914 m 518 914 q 584 885 556 914 q 613 818 613 857 q 584 751 613 779 q 518 724 556 724 q 451 751 479 724 q 422 818 422 779 q 451 885 422 857 q 518 914 479 914 z "},"ȫ":{"ha":771,"x_min":60,"x_max":713,"o":"m 383 647 q 626 558 539 647 q 713 310 713 468 q 626 63 713 151 q 383 -26 539 -26 q 145 63 231 -26 q 60 310 60 151 q 145 558 60 468 q 383 647 231 647 m 385 518 q 258 465 301 518 q 215 310 215 411 q 258 153 215 207 q 385 100 301 100 q 513 153 469 100 q 556 310 556 207 q 512 465 556 411 q 385 518 468 518 m 253 914 q 319 885 290 914 q 347 818 347 857 q 319 751 347 779 q 253 724 290 724 q 185 751 214 724 q 157 818 157 779 q 185 885 157 857 q 253 914 214 914 m 518 914 q 584 885 556 914 q 613 818 613 857 q 584 751 613 779 q 518 724 556 724 q 451 751 479 724 q 422 818 422 779 q 451 885 422 857 q 518 914 479 914 m 153 1078 l 617 1078 l 617 972 l 153 972 l 153 1078 z "},"ȱ":{"ha":771,"x_min":60,"x_max":713,"o":"m 383 647 q 626 558 539 647 q 713 310 713 468 q 626 63 713 151 q 383 -26 539 -26 q 145 63 231 -26 q 60 310 60 151 q 145 558 60 468 q 383 647 231 647 m 385 518 q 258 465 301 518 q 215 310 215 411 q 258 153 215 207 q 385 100 301 100 q 513 153 469 100 q 556 310 556 207 q 512 465 556 411 q 385 518 468 518 m 385 922 q 454 896 428 922 q 481 826 481 869 q 454 757 481 783 q 385 731 428 731 q 316 757 342 731 q 290 826 290 783 q 316 896 290 869 q 385 922 342 922 m 151 1078 l 615 1078 l 615 972 l 151 972 l 151 1078 z "},"ọ":{"ha":771,"x_min":60,"x_max":713,"o":"m 383 647 q 626 558 539 647 q 713 310 713 468 q 626 63 713 151 q 383 -26 539 -26 q 145 63 231 -26 q 60 310 60 151 q 145 558 60 468 q 383 647 231 647 m 385 518 q 258 465 301 518 q 215 310 215 411 q 258 153 215 207 q 385 100 301 100 q 513 153 469 100 q 556 310 556 207 q 512 465 556 411 q 385 518 468 518 m 385 -81 q 454 -107 428 -81 q 481 -176 481 -133 q 454 -246 481 -219 q 385 -272 428 -272 q 316 -246 342 -272 q 290 -176 290 -219 q 316 -107 290 -133 q 385 -81 342 -81 z "},"ò":{"ha":771,"x_min":60,"x_max":713,"o":"m 383 647 q 626 558 539 647 q 713 310 713 468 q 626 63 713 151 q 383 -26 539 -26 q 145 63 231 -26 q 60 310 60 151 q 145 558 60 468 q 383 647 231 647 m 385 518 q 258 465 301 518 q 215 310 215 411 q 258 153 215 207 q 385 100 301 100 q 513 153 469 100 q 556 310 556 207 q 512 465 556 411 q 385 518 468 518 m 386 707 l 165 961 l 274 1040 l 453 753 l 386 707 z "},"ỏ":{"ha":771,"x_min":60,"x_max":713,"o":"m 383 647 q 626 558 539 647 q 713 310 713 468 q 626 63 713 151 q 383 -26 539 -26 q 145 63 231 -26 q 60 310 60 151 q 145 558 60 468 q 383 647 231 647 m 385 518 q 258 465 301 518 q 215 310 215 411 q 258 153 215 207 q 385 100 301 100 q 513 153 469 100 q 556 310 556 207 q 512 465 556 411 q 385 518 468 518 m 360 735 q 399 778 385 756 q 414 822 414 801 q 402 852 414 840 q 369 864 390 864 q 297 824 335 864 l 236 892 q 389 969 306 969 q 483 936 449 969 q 518 850 518 903 q 491 764 518 807 q 411 686 464 721 l 360 735 z "},"ơ":{"ha":771,"x_min":60,"x_max":731,"o":"m 731 731 q 647 532 731 589 q 713 310 713 447 q 626 63 713 151 q 383 -26 539 -26 q 145 63 231 -26 q 60 310 60 151 q 145 558 60 468 q 383 647 231 647 q 528 622 465 647 q 585 655 565 628 q 604 731 604 682 l 731 731 m 385 100 q 513 153 469 100 q 556 310 556 207 q 512 465 556 411 q 385 518 468 518 q 258 465 301 518 q 215 310 215 411 q 258 153 215 207 q 385 100 301 100 z "},"ớ":{"ha":771,"x_min":60,"x_max":731,"o":"m 731 731 q 647 532 731 589 q 713 310 713 447 q 626 63 713 151 q 383 -26 539 -26 q 145 63 231 -26 q 60 310 60 151 q 145 558 60 468 q 383 647 231 647 q 528 622 465 647 q 585 655 565 628 q 604 731 604 682 l 731 731 m 385 100 q 513 153 469 100 q 556 310 556 207 q 512 465 556 411 q 385 518 468 518 q 258 465 301 518 q 215 310 215 411 q 258 153 215 207 q 385 100 301 100 m 506 1040 l 613 961 l 393 707 l 325 753 l 506 1040 z "},"ợ":{"ha":771,"x_min":60,"x_max":731,"o":"m 731 731 q 647 532 731 589 q 713 310 713 447 q 626 63 713 151 q 383 -26 539 -26 q 145 63 231 -26 q 60 310 60 151 q 145 558 60 468 q 383 647 231 647 q 528 622 465 647 q 585 655 565 628 q 604 731 604 682 l 731 731 m 385 100 q 513 153 469 100 q 556 310 556 207 q 512 465 556 411 q 385 518 468 518 q 258 465 301 518 q 215 310 215 411 q 258 153 215 207 q 385 100 301 100 m 385 -81 q 454 -107 428 -81 q 481 -176 481 -133 q 454 -246 481 -219 q 385 -272 428 -272 q 316 -246 342 -272 q 290 -176 290 -219 q 316 -107 290 -133 q 385 -81 342 -81 z "},"ờ":{"ha":771,"x_min":60,"x_max":731,"o":"m 731 731 q 647 532 731 589 q 713 310 713 447 q 626 63 713 151 q 383 -26 539 -26 q 145 63 231 -26 q 60 310 60 151 q 145 558 60 468 q 383 647 231 647 q 528 622 465 647 q 585 655 565 628 q 604 731 604 682 l 731 731 m 385 100 q 513 153 469 100 q 556 310 556 207 q 512 465 556 411 q 385 518 468 518 q 258 465 301 518 q 215 310 215 411 q 258 153 215 207 q 385 100 301 100 m 386 707 l 165 961 l 274 1040 l 453 753 l 386 707 z "},"ở":{"ha":771,"x_min":60,"x_max":731,"o":"m 731 731 q 647 532 731 589 q 713 310 713 447 q 626 63 713 151 q 383 -26 539 -26 q 145 63 231 -26 q 60 310 60 151 q 145 558 60 468 q 383 647 231 647 q 528 622 465 647 q 585 655 565 628 q 604 731 604 682 l 731 731 m 385 100 q 513 153 469 100 q 556 310 556 207 q 512 465 556 411 q 385 518 468 518 q 258 465 301 518 q 215 310 215 411 q 258 153 215 207 q 385 100 301 100 m 360 735 q 399 778 385 756 q 414 822 414 801 q 402 852 414 840 q 369 864 390 864 q 297 824 335 864 l 236 892 q 389 969 306 969 q 483 936 449 969 q 518 850 518 903 q 491 764 518 807 q 411 686 464 721 l 360 735 z "},"ỡ":{"ha":771,"x_min":60,"x_max":731,"o":"m 731 731 q 647 532 731 589 q 713 310 713 447 q 626 63 713 151 q 383 -26 539 -26 q 145 63 231 -26 q 60 310 60 151 q 145 558 60 468 q 383 647 231 647 q 528 622 465 647 q 585 655 565 628 q 604 731 604 682 l 731 731 m 385 100 q 513 153 469 100 q 556 310 556 207 q 512 465 556 411 q 385 518 468 518 q 258 465 301 518 q 215 310 215 411 q 258 153 215 207 q 385 100 301 100 m 153 824 q 237 876 201 861 q 319 890 272 890 q 371 883 347 890 q 422 860 394 875 q 465 841 447 847 q 500 835 482 835 q 549 843 528 835 q 608 876 569 851 l 646 788 q 569 734 604 750 q 486 718 535 718 q 447 725 465 718 q 400 746 428 732 q 353 767 374 760 q 311 775 333 775 q 268 769 288 775 q 226 751 249 763 q 193 736 203 740 l 153 824 z "},"ő":{"ha":771,"x_min":60,"x_max":746,"o":"m 383 647 q 626 558 539 647 q 713 310 713 468 q 626 63 713 151 q 383 -26 539 -26 q 145 63 231 -26 q 60 310 60 151 q 145 558 60 468 q 383 647 231 647 m 385 518 q 258 465 301 518 q 215 310 215 411 q 258 153 215 207 q 385 100 301 100 q 513 153 469 100 q 556 310 556 207 q 512 465 556 411 q 385 518 468 518 m 385 1040 l 492 961 l 272 707 l 204 753 l 385 1040 m 658 1011 l 746 915 l 483 707 l 425 765 l 658 1011 z "},"ȏ":{"ha":771,"x_min":60,"x_max":713,"o":"m 383 647 q 626 558 539 647 q 713 310 713 468 q 626 63 713 151 q 383 -26 539 -26 q 145 63 231 -26 q 60 310 60 151 q 145 558 60 468 q 383 647 231 647 m 385 518 q 258 465 301 518 q 215 310 215 411 q 258 153 215 207 q 385 100 301 100 q 513 153 469 100 q 556 310 556 207 q 512 465 556 411 q 385 518 468 518 m 385 940 q 553 891 492 940 q 628 746 614 842 l 519 731 q 482 809 517 782 q 385 836 447 836 q 290 809 324 836 q 253 731 257 782 l 144 746 q 219 891 158 842 q 385 940 281 940 z "},"ō":{"ha":771,"x_min":60,"x_max":713,"o":"m 383 647 q 626 558 539 647 q 713 310 713 468 q 626 63 713 151 q 383 -26 539 -26 q 145 63 231 -26 q 60 310 60 151 q 145 558 60 468 q 383 647 231 647 m 385 518 q 258 465 301 518 q 215 310 215 411 q 258 153 215 207 q 385 100 301 100 q 513 153 469 100 q 556 310 556 207 q 512 465 556 411 q 385 518 468 518 m 153 858 l 617 858 l 617 753 l 153 753 l 153 858 z "},"ṓ":{"ha":771,"x_min":60,"x_max":713,"o":"m 383 647 q 626 558 539 647 q 713 310 713 468 q 626 63 713 151 q 383 -26 539 -26 q 145 63 231 -26 q 60 310 60 151 q 145 558 60 468 q 383 647 231 647 m 385 518 q 258 465 301 518 q 215 310 215 411 q 258 153 215 207 q 385 100 301 100 q 513 153 469 100 q 556 310 556 207 q 512 465 556 411 q 385 518 468 518 m 153 858 l 617 858 l 617 753 l 153 753 l 153 858 m 511 1243 l 618 1164 l 399 910 l 331 956 l 511 1243 z "},"ṑ":{"ha":771,"x_min":60,"x_max":713,"o":"m 383 647 q 626 558 539 647 q 713 310 713 468 q 626 63 713 151 q 383 -26 539 -26 q 145 63 231 -26 q 60 310 60 151 q 145 558 60 468 q 383 647 231 647 m 385 518 q 258 465 301 518 q 215 310 215 411 q 258 153 215 207 q 385 100 301 100 q 513 153 469 100 q 556 310 556 207 q 512 465 556 411 q 385 518 468 518 m 153 858 l 617 858 l 617 753 l 153 753 l 153 858 m 392 910 l 171 1164 l 279 1243 l 458 956 l 392 910 z "},"ǫ":{"ha":771,"x_min":60,"x_max":713,"o":"m 713 310 q 678 138 713 211 q 578 24 643 65 l 575 22 l 554 10 q 461 -128 461 -46 q 484 -176 461 -158 q 544 -194 507 -194 q 613 -181 579 -194 l 613 -281 q 489 -307 553 -307 q 360 -270 407 -307 q 313 -176 313 -233 q 381 -26 313 -90 q 144 64 229 -25 q 60 310 60 153 q 145 558 60 468 q 383 647 231 647 q 626 558 539 647 q 713 310 713 468 m 215 310 q 258 153 215 207 q 385 100 301 100 q 513 153 469 100 q 556 310 556 207 q 512 465 556 411 q 385 518 468 518 q 258 465 301 518 q 215 310 215 411 z "},"ø":{"ha":771,"x_min":60,"x_max":713,"o":"m 554 610 q 672 494 631 571 q 713 310 713 418 q 626 63 713 151 q 383 -26 539 -26 q 283 -15 332 -26 l 244 -106 l 160 -106 l 211 13 q 99 128 138 53 q 60 310 60 204 q 145 558 60 468 q 383 647 231 647 q 481 636 433 647 l 514 713 l 599 713 l 554 610 m 215 310 q 268 143 215 199 l 428 514 q 385 518 407 518 q 258 465 301 518 q 215 310 215 411 m 385 100 q 513 153 469 100 q 556 310 556 207 q 497 479 556 426 l 336 106 q 385 100 357 100 z "},"ǿ":{"ha":771,"x_min":60,"x_max":713,"o":"m 554 610 q 672 494 631 571 q 713 310 713 418 q 626 63 713 151 q 383 -26 539 -26 q 283 -15 332 -26 l 244 -106 l 160 -106 l 211 13 q 99 128 138 53 q 60 310 60 204 q 145 558 60 468 q 383 647 231 647 q 481 636 433 647 l 514 713 l 599 713 l 554 610 m 215 310 q 268 143 215 199 l 428 514 q 385 518 407 518 q 258 465 301 518 q 215 310 215 411 m 385 100 q 513 153 469 100 q 556 310 556 207 q 497 479 556 426 l 336 106 q 385 100 357 100 m 506 1040 l 613 961 l 393 707 l 325 753 l 506 1040 z "},"õ":{"ha":771,"x_min":60,"x_max":713,"o":"m 383 647 q 626 558 539 647 q 713 310 713 468 q 626 63 713 151 q 383 -26 539 -26 q 145 63 231 -26 q 60 310 60 151 q 145 558 60 468 q 383 647 231 647 m 385 518 q 258 465 301 518 q 215 310 215 411 q 258 153 215 207 q 385 100 301 100 q 513 153 469 100 q 556 310 556 207 q 512 465 556 411 q 385 518 468 518 m 153 824 q 237 876 201 861 q 319 890 272 890 q 371 883 347 890 q 422 860 394 875 q 465 841 447 847 q 500 835 482 835 q 549 843 528 835 q 608 876 569 851 l 646 788 q 569 734 604 750 q 486 718 535 718 q 447 725 465 718 q 400 746 428 732 q 353 767 374 760 q 311 775 333 775 q 268 769 288 775 q 226 751 249 763 q 193 736 203 740 l 153 824 z "},"ṍ":{"ha":771,"x_min":60,"x_max":713,"o":"m 383 647 q 626 558 539 647 q 713 310 713 468 q 626 63 713 151 q 383 -26 539 -26 q 145 63 231 -26 q 60 310 60 151 q 145 558 60 468 q 383 647 231 647 m 385 518 q 258 465 301 518 q 215 310 215 411 q 258 153 215 207 q 385 100 301 100 q 513 153 469 100 q 556 310 556 207 q 512 465 556 411 q 385 518 468 518 m 153 824 q 237 876 201 861 q 319 890 272 890 q 371 883 347 890 q 422 860 394 875 q 465 841 447 847 q 500 835 482 835 q 549 843 528 835 q 608 876 569 851 l 646 788 q 569 734 604 750 q 486 718 535 718 q 447 725 465 718 q 400 746 428 732 q 353 767 374 760 q 311 775 333 775 q 268 769 288 775 q 226 751 249 763 q 193 736 203 740 l 153 824 m 483 1268 l 590 1189 l 371 935 l 303 981 l 483 1268 z "},"ṏ":{"ha":771,"x_min":60,"x_max":713,"o":"m 383 647 q 626 558 539 647 q 713 310 713 468 q 626 63 713 151 q 383 -26 539 -26 q 145 63 231 -26 q 60 310 60 151 q 145 558 60 468 q 383 647 231 647 m 385 518 q 258 465 301 518 q 215 310 215 411 q 258 153 215 207 q 385 100 301 100 q 513 153 469 100 q 556 310 556 207 q 512 465 556 411 q 385 518 468 518 m 153 824 q 237 876 201 861 q 319 890 272 890 q 371 883 347 890 q 422 860 394 875 q 465 841 447 847 q 500 835 482 835 q 549 843 528 835 q 608 876 569 851 l 646 788 q 569 734 604 750 q 486 718 535 718 q 447 725 465 718 q 400 746 428 732 q 353 767 374 760 q 311 775 333 775 q 268 769 288 775 q 226 751 249 763 q 193 736 203 740 l 153 824 m 231 1142 q 297 1113 268 1142 q 325 1046 325 1085 q 297 979 325 1007 q 231 951 268 951 q 163 979 192 951 q 135 1046 135 1007 q 163 1113 135 1085 q 231 1142 192 1142 m 496 1142 q 562 1113 533 1142 q 590 1046 590 1085 q 562 979 590 1007 q 496 951 533 951 q 428 979 457 951 q 400 1046 400 1007 q 428 1113 400 1085 q 496 1142 457 1142 z "},"ȭ":{"ha":771,"x_min":60,"x_max":713,"o":"m 383 647 q 626 558 539 647 q 713 310 713 468 q 626 63 713 151 q 383 -26 539 -26 q 145 63 231 -26 q 60 310 60 151 q 145 558 60 468 q 383 647 231 647 m 385 518 q 258 465 301 518 q 215 310 215 411 q 258 153 215 207 q 385 100 301 100 q 513 153 469 100 q 556 310 556 207 q 512 465 556 411 q 385 518 468 518 m 153 824 q 237 876 201 861 q 319 890 272 890 q 371 883 347 890 q 422 860 394 875 q 465 841 447 847 q 500 835 482 835 q 549 843 528 835 q 608 876 569 851 l 646 788 q 569 734 604 750 q 486 718 535 718 q 447 725 465 718 q 400 746 428 732 q 353 767 374 760 q 311 775 333 775 q 268 769 288 775 q 226 751 249 763 q 193 736 203 740 l 153 824 m 131 1086 l 594 1086 l 594 981 l 131 981 l 131 1086 z "},"œ":{"ha":1076,"x_min":54,"x_max":1021,"o":"m 1011 74 q 915 8 982 44 q 735 -28 849 -28 q 569 24 644 -28 q 382 -28 493 -28 q 144 60 233 -28 q 54 306 54 149 q 96 483 54 408 q 212 597 138 557 q 382 636 286 636 q 491 622 440 636 q 576 583 542 607 q 740 636 654 636 q 947 561 872 636 q 1021 333 1021 486 q 1013 251 1021 285 l 578 250 q 627 137 588 176 q 736 97 667 97 q 942 163 854 97 l 1011 74 m 383 507 q 258 453 301 507 q 214 306 214 400 q 258 152 214 207 q 383 97 301 97 q 482 119 432 97 q 438 303 438 190 q 485 488 438 413 q 383 507 443 507 m 878 378 q 844 472 879 438 q 736 507 808 507 q 633 474 672 507 q 581 376 594 440 l 878 378 z "},"p":{"ha":828,"x_min":28,"x_max":774,"o":"m 43 -181 l 160 -181 l 160 472 l 28 517 l 69 644 l 265 578 q 363 628 311 610 q 463 647 415 647 q 690 559 607 647 q 774 317 774 471 q 733 135 774 214 q 619 15 693 57 q 446 -28 544 -28 q 318 -11 376 -28 l 318 -181 l 435 -181 l 435 -306 l 43 -306 l 43 -181 m 444 99 q 567 156 524 99 q 611 315 611 213 q 571 466 611 414 q 454 518 531 518 q 378 505 415 518 q 315 468 342 492 l 315 124 q 374 106 339 113 q 444 99 410 99 z "},"þ":{"ha":764,"x_min":-43,"x_max":710,"o":"m 253 606 q 319 632 281 622 q 394 642 357 642 q 625 555 540 642 q 710 317 710 468 q 669 135 710 213 q 555 15 629 57 q 382 -28 481 -28 q 253 -11 311 -28 l 253 -181 l 369 -181 l 369 -306 l -21 -306 l -21 -181 l 96 -181 l 96 753 l -43 800 l 3 935 l 253 849 l 253 606 m 253 124 q 379 99 314 99 q 505 156 461 99 q 549 314 549 213 q 506 461 549 410 q 385 513 464 513 q 313 499 349 513 q 253 468 278 485 l 253 124 z "},"q":{"ha":761,"x_min":56,"x_max":769,"o":"m 378 -181 l 513 -181 l 513 7 q 444 -17 482 -8 q 368 -26 406 -26 q 138 66 221 -26 q 56 322 56 158 q 147 561 56 475 q 397 647 238 647 q 536 627 464 647 q 671 569 608 607 l 671 -181 l 769 -181 l 769 -306 l 378 -306 l 378 -181 m 379 100 q 448 108 411 100 q 513 131 485 117 l 513 483 q 454 508 489 499 q 381 518 419 518 q 261 465 307 518 q 215 322 215 411 q 260 162 215 224 q 379 100 306 100 z "},"r":{"ha":656,"x_min":46,"x_max":635,"o":"m 293 568 q 513 644 410 644 q 611 626 564 644 l 635 454 l 504 426 l 490 501 q 338 451 397 496 l 336 126 l 472 126 l 472 0 l 63 0 l 63 126 l 179 126 l 179 465 l 46 510 l 88 636 l 293 568 z "},"ŕ":{"ha":656,"x_min":46,"x_max":635,"o":"m 293 568 q 513 644 410 644 q 611 626 564 644 l 635 454 l 504 426 l 490 501 q 338 451 397 496 l 336 126 l 472 126 l 472 0 l 63 0 l 63 126 l 179 126 l 179 465 l 46 510 l 88 636 l 293 568 m 436 1040 l 543 961 l 324 707 l 256 753 l 436 1040 z "},"ř":{"ha":656,"x_min":46,"x_max":635,"o":"m 293 568 q 513 644 410 644 q 611 626 564 644 l 635 454 l 504 426 l 490 501 q 338 451 397 496 l 336 126 l 472 126 l 472 0 l 63 0 l 63 126 l 179 126 l 179 465 l 46 510 l 88 636 l 293 568 m 318 694 l 85 854 l 131 924 l 319 819 l 497 924 l 546 854 l 318 694 z "},"ŗ":{"ha":656,"x_min":46,"x_max":635,"o":"m 293 568 q 513 644 410 644 q 611 626 564 644 l 635 454 l 504 426 l 490 501 q 338 451 397 496 l 336 126 l 472 126 l 472 0 l 63 0 l 63 126 l 179 126 l 179 465 l 46 510 l 88 636 l 293 568 m 154 -407 q 184 -363 161 -397 q 221 -300 207 -329 q 158 -264 179 -292 q 138 -200 138 -236 q 168 -124 138 -153 q 247 -94 199 -94 q 326 -128 292 -94 q 361 -208 361 -162 q 318 -337 361 -278 q 243 -426 275 -396 q 206 -461 211 -456 l 154 -407 z "},"ȑ":{"ha":656,"x_min":-58,"x_max":635,"o":"m 293 568 q 513 644 410 644 q 611 626 564 644 l 635 454 l 504 426 l 490 501 q 338 451 397 496 l 336 126 l 472 126 l 472 0 l 63 0 l 63 126 l 179 126 l 179 465 l 46 510 l 88 636 l 293 568 m 304 1040 l 483 753 l 417 707 l 196 961 l 304 1040 m 31 1011 l 263 765 l 206 707 l -58 915 l 31 1011 z "},"ṛ":{"ha":656,"x_min":46,"x_max":635,"o":"m 293 568 q 513 644 410 644 q 611 626 564 644 l 635 454 l 504 426 l 490 501 q 338 451 397 496 l 336 126 l 472 126 l 472 0 l 63 0 l 63 126 l 179 126 l 179 465 l 46 510 l 88 636 l 293 568 m 249 -81 q 318 -107 292 -81 q 344 -176 344 -133 q 318 -246 344 -219 q 249 -272 292 -272 q 180 -246 206 -272 q 154 -176 154 -219 q 180 -107 154 -133 q 249 -81 206 -81 z "},"ȓ":{"ha":656,"x_min":46,"x_max":635,"o":"m 293 568 q 513 644 410 644 q 611 626 564 644 l 635 454 l 504 426 l 490 501 q 338 451 397 496 l 336 126 l 472 126 l 472 0 l 63 0 l 63 126 l 179 126 l 179 465 l 46 510 l 88 636 l 293 568 m 315 940 q 483 891 422 940 q 558 746 544 842 l 450 731 q 413 809 447 782 q 315 836 378 836 q 221 809 254 836 q 183 731 188 782 l 75 746 q 150 891 89 842 q 315 940 211 940 z "},"ṟ":{"ha":656,"x_min":22,"x_max":635,"o":"m 293 568 q 513 644 410 644 q 611 626 564 644 l 635 454 l 504 426 l 490 501 q 338 451 397 496 l 336 126 l 472 126 l 472 0 l 63 0 l 63 126 l 179 126 l 179 465 l 46 510 l 88 636 l 293 568 m 22 -76 l 478 -76 l 478 -182 l 22 -182 l 22 -76 z "},"s":{"ha":646,"x_min":50,"x_max":600,"o":"m 433 514 q 328 532 379 532 q 239 513 275 532 q 203 458 203 493 q 226 406 203 424 q 311 379 249 388 l 394 367 q 551 308 501 353 q 600 182 600 263 q 522 27 600 81 q 328 -26 444 -26 q 75 36 181 -26 l 50 181 l 182 204 l 197 128 q 319 100 254 100 q 420 120 381 100 q 460 178 460 140 q 438 226 460 208 q 356 250 415 243 l 276 263 q 118 326 174 278 q 63 450 63 374 q 135 594 63 540 q 325 647 208 647 q 549 585 456 647 l 574 451 l 456 429 l 433 514 z "},"ś":{"ha":646,"x_min":50,"x_max":600,"o":"m 433 514 q 328 532 379 532 q 239 513 275 532 q 203 458 203 493 q 226 406 203 424 q 311 379 249 388 l 394 367 q 551 308 501 353 q 600 182 600 263 q 522 27 600 81 q 328 -26 444 -26 q 75 36 181 -26 l 50 181 l 182 204 l 197 128 q 319 100 254 100 q 420 120 381 100 q 460 178 460 140 q 438 226 460 208 q 356 250 415 243 l 276 263 q 118 326 174 278 q 63 450 63 374 q 135 594 63 540 q 325 647 208 647 q 549 585 456 647 l 574 451 l 456 429 l 433 514 m 439 1040 l 546 961 l 326 707 l 258 753 l 439 1040 z "},"ṥ":{"ha":646,"x_min":50,"x_max":600,"o":"m 433 514 q 328 532 379 532 q 239 513 275 532 q 203 458 203 493 q 226 406 203 424 q 311 379 249 388 l 394 367 q 551 308 501 353 q 600 182 600 263 q 522 27 600 81 q 328 -26 444 -26 q 75 36 181 -26 l 50 181 l 182 204 l 197 128 q 319 100 254 100 q 420 120 381 100 q 460 178 460 140 q 438 226 460 208 q 356 250 415 243 l 276 263 q 118 326 174 278 q 63 450 63 374 q 135 594 63 540 q 325 647 208 647 q 549 585 456 647 l 574 451 l 456 429 l 433 514 m 439 1040 l 546 961 l 326 707 l 258 753 l 439 1040 m 432 1269 q 501 1243 475 1269 q 528 1174 528 1217 q 501 1104 528 1131 q 432 1078 475 1078 q 363 1104 389 1078 q 338 1174 338 1131 q 363 1243 338 1217 q 432 1269 389 1269 z "},"š":{"ha":646,"x_min":50,"x_max":600,"o":"m 433 514 q 328 532 379 532 q 239 513 275 532 q 203 458 203 493 q 226 406 203 424 q 311 379 249 388 l 394 367 q 551 308 501 353 q 600 182 600 263 q 522 27 600 81 q 328 -26 444 -26 q 75 36 181 -26 l 50 181 l 182 204 l 197 128 q 319 100 254 100 q 420 120 381 100 q 460 178 460 140 q 438 226 460 208 q 356 250 415 243 l 276 263 q 118 326 174 278 q 63 450 63 374 q 135 594 63 540 q 325 647 208 647 q 549 585 456 647 l 574 451 l 456 429 l 433 514 m 321 694 l 88 854 l 133 924 l 322 819 l 500 924 l 549 854 l 321 694 z "},"ṧ":{"ha":646,"x_min":50,"x_max":600,"o":"m 433 514 q 328 532 379 532 q 239 513 275 532 q 203 458 203 493 q 226 406 203 424 q 311 379 249 388 l 394 367 q 551 308 501 353 q 600 182 600 263 q 522 27 600 81 q 328 -26 444 -26 q 75 36 181 -26 l 50 181 l 182 204 l 197 128 q 319 100 254 100 q 420 120 381 100 q 460 178 460 140 q 438 226 460 208 q 356 250 415 243 l 276 263 q 118 326 174 278 q 63 450 63 374 q 135 594 63 540 q 325 647 208 647 q 549 585 456 647 l 574 451 l 456 429 l 433 514 m 321 694 l 88 854 l 133 924 l 322 819 l 500 924 l 549 854 l 321 694 m 318 1133 q 388 1107 361 1133 q 414 1038 414 1081 q 388 968 414 994 q 318 942 361 942 q 249 968 275 942 q 224 1038 224 994 q 249 1107 224 1081 q 318 1133 275 1133 z "},"ş":{"ha":646,"x_min":50,"x_max":600,"o":"m 418 -71 q 550 -97 507 -68 q 593 -190 593 -126 q 543 -292 593 -257 q 415 -326 493 -326 q 321 -308 361 -326 q 242 -264 281 -290 l 286 -197 q 414 -237 350 -237 q 459 -223 444 -237 q 474 -183 474 -208 q 400 -139 474 -139 l 319 -139 l 319 -26 q 75 36 179 -25 l 50 181 l 182 204 l 197 128 q 319 100 254 100 q 420 120 381 100 q 460 178 460 140 q 438 226 460 208 q 356 250 415 243 l 276 263 q 118 326 174 278 q 63 450 63 374 q 135 594 63 540 q 325 647 208 647 q 549 585 456 647 l 574 451 l 456 429 l 433 514 q 328 532 379 532 q 239 513 275 532 q 203 458 203 493 q 226 406 203 424 q 311 379 249 388 l 394 367 q 551 308 501 353 q 600 182 600 263 q 550 52 600 103 q 418 -17 500 1 l 418 -71 z "},"ŝ":{"ha":646,"x_min":50,"x_max":600,"o":"m 433 514 q 328 532 379 532 q 239 513 275 532 q 203 458 203 493 q 226 406 203 424 q 311 379 249 388 l 394 367 q 551 308 501 353 q 600 182 600 263 q 522 27 600 81 q 328 -26 444 -26 q 75 36 181 -26 l 50 181 l 182 204 l 197 128 q 319 100 254 100 q 420 120 381 100 q 460 178 460 140 q 438 226 460 208 q 356 250 415 243 l 276 263 q 118 326 174 278 q 63 450 63 374 q 135 594 63 540 q 325 647 208 647 q 549 585 456 647 l 574 451 l 456 429 l 433 514 m 321 938 l 549 778 l 500 708 l 322 813 l 133 708 l 88 778 l 321 938 z "},"ș":{"ha":646,"x_min":50,"x_max":600,"o":"m 433 514 q 328 532 379 532 q 239 513 275 532 q 203 458 203 493 q 226 406 203 424 q 311 379 249 388 l 394 367 q 551 308 501 353 q 600 182 600 263 q 522 27 600 81 q 328 -26 444 -26 q 75 36 181 -26 l 50 181 l 182 204 l 197 128 q 319 100 254 100 q 420 120 381 100 q 460 178 460 140 q 438 226 460 208 q 356 250 415 243 l 276 263 q 118 326 174 278 q 63 450 63 374 q 135 594 63 540 q 325 647 208 647 q 549 585 456 647 l 574 451 l 456 429 l 433 514 m 224 -407 q 253 -363 231 -397 q 290 -300 276 -329 q 228 -264 249 -292 q 207 -200 207 -236 q 238 -124 207 -153 q 317 -94 268 -94 q 396 -128 361 -94 q 431 -208 431 -162 q 388 -337 431 -278 q 313 -426 344 -396 q 275 -461 281 -456 l 224 -407 z "}}}
